<?xml version="1.0" encoding="UTF-8"?>
<svg id="OBJECTS" xmlns="http://www.w3.org/2000/svg" viewBox="0 0 117 147.24">
  <defs>
    <style>
      .cls-1 {
        fill: #00a551;
      }

      .cls-1, .cls-2 {
        stroke-width: 0px;
      }

      .cls-2 {
        fill: #fff;
      }
    </style>
  </defs>
  <path class="cls-1" d="M0,0h97c11.04,0,20,8.96,20,20v107.24c0,11.04-8.96,20-20,20H0V0h0Z"/>
  <g>
    <path class="cls-2" d="M102.59,28.16v2.78h-16.16v3.79h-2.19v-6.57h18.35Z"/>
    <path class="cls-2" d="M84.08,39.61c0-.47.07-.95.21-1.43.14-.48.42-.92.85-1.33.43-.41,1.08-.73,1.95-.97.87-.24,2.04-.37,3.5-.37h2.32c1.44,0,2.58.12,3.42.38.84.25,1.47.58,1.88.99.41.41.68.85.8,1.33.13.48.19.95.19,1.41s-.06.9-.18,1.38c-.12.47-.38.91-.79,1.31-.4.4-1.03.73-1.88.98-.85.25-2,.38-3.45.38h-2.32c-1.44,0-2.59-.13-3.45-.39-.86-.26-1.51-.59-1.96-1-.44-.41-.73-.85-.88-1.32-.15-.47-.22-.92-.22-1.35ZM86.1,39.63c0,.49.27.83.81,1.01s1.5.29,2.88.29h3.68c1.39,0,2.36-.1,2.9-.29s.82-.53.82-1.01-.27-.87-.82-1.07-1.51-.31-2.9-.31h-3.68c-1.38,0-2.34.1-2.88.31s-.81.57-.81,1.07Z"/>
    <path class="cls-2" d="M83.23,48.28c-.63,0-1.08.12-1.35.36-.27.24-.4.6-.4,1.09,0,.27.06.52.18.76.12.23.33.42.65.56.32.14.77.21,1.38.21h2.33c-.31-.24-.58-.55-.81-.93s-.34-.86-.34-1.43c0-.25.05-.55.14-.91.09-.35.31-.71.65-1.05.34-.35.87-.64,1.6-.87.72-.23,1.71-.35,2.96-.35h3.89c1.2,0,2.15.12,2.84.35.69.23,1.19.52,1.51.87s.53.71.61,1.07.13.69.13.95c0,.72-.17,1.28-.51,1.67-.34.39-.71.69-1.1.89l1.46.25v2.12h-14.2c-1.65,0-2.96-.33-3.93-.98-.97-.65-1.46-1.7-1.46-3.15,0-.65.08-1.25.24-1.78.16-.54.45-.96.88-1.28.42-.32,1.02-.48,1.79-.48.24,0,.53.05.86.14v1.92ZM87.08,49.82c0,.36.11.64.33.86s.47.38.74.49h7.76c.29-.14.55-.32.76-.54.21-.22.32-.5.32-.82,0-.26-.07-.5-.21-.7-.14-.2-.4-.37-.78-.48-.38-.12-.94-.18-1.68-.18h-4.53c-.73,0-1.29.06-1.68.18-.39.12-.66.28-.8.49-.15.21-.22.44-.22.71Z"/>
    <path class="cls-2" d="M92.46,59.26c.14.27.28.57.42.88s.26.6.35.87h1.79c.37,0,.72-.02,1.04-.05.32-.03.58-.13.79-.29.2-.16.31-.44.31-.82s-.16-.73-.47-1.04-.9-.46-1.75-.46h-.59v-2.07c.56-.13,1.05-.19,1.46-.19,1.1,0,1.94.36,2.52,1.08.58.72.87,1.65.87,2.77,0,.98-.14,1.75-.41,2.3-.28.55-.69.94-1.25,1.16-.55.22-1.26.33-2.11.33h-11.18v-2.09l1.27-.19c-.42-.29-.76-.67-1.03-1.14s-.41-1.02-.41-1.64.17-1.17.49-1.59.76-.73,1.3-.93c.54-.21,1.13-.31,1.77-.31,1.22,0,2.19.29,2.91.87.72.58,1.36,1.43,1.92,2.56ZM86.14,59.87c0,.23.06.44.18.63.12.19.26.37.44.52h4.66c-.06-.14-.12-.28-.2-.44s-.18-.34-.31-.55c-.24-.38-.59-.73-1.06-1.06-.47-.33-1.06-.49-1.79-.49-.57,0-1.03.11-1.38.33-.36.22-.53.58-.53,1.06Z"/>
    <path class="cls-2" d="M99.03,66.47v2.07l-1.58.27h-.01c.68.42,1.14.9,1.39,1.44.25.54.37,1.08.37,1.62,0,.86-.3,1.53-.91,2s-1.51.71-2.72.71h-11.33v-2.72h11.01c.65,0,1.1-.1,1.36-.3.25-.2.38-.49.38-.88,0-.27-.09-.54-.27-.79s-.43-.49-.74-.7h-11.74v-2.72h14.79Z"/>
    <path class="cls-2" d="M102.59,82.21v2.78h-7.68v3.3h7.68v2.78h-18.35v-2.78h8.48v-3.3h-8.48v-2.78h18.35Z"/>
    <path class="cls-2" d="M99.03,93.87v2.72h-10.88c-.65,0-1.1.1-1.36.3-.25.2-.38.49-.38.88,0,.57.29,1.07.87,1.49h11.75v2.72h-14.79v-2.07l1.58-.27h0c-.67-.43-1.13-.91-1.38-1.44-.25-.53-.37-1.07-.37-1.62,0-.86.3-1.53.91-2,.6-.47,1.51-.71,2.72-.71h11.33Z"/>
    <path class="cls-2" d="M99.03,104.75v2.07l-1.58.27h-.01c.68.42,1.14.9,1.39,1.44.25.54.37,1.08.37,1.62,0,.86-.3,1.53-.91,2s-1.51.71-2.72.71h-11.33v-2.72h11.01c.65,0,1.1-.1,1.36-.3.25-.2.38-.49.38-.88,0-.27-.09-.54-.27-.79s-.43-.49-.74-.7h-11.74v-2.72h14.79Z"/>
    <path class="cls-2" d="M96.97,115.8v-1.26h2.06v1.49l3.83.55v1.93h-3.83v2.47h-2.06v-2.47h-9.07c-.64,0-1.05.12-1.22.35s-.26.51-.26.82c0,.5.11.93.33,1.29h-1.72c-.38-.31-.64-.67-.77-1.07-.13-.41-.2-.8-.2-1.18,0-.5.1-.98.29-1.42.2-.45.57-.81,1.13-1.08.55-.28,1.37-.41,2.43-.41h9.04Z"/>
  </g>
</svg>