<?xml version="1.0" encoding="UTF-8"?>
<svg id="_1" data-name="1" xmlns="http://www.w3.org/2000/svg" viewBox="0 0 115.71 97.09">
  <defs>
    <style>
      .cls-1 {
        fill: #a0c6a2;
      }

      .cls-1, .cls-2, .cls-3, .cls-4, .cls-5, .cls-6, .cls-7 {
        stroke-width: 0px;
      }

      .cls-2 {
        fill: #de7f61;
      }

      .cls-3 {
        fill: #f8f1e7;
      }

      .cls-4 {
        fill: #a16451;
      }

      .cls-5 {
        fill: #fd9e80;
      }

      .cls-6 {
        fill: #116b9e;
      }

      .cls-7 {
        fill: #fff;
      }
    </style>
  </defs>
  <polygon class="cls-1" points="110.69 12.21 55.35 12.21 0 12.21 5.01 6.11 0 0 55.35 0 110.69 0 115.71 6.11 110.69 12.21"/>
  <rect class="cls-1" x="57.25" y="6.11" width="1.21" height="41.36"/>
  <path class="cls-1" d="M57.85,97.09c-13.88,0-25.18-11.29-25.18-25.18s11.29-25.18,25.18-25.18,25.18,11.29,25.18,25.18-11.29,25.18-25.18,25.18ZM57.85,47.95c-13.22,0-23.97,10.75-23.97,23.97s10.75,23.97,23.97,23.97,23.97-10.75,23.97-23.97-10.75-23.97-23.97-23.97Z"/>
  <path class="cls-3" d="M54.9,6.11c0-1.63,1.32-2.95,2.95-2.95s2.95,1.32,2.95,2.95-1.32,2.95-2.95,2.95-2.95-1.32-2.95-2.95Z"/>
  <g>
    <path class="cls-2" d="M53.37,67.33c0,1.02-.79,1.84-1.76,1.84s-2.03-1.21-2.03-2.23.35-1.45,1.32-1.45,2.47.82,2.47,1.84Z"/>
    <path class="cls-2" d="M61.96,67.33c0,1.02.79,1.84,1.76,1.84s2.03-1.21,2.03-2.23-.35-1.45-1.32-1.45-2.47.82-2.47,1.84Z"/>
    <rect class="cls-2" x="55.25" y="72.62" width="4.43" height="7.5"/>
    <path class="cls-6" d="M71.12,84.74c-.69.56-1.42,1.07-2.18,1.54-1.19.74-2.45,1.36-3.78,1.86-2.37.89-4.94,1.38-7.63,1.38s-5.35-.51-7.76-1.43c-1.28-.49-2.51-1.1-3.66-1.82-.81-.51-1.59-1.07-2.33-1.68.99-1.8,2.07-3.52,2.63-3.66,1.73-.43,8.83-2.75,8.83-2.75,0,0,4.4.16,4.43.17,0,0,7.35,1.97,8.92,2.58.73.28,1.78,2.23,2.52,3.81Z"/>
    <path class="cls-5" d="M64.67,64.4c0,5.13-3.11,10.38-6.95,10.38s-6.95-5.25-6.95-10.38,3.11-8.21,6.95-8.21,6.95,3.07,6.95,8.21Z"/>
    <path class="cls-4" d="M59.29,54.64c-3.12-1.11-7.37.58-8.93,3.84-.78,1.63.77,9,.77,9l.27-.54c.77-1.81.88-6.15,1.97-6.93,1.45-1.31,2.92-.59,4.1-.14,2.47.96,3.95.29,3.95.29l1.37-1.86c-.47-2.74-3.49-3.65-3.5-3.65Z"/>
    <path class="cls-4" d="M61.34,59.59s-.1,1.79,1.18,2.57c1.9,1.15.82,5.53,1.74,5.53,0,0,2.03-7.02.55-8.59-1.48-1.58-3.18-.88-3.18-.88l-.29,1.29v.08Z"/>
    <path class="cls-2" d="M59.69,78.36c0,.46-.98.84-2.19.84s-2.25-.55-2.25-1.01,1.05-.66,2.25-.66,2.19.37,2.19.84Z"/>
    <path class="cls-7" d="M56.82,69.27c0-.53.07-.96.2-1.28.13-.32.39-.67.79-1.05.39-.38.64-.65.74-.81.16-.24.24-.51.24-.79,0-.38-.09-.66-.28-.86-.19-.2-.46-.3-.82-.3s-.62.1-.83.29c-.21.19-.32.46-.32.79h-1.46c0-.71.25-1.27.73-1.69.48-.41,1.1-.62,1.89-.62s1.44.2,1.89.61c.45.41.68.98.68,1.72,0,.65-.31,1.3-.91,1.93l-.74.73c-.26.3-.4.74-.41,1.32h-1.37ZM56.72,71.14c0-.24.07-.43.22-.57.15-.15.35-.22.6-.22s.46.07.61.22c.15.15.22.34.22.57s-.07.4-.22.55c-.14.15-.35.22-.61.22s-.47-.07-.61-.22c-.14-.15-.21-.33-.21-.55Z"/>
  </g>
</svg>