<?xml version="1.0" encoding="UTF-8"?>
<svg id="_1" data-name="1" xmlns="http://www.w3.org/2000/svg" viewBox="0 0 115.71 96.98">
  <defs>
    <style>
      .cls-1 {
        fill: #f2c43a;
      }

      .cls-1, .cls-2, .cls-3 {
        stroke-width: 0px;
      }

      .cls-2 {
        fill: #f8f1e7;
      }

      .cls-3 {
        fill: #e8a80a;
        fill-rule: evenodd;
      }
    </style>
  </defs>
  <polygon class="cls-1" points="110.69 12.21 55.35 12.21 0 12.21 5.01 6.11 0 0 55.35 0 110.69 0 115.71 6.11 110.69 12.21"/>
  <rect class="cls-1" x="57.25" y="6.11" width="1.21" height="41.36"/>
  <path class="cls-1" d="M57.85,96.98c-13.86,0-25.13-11.27-25.13-25.13s11.27-25.13,25.13-25.13,25.13,11.27,25.13,25.13-11.27,25.13-25.13,25.13ZM57.85,47.93c-13.19,0-23.92,10.73-23.92,23.92s10.73,23.92,23.92,23.92,23.92-10.73,23.92-23.92-10.73-23.92-23.92-23.92Z"/>
  <path class="cls-2" d="M54.9,6.11c0-1.63,1.32-2.95,2.95-2.95s2.96,1.32,2.96,2.95-1.32,2.95-2.96,2.95-2.95-1.32-2.95-2.95Z"/>
  <g id="Layer_1">
    <g id="_280939616" data-name=" 280939616">
      <path id="_280941824" data-name=" 280941824" class="cls-3" d="M67.46,81.97c-.77,0-1.47-.29-1.87-.77-.05-.06-.07-.13-.07-.21v-1.67c0-.18.15-.33.33-.33s.33.15.33.33v1.54c.28.28.76.45,1.28.45s1-.17,1.28-.45v-1.54c0-.18.15-.33.33-.33s.33.15.33.33v1.67c0,.08-.03.15-.07.21-.41.47-1.11.77-1.87.77h0Z"/>
      <path id="_280941296" data-name=" 280941296" class="cls-3" d="M65.09,77.05s-.08.01-.1.03c-.05.05-.09.23,0,.46.08.22.28.46.57.49.16.01.29.15.3.31.04.87.74,1.55,1.58,1.55s1.54-.68,1.58-1.55c.01-.16.14-.3.3-.31.3-.03.49-.27.57-.49.09-.23.05-.41,0-.46-.04-.04-.15-.04-.28.01-.1.03-.21.02-.3-.04s-.14-.16-.14-.27v-.49c0-.31-.26-.57-.58-.57h-2.32c-.32,0-.58.26-.58.57v.49c0,.11-.05.2-.14.27-.09.06-.2.08-.3.04-.04-.03-.1-.04-.16-.04h0ZM67.45,80.54c-1.11,0-2.03-.82-2.21-1.91-.38-.12-.7-.43-.86-.86-.17-.45-.11-.89.14-1.15.09-.09.26-.22.53-.23v-.11c0-.68.55-1.22,1.23-1.22h2.33c.68,0,1.23.55,1.23,1.23v.11c.27.01.44.14.53.23.25.26.31.7.14,1.15-.16.42-.47.73-.86.86-.17,1.07-1.09,1.9-2.2,1.9h0Z"/>
      <path id="_280941968" data-name=" 280941968" class="cls-3" d="M70.29,77.56h-.04c-.18-.02-.31-.18-.29-.36l.19-1.77h0c.07-.52-.15-.95-.65-1.27-1.05-.68-3.06-.68-4.11,0-.5.32-.72.74-.65,1.26h0s.19,1.78.19,1.78c.02.18-.11.34-.29.36s-.34-.11-.36-.29l-.19-1.77c-.1-.77.23-1.44.94-1.89,1.28-.82,3.54-.82,4.82,0,.71.46,1.05,1.13.94,1.89l-.19,1.77c-.01.15-.14.29-.31.29h0Z"/>
      <path id="_280941752" data-name=" 280941752" class="cls-3" d="M62.66,82.32c-.06,0-.12-.02-.17-.05-.15-.1-.2-.3-.11-.45.45-.72,1.25-1.17,2.1-1.17h1.36c.18,0,.33.15.33.33s-.15.33-.33.33h-1.36c-.62,0-1.21.33-1.54.86-.08.1-.18.15-.28.15h0ZM71.9,85.31h-8.92c-.18,0-.36-.05-.51-.14s-.2-.3-.11-.45.3-.2.45-.11c.05.03.11.05.17.05h8.92c.18,0,.32-.14.32-.32v-1.24c0-.98-.81-1.78-1.8-1.78h-1.36c-.18,0-.33-.15-.33-.33s.15-.33.33-.33h1.36c1.35,0,2.46,1.09,2.46,2.44v1.24c0,.53-.44.97-.98.97h0Z"/>
      <path id="_280940672" data-name=" 280940672" class="cls-3" d="M57.85,81.97c-.77,0-1.47-.29-1.87-.77-.05-.06-.07-.13-.07-.21v-1.67c0-.18.15-.33.33-.33s.33.15.33.33v1.54c.28.28.76.45,1.28.45s1-.17,1.28-.45v-1.54c0-.18.15-.33.33-.33s.33.15.33.33v1.67c0,.08-.03.15-.07.21-.39.47-1.09.77-1.87.77h0Z"/>
      <path id="_280940912" data-name=" 280940912" class="cls-3" d="M55.49,77.05s-.08.01-.1.03c-.05.05-.09.23,0,.46.08.22.28.46.57.49.16.01.29.15.3.31.04.87.74,1.55,1.58,1.55s1.54-.68,1.58-1.55c.01-.16.14-.3.3-.31.3-.03.49-.27.57-.49.09-.23.05-.41,0-.46-.04-.04-.15-.04-.28.01-.1.03-.21.02-.3-.04s-.14-.16-.14-.27v-.49c0-.31-.26-.57-.58-.57h-2.33c-.32,0-.58.26-.58.57v.49c0,.11-.05.2-.14.27-.09.06-.2.08-.3.04-.03-.03-.1-.04-.15-.04h0ZM57.85,80.54c-1.11,0-2.03-.82-2.21-1.91-.38-.12-.7-.43-.86-.86-.17-.45-.11-.89.14-1.15.09-.09.26-.22.53-.23v-.11c0-.68.55-1.22,1.23-1.22h2.33c.68,0,1.23.55,1.23,1.23v.11c.27.01.44.14.53.23.25.26.31.7.14,1.15-.16.42-.47.73-.86.86-.16,1.07-1.1,1.9-2.2,1.9Z"/>
      <path id="_280940648" data-name=" 280940648" class="cls-3" d="M60.7,77.56h-.04c-.18-.02-.31-.18-.29-.36l.19-1.77h0c.07-.52-.15-.95-.65-1.27-1.05-.68-3.06-.68-4.11,0-.5.32-.72.74-.65,1.26h0s.19,1.78.19,1.78c.02.18-.11.34-.29.36s-.34-.11-.36-.29l-.19-1.77c-.1-.77.23-1.44.94-1.89,1.28-.82,3.54-.82,4.82,0,.71.46,1.05,1.13.94,1.89l-.19,1.77c-.01.15-.15.29-.31.29h0Z"/>
      <path id="_280940888" data-name=" 280940888" class="cls-3" d="M62.31,85.31h-8.92c-.54,0-.98-.44-.98-.97v-1.24c0-1.34,1.1-2.44,2.46-2.44h1.36c.18,0,.33.15.33.33s-.15.33-.33.33h-1.36c-.99,0-1.8.8-1.8,1.78v1.24c0,.18.15.32.32.32h8.92c.18,0,.32-.14.32-.32v-1.24c0-.98-.81-1.78-1.8-1.78h-1.36c-.18,0-.33-.15-.33-.33s.15-.33.33-.33h1.36c1.35,0,2.46,1.09,2.46,2.44v1.24c-.01.53-.43.97-.98.97h0Z"/>
      <path id="_280940984" data-name=" 280940984" class="cls-3" d="M48.25,81.97c-.77,0-1.47-.29-1.87-.77-.05-.06-.07-.13-.07-.21v-1.67c0-.18.15-.33.33-.33s.33.15.33.33v1.54c.28.28.76.45,1.28.45s1-.17,1.28-.45v-1.54c0-.18.15-.33.33-.33s.33.15.33.33v1.67c0,.08-.03.15-.07.21-.4.47-1.1.77-1.87.77Z"/>
      <path id="_280941224" data-name=" 280941224" class="cls-3" d="M45.89,77.05s-.08.01-.1.03c-.05.05-.09.23,0,.46.08.22.28.46.57.49.16.01.29.15.3.31.04.87.74,1.55,1.58,1.55s1.54-.68,1.58-1.55c.01-.16.14-.3.3-.31.3-.03.49-.27.57-.49.09-.23.05-.41,0-.46-.04-.04-.15-.04-.28.01-.1.03-.21.02-.3-.04s-.14-.16-.14-.27v-.49c0-.31-.26-.57-.58-.57h-2.33c-.32,0-.58.26-.58.57v.49c0,.11-.05.2-.14.27-.09.06-.2.08-.3.04-.03-.03-.1-.04-.15-.04h0ZM48.25,80.54c-1.11,0-2.03-.82-2.21-1.91-.38-.12-.7-.43-.86-.86-.17-.45-.11-.89.14-1.15.09-.09.26-.22.53-.23v-.1c0-.68.55-1.22,1.23-1.22h2.33c.68,0,1.23.55,1.23,1.23v.11c.27.01.44.14.53.23.25.26.31.7.14,1.15-.16.42-.47.73-.86.86-.16,1.06-1.1,1.89-2.2,1.89Z"/>
      <path id="_280940792" data-name=" 280940792" class="cls-3" d="M51.1,77.56h-.04c-.18-.02-.31-.18-.29-.36l.19-1.77h0c.07-.52-.15-.95-.65-1.27-1.05-.68-3.06-.68-4.11,0-.5.32-.72.74-.65,1.26h0s.19,1.78.19,1.78c.02.18-.11.34-.29.36s-.34-.11-.36-.29l-.19-1.77c-.1-.77.23-1.44.94-1.89,1.28-.82,3.54-.82,4.82,0,.71.46,1.05,1.13.94,1.89l-.19,1.77c-.01.15-.16.29-.31.29h0Z"/>
      <path id="_280940864" data-name=" 280940864" class="cls-3" d="M53.05,82.32c-.11,0-.22-.06-.28-.16-.33-.53-.92-.86-1.54-.86h-1.36c-.18,0-.33-.15-.33-.33s.15-.33.33-.33h1.36c.85,0,1.65.45,2.1,1.17.1.15.05.36-.11.45-.06.05-.1.06-.17.06h0ZM52.72,85.31h-8.92c-.54,0-.98-.44-.98-.97v-1.24c0-.65.26-1.26.72-1.72.47-.46,1.08-.72,1.73-.72h1.36c.18,0,.33.15.33.33s-.15.33-.33.33h-1.36c-.48,0-.93.19-1.27.53s-.53.78-.53,1.26v1.24c0,.18.15.32.32.32h8.92c.06,0,.12-.02.17-.05.15-.09.36-.05.45.11.09.15.05.36-.11.45-.16.08-.32.13-.5.13Z"/>
      <path id="_280941248" data-name=" 280941248" class="cls-3" d="M67.46,67.38c-.77,0-1.47-.29-1.87-.77-.05-.06-.07-.13-.07-.21v-1.67c0-.18.15-.33.33-.33s.33.15.33.33v1.54c.28.28.76.45,1.28.45s1-.17,1.28-.45v-1.54c0-.18.15-.33.33-.33s.33.15.33.33v1.67c0,.08-.03.15-.07.21-.41.47-1.11.77-1.87.77h0Z"/>
      <path id="_280941272" data-name=" 280941272" class="cls-3" d="M65.09,62.45s-.08.01-.1.03c-.05.05-.09.23,0,.46.08.22.28.46.57.49.16.01.29.15.3.31.04.87.74,1.55,1.58,1.55s1.54-.68,1.58-1.55c.01-.16.14-.3.3-.31.3-.03.49-.27.57-.49.09-.23.05-.41,0-.46-.04-.04-.15-.04-.28.01-.1.03-.21.02-.3-.04s-.14-.16-.14-.27v-.49c0-.31-.26-.57-.58-.57h-2.32c-.32,0-.58.26-.58.57v.49c0,.11-.05.2-.14.27-.09.06-.2.08-.3.04-.04-.02-.1-.04-.16-.04h0ZM67.45,65.95c-1.11,0-2.03-.82-2.21-1.91-.38-.12-.7-.43-.86-.86-.17-.45-.11-.89.14-1.15.09-.09.26-.22.53-.23v-.11c0-.68.55-1.22,1.23-1.22h2.33c.68,0,1.23.55,1.23,1.23v.11c.27.01.44.14.53.23.25.26.31.7.14,1.15-.16.42-.47.73-.86.86-.17,1.08-1.09,1.9-2.2,1.9h0Z"/>
      <path id="_280940384" data-name=" 280940384" class="cls-3" d="M70.29,62.97h-.04c-.18-.02-.31-.18-.29-.36l.19-1.77h0c.07-.52-.15-.95-.65-1.27-1.05-.68-3.06-.68-4.11,0-.5.32-.72.74-.65,1.26h0s.19,1.78.19,1.78c.02.18-.11.34-.29.36s-.34-.11-.36-.29l-.19-1.77c-.1-.77.23-1.44.94-1.89,1.28-.82,3.54-.82,4.82,0,.71.46,1.05,1.13.94,1.89l-.19,1.77c-.01.16-.14.29-.31.29h0Z"/>
      <path id="_280940000" data-name=" 280940000" class="cls-3" d="M62.66,67.73c-.06,0-.12-.02-.17-.05-.15-.1-.2-.3-.11-.45.45-.72,1.25-1.17,2.1-1.17h1.36c.18,0,.33.15.33.33s-.15.33-.33.33h-1.36c-.62,0-1.21.33-1.54.86-.08.1-.18.15-.28.15h0ZM71.9,70.73h-8.92c-.18,0-.36-.05-.51-.14s-.2-.3-.11-.45.3-.2.45-.11c.05.03.11.05.17.05h8.92c.18,0,.32-.14.32-.32v-1.24c0-.98-.81-1.78-1.8-1.78h-1.36c-.18,0-.33-.15-.33-.33s.15-.33.33-.33h1.36c1.35,0,2.46,1.09,2.46,2.44v1.23c0,.54-.44.98-.98.98h0Z"/>
      <path id="_280940336" data-name=" 280940336" class="cls-3" d="M57.85,67.38c-.77,0-1.47-.29-1.87-.77-.05-.06-.07-.13-.07-.21v-1.67c0-.18.15-.33.33-.33s.33.15.33.33v1.54c.28.28.76.45,1.28.45s1-.17,1.28-.45v-1.54c0-.18.15-.33.33-.33s.33.15.33.33v1.67c0,.08-.03.15-.07.21-.39.47-1.09.77-1.87.77h0Z"/>
      <path id="_280940312" data-name=" 280940312" class="cls-3" d="M55.49,62.45s-.08.01-.1.03c-.05.05-.09.23,0,.46.08.22.28.46.57.49.16.01.29.15.3.31.04.87.74,1.55,1.58,1.55s1.54-.68,1.58-1.55c.01-.16.14-.3.3-.31.3-.03.49-.27.57-.49.09-.23.05-.41,0-.46-.04-.04-.15-.04-.28.01-.1.03-.21.02-.3-.04s-.14-.16-.14-.27v-.49c0-.31-.26-.57-.58-.57h-2.33c-.32,0-.58.26-.58.57v.49c0,.11-.05.2-.14.27-.09.06-.2.08-.3.04-.03-.02-.1-.04-.15-.04h0ZM57.85,65.95c-1.11,0-2.03-.82-2.21-1.91-.38-.12-.7-.43-.86-.86-.17-.45-.11-.89.14-1.15.09-.09.26-.22.53-.23v-.11c0-.68.55-1.22,1.23-1.22h2.33c.68,0,1.23.55,1.23,1.23v.11c.27.01.44.14.53.23.25.26.31.7.14,1.15-.16.42-.47.73-.86.86-.16,1.08-1.1,1.9-2.2,1.9h0Z"/>
      <path id="_280940072" data-name=" 280940072" class="cls-3" d="M60.7,62.97h-.04c-.18-.02-.31-.18-.29-.36l.19-1.77h0c.07-.52-.15-.95-.65-1.27-1.05-.68-3.06-.68-4.11,0-.5.32-.72.74-.65,1.26h0s.19,1.78.19,1.78c.02.18-.11.34-.29.36s-.34-.11-.36-.29l-.19-1.77c-.1-.77.23-1.44.94-1.89,1.28-.82,3.54-.82,4.82,0,.71.46,1.05,1.13.94,1.89l-.19,1.77c-.01.16-.15.29-.31.29h0Z"/>
      <path id="_280940432" data-name=" 280940432" class="cls-3" d="M62.31,70.73h-8.92c-.54,0-.98-.44-.98-.97v-1.24c0-1.34,1.1-2.44,2.46-2.44h1.36c.18,0,.33.15.33.33s-.15.33-.33.33h-1.36c-.99,0-1.8.8-1.8,1.78v1.24c0,.18.15.32.32.32h8.92c.18,0,.32-.14.32-.32v-1.24c0-.98-.81-1.78-1.8-1.78h-1.36c-.18,0-.33-.15-.33-.33s.15-.33.33-.33h1.36c1.35,0,2.46,1.09,2.46,2.44v1.24c-.01.53-.43.97-.98.97h0Z"/>
      <path id="_280939856" data-name=" 280939856" class="cls-3" d="M48.25,67.38c-.77,0-1.47-.29-1.87-.77-.05-.06-.07-.13-.07-.21v-1.67c0-.18.15-.33.33-.33s.33.15.33.33v1.54c.28.28.76.45,1.28.45s1-.17,1.28-.45v-1.54c0-.18.15-.33.33-.33s.33.15.33.33v1.67c0,.08-.03.15-.07.21-.4.47-1.1.77-1.87.77Z"/>
      <path id="_280940168" data-name=" 280940168" class="cls-3" d="M45.89,62.45s-.08.01-.1.03c-.05.05-.09.23,0,.46.08.22.28.46.57.49.16.01.29.15.3.31.04.87.74,1.55,1.58,1.55s1.54-.68,1.58-1.55c.01-.16.14-.3.3-.31.3-.03.49-.27.57-.49.09-.23.05-.41,0-.46-.04-.04-.15-.04-.28.01-.1.03-.21.02-.3-.04s-.14-.16-.14-.27v-.49c0-.31-.26-.57-.58-.57h-2.33c-.32,0-.58.26-.58.57v.49c0,.11-.05.2-.14.27-.09.06-.2.08-.3.04-.03-.02-.1-.04-.15-.04h0ZM48.25,65.95c-1.11,0-2.03-.82-2.21-1.91-.38-.12-.7-.43-.86-.86-.17-.45-.11-.89.14-1.15.09-.09.26-.22.53-.23v-.11c0-.68.55-1.22,1.23-1.22h2.33c.68,0,1.23.55,1.23,1.23v.11c.27.01.44.14.53.23.25.26.31.7.14,1.15-.16.42-.47.73-.86.86-.16,1.08-1.1,1.9-2.2,1.9h0Z"/>
      <path id="_280939832" data-name=" 280939832" class="cls-3" d="M51.1,62.97h-.04c-.18-.02-.31-.18-.29-.36l.19-1.77h0c.07-.52-.15-.95-.65-1.27-1.05-.68-3.06-.68-4.11,0-.5.32-.72.74-.65,1.26h0s.19,1.78.19,1.78c.02.18-.11.34-.29.36s-.34-.11-.36-.29l-.19-1.77c-.1-.77.23-1.44.94-1.89,1.28-.82,3.54-.82,4.82,0,.71.46,1.05,1.13.94,1.89l-.19,1.77c-.01.16-.16.29-.31.29h0Z"/>
      <path id="_280940192" data-name=" 280940192" class="cls-3" d="M53.05,67.73c-.11,0-.22-.06-.28-.16-.33-.53-.92-.86-1.54-.86h-1.36c-.18,0-.33-.15-.33-.33s.15-.33.33-.33h1.36c.85,0,1.65.45,2.1,1.17.1.15.05.36-.11.45-.06.05-.1.06-.17.06h0ZM52.72,70.73h-8.92c-.54,0-.98-.44-.98-.97v-1.24c0-1.34,1.1-2.44,2.46-2.44h1.36c.18,0,.33.15.33.33s-.15.33-.33.33h-1.36c-.99,0-1.8.8-1.8,1.78v1.24c0,.18.15.32.32.32h8.92c.06,0,.12-.02.17-.05.15-.09.36-.05.45.11.09.15.05.36-.11.45-.17.08-.33.14-.51.14h0Z"/>
    </g>
  </g>
</svg>