<?xml version="1.0" encoding="UTF-8"?>
<svg id="_1" data-name="1" xmlns="http://www.w3.org/2000/svg" viewBox="0 0 115.7 102.24">
  <defs>
    <style>
      .cls-1 {
        fill: #eb6b5c;
      }

      .cls-1, .cls-2, .cls-3, .cls-4, .cls-5, .cls-6, .cls-7, .cls-8 {
        stroke-width: 0px;
      }

      .cls-9 {
        fill: none;
        stroke: #204b9f;
        stroke-miterlimit: 10;
        stroke-width: 4.77px;
      }

      .cls-2 {
        fill: #ef4e4f;
      }

      .cls-3 {
        fill: #c3dae5;
      }

      .cls-4 {
        fill: #f8f1e7;
      }

      .cls-5 {
        fill: #15357a;
      }

      .cls-6 {
        fill: #de3b47;
      }

      .cls-7 {
        fill: #fff;
      }

      .cls-8 {
        fill: #204b9f;
      }
    </style>
  </defs>
  <polygon class="cls-1" points="110.69 102.24 55.34 102.24 0 102.24 5.01 96.14 0 90.03 55.34 90.03 110.69 90.03 115.7 96.14 110.69 102.24"/>
  <rect class="cls-1" x="57.25" y="49.52" width="1.21" height="41.36"/>
  <path class="cls-1" d="M57.85,0c13.86,0,25.13,11.27,25.13,25.13,0,13.86-11.27,25.13-25.13,25.13s-25.13-11.27-25.13-25.13C32.72,11.27,44,0,57.85,0ZM57.85,49.05c13.19,0,23.92-10.73,23.92-23.92S71.04,1.21,57.85,1.21s-23.92,10.73-23.92,23.92c0,13.19,10.73,23.92,23.92,23.92Z"/>
  <path class="cls-4" d="M54.9,96.14c0-1.63,1.32-2.95,2.95-2.95s2.95,1.32,2.95,2.95-1.32,2.95-2.95,2.95-2.95-1.32-2.95-2.95Z"/>
  <g>
    <g>
      <circle class="cls-2" cx="57.9" cy="25.72" r="12"/>
      <circle class="cls-6" cx="57.9" cy="25.72" r="10.26"/>
      <circle class="cls-7" cx="57.9" cy="25.72" r="8.76"/>
      <circle class="cls-3" cx="57.9" cy="25.72" r="6.49"/>
      <circle class="cls-2" cx="57.9" cy="25.72" r="5.12" transform="translate(23.17 78.71) rotate(-80.71)"/>
      <circle class="cls-6" cx="57.9" cy="25.72" r="3.55" transform="translate(23.19 78.73) rotate(-80.73)"/>
      <circle class="cls-7" cx="57.9" cy="25.72" r="2.32"/>
    </g>
    <g>
      <line class="cls-9" x1="59.7" y1="24.43" x2="68.58" y2="15.54"/>
      <polygon class="cls-8" points="67.77 16.35 71.05 13.07 74.36 13.29 70.71 16.94 67.77 16.35"/>
      <polygon class="cls-5" points="67.77 16.35 71.05 13.07 70.83 9.76 67.18 13.42 67.77 16.35"/>
      <polygon class="cls-8" points="57.9 26.22 61.54 24.95 59.17 22.59 57.9 26.22"/>
      <polygon class="cls-5" points="57.9 26.22 61.54 24.95 60.35 23.77 57.9 26.22"/>
    </g>
  </g>
</svg>