<?xml version="1.0" encoding="UTF-8"?>
<svg id="OBJECTS" xmlns="http://www.w3.org/2000/svg" viewBox="0 0 117 147.24">
  <defs>
    <style>
      .cls-1 {
        fill: #b14625;
      }

      .cls-1, .cls-2 {
        stroke-width: 0px;
      }

      .cls-2 {
        fill: #fff;
      }
    </style>
  </defs>
  <path class="cls-1" d="M0,0h97c11.04,0,20,8.96,20,20v107.24c0,11.04-8.96,20-20,20H0V0h0Z"/>
  <g>
    <path class="cls-2" d="M102.59,26.85v3.14l-18.35,3.43v-2.79l3.29-.5v-3.39l-3.29-.48v-2.8l18.35,3.42ZM89.62,29.79l9.18-1.31v-.12l-9.18-1.32v2.75Z"/>
    <path class="cls-2" d="M103.78,34.95v2.72h-19.54v-2.72h19.54Z"/>
    <path class="cls-2" d="M99.03,40.44v2.72h-14.79v-2.72h14.79ZM101.09,41.78c0-.5.16-.9.47-1.21.32-.3.76-.46,1.33-.46.64,0,1.09.15,1.35.46.26.3.4.71.4,1.22s-.14.94-.43,1.24c-.29.3-.73.45-1.32.45-.56,0-1-.15-1.32-.45s-.48-.72-.48-1.25Z"/>
    <path class="cls-2" d="M90.3,45.56h2.79c1.13,0,2.07.09,2.81.28.75.19,1.34.44,1.78.75.44.31.77.65.99,1.02.21.37.36.74.42,1.11.07.37.1.7.1,1,0,1-.26,1.82-.79,2.44s-1.35.93-2.46.93c-.34,0-.63-.02-.88-.05s-.49-.08-.72-.13v-2.06h.46c.75,0,1.33-.1,1.75-.31.42-.2.63-.51.63-.91,0-.44-.24-.77-.73-1-.48-.23-1.36-.34-2.64-.34h-4.2c-1.29,0-2.2.1-2.73.31s-.79.57-.79,1.1c0,.27.15.53.43.78.29.25.83.37,1.61.37h.64v2.2h-.68c-1.4,0-2.43-.3-3.07-.9-.64-.6-.96-1.52-.96-2.75s.49-2.2,1.46-2.85,2.56-.98,4.76-.98Z"/>
    <path class="cls-2" d="M99.03,54.86v2.72h-14.79v-2.72h14.79ZM101.09,56.21c0-.5.16-.9.47-1.21.32-.3.76-.46,1.33-.46.64,0,1.09.15,1.35.46.26.3.4.71.4,1.22s-.14.94-.43,1.24c-.29.3-.73.45-1.32.45-.56,0-1-.15-1.32-.45s-.48-.72-.48-1.25Z"/>
    <path class="cls-2" d="M92.46,62.96c.14.27.28.57.42.88.14.31.26.6.35.87h1.79c.37,0,.72-.02,1.04-.05s.58-.13.79-.29c.2-.16.31-.44.31-.82s-.16-.73-.47-1.04c-.32-.31-.9-.46-1.75-.46h-.59v-2.07c.56-.13,1.05-.19,1.46-.19,1.1,0,1.94.36,2.52,1.08.58.72.87,1.65.87,2.77,0,.98-.14,1.75-.41,2.3-.28.55-.69.94-1.25,1.16-.55.22-1.26.33-2.11.33h-11.18v-2.09l1.27-.19c-.42-.29-.76-.67-1.03-1.14s-.41-1.02-.41-1.64.17-1.17.49-1.59c.33-.42.76-.73,1.3-.93.54-.2,1.13-.31,1.77-.31,1.22,0,2.19.29,2.91.87.72.58,1.36,1.43,1.92,2.56ZM86.14,63.56c0,.23.06.44.18.63.12.19.26.37.44.52h4.66c-.06-.14-.12-.28-.2-.44-.08-.16-.18-.34-.31-.55-.24-.38-.59-.73-1.06-1.06-.47-.33-1.06-.49-1.79-.49-.57,0-1.03.11-1.38.33-.36.22-.53.58-.53,1.06Z"/>
    <path class="cls-2" d="M84.24,77.94v-2.89h18.35v2.89c0,.52-.03,1.06-.08,1.61-.05.55-.18,1.08-.39,1.6-.21.51-.54.97-1,1.38-.46.41-1.1.73-1.91.97-.81.24-1.86.36-3.13.36h-5.33c-1.27,0-2.32-.12-3.14-.36-.82-.24-1.46-.56-1.92-.97-.46-.41-.79-.87-1-1.38-.21-.51-.33-1.04-.38-1.6-.05-.55-.08-1.09-.08-1.61ZM100.47,77.83h-14.12v.6c0,.67.12,1.19.37,1.55.24.36.68.61,1.31.75s1.52.21,2.66.21h5.44c1.15,0,2.04-.07,2.67-.21.63-.14,1.06-.39,1.31-.75.24-.36.37-.88.37-1.55v-.6Z"/>
    <path class="cls-2" d="M92.46,88.88c.14.27.28.57.42.88.14.31.26.6.35.87h1.79c.37,0,.72-.02,1.04-.05s.58-.13.79-.29c.2-.16.31-.44.31-.82s-.16-.73-.47-1.04c-.32-.31-.9-.46-1.75-.46h-.59v-2.07c.56-.13,1.05-.19,1.46-.19,1.1,0,1.94.36,2.52,1.08.58.72.87,1.65.87,2.77,0,.98-.14,1.75-.41,2.3-.28.55-.69.94-1.25,1.16-.55.22-1.26.33-2.11.33h-11.18v-2.09l1.27-.19c-.42-.29-.76-.67-1.03-1.14s-.41-1.02-.41-1.64.17-1.17.49-1.59c.33-.42.76-.73,1.3-.93.54-.2,1.13-.31,1.77-.31,1.22,0,2.19.29,2.91.87.72.58,1.36,1.43,1.92,2.56ZM86.14,89.49c0,.23.06.44.18.63.12.19.26.37.44.52h4.66c-.06-.14-.12-.28-.2-.44-.08-.16-.18-.34-.31-.55-.24-.38-.59-.73-1.06-1.06-.47-.33-1.06-.49-1.79-.49-.57,0-1.03.11-1.38.33-.36.22-.53.58-.53,1.06Z"/>
    <path class="cls-2" d="M99.03,96.09v2.07l-1.58.27h-.01c.68.42,1.14.9,1.39,1.44.25.54.37,1.08.37,1.62,0,.86-.3,1.53-.91,2s-1.51.71-2.72.71h-11.33v-2.72h11.01c.65,0,1.1-.1,1.36-.3.25-.2.38-.49.38-.88,0-.27-.09-.54-.27-.79s-.43-.49-.74-.7h-11.74v-2.72h14.79Z"/>
    <path class="cls-2" d="M90.3,106.59h2.79c1.13,0,2.07.1,2.81.29s1.34.45,1.78.77c.44.32.77.67.99,1.05.21.38.36.76.42,1.14.07.38.1.73.1,1.04,0,.65-.14,1.25-.41,1.8-.28.55-.75.99-1.42,1.33-.67.33-1.6.5-2.79.5-.59,0-1.2-.03-1.82-.1-.62-.06-1.17-.15-1.64-.26v-4.84h-1.5c-1.29,0-2.2.11-2.73.33-.53.22-.79.64-.79,1.25,0,.34.15.64.43.91.29.27.83.41,1.61.41h.64v2.23h-.68c-1.4,0-2.43-.33-3.07-1-.64-.67-.96-1.64-.96-2.91s.49-2.25,1.46-2.93c.97-.68,2.56-1.02,4.76-1.02ZM92.95,111.98c.16.01.4.02.71.03.32,0,.58.01.77.01.98,0,1.68-.1,2.11-.31.42-.21.64-.54.64-.99,0-.48-.24-.83-.73-1.06-.48-.23-1.36-.34-2.64-.34h-.87v2.66Z"/>
    <path class="cls-2" d="M87.34,116.18c.32,0,.63.03.93.09.3.06.54.12.72.18v1.91c-1.07,0-1.82.13-2.25.4-.43.27-.64.65-.64,1.15,0,.36.11.64.33.84.22.2.48.3.78.3s.62-.08.91-.25c.29-.17.62-.4.97-.69l2.34-1.9c.65-.52,1.33-.98,2.05-1.38.71-.4,1.5-.61,2.36-.61.77,0,1.4.17,1.9.5.5.34.87.78,1.11,1.33.24.55.37,1.15.37,1.79,0,1.07-.26,1.92-.77,2.56-.51.64-1.28.96-2.3.96-.34,0-.67-.03-.99-.09-.33-.06-.6-.12-.83-.18v-1.88c.97-.01,1.7-.13,2.17-.34s.71-.57.71-1.06c0-.42-.13-.7-.39-.86-.26-.16-.54-.24-.86-.24-.34,0-.65.09-.93.26-.28.17-.59.39-.93.67l-2.6,2.15c-.26.21-.59.45-.98.72-.4.27-.85.51-1.34.71-.5.2-1.04.31-1.62.31-1.04,0-1.87-.33-2.51-.98-.63-.65-.95-1.58-.95-2.79,0-.66.1-1.26.31-1.8.21-.54.54-.98,1.02-1.29.48-.32,1.12-.48,1.93-.48Z"/>
  </g>
</svg>