<?xml version="1.0" encoding="UTF-8"?>
<svg id="_1" data-name="1" xmlns="http://www.w3.org/2000/svg" viewBox="0 0 115.7 101.45">
  <defs>
    <style>
      .cls-1 {
        fill: #ffd8a8;
      }

      .cls-1, .cls-2, .cls-3, .cls-4, .cls-5, .cls-6 {
        stroke-width: 0px;
      }

      .cls-2 {
        fill: #ff7979;
      }

      .cls-3 {
        fill: #f8f1e7;
      }

      .cls-4 {
        fill: #000;
      }

      .cls-5 {
        fill: #d7deed;
      }

      .cls-6 {
        fill: #8dc9cc;
      }
    </style>
  </defs>
  <polygon class="cls-6" points="110.69 101.45 55.34 101.45 0 101.45 5.01 95.35 0 89.24 55.34 89.24 110.69 89.24 115.7 95.35 110.69 101.45"/>
  <rect class="cls-6" x="57.25" y="49.52" width="1.21" height="41.36"/>
  <path class="cls-6" d="M57.85,0c13.86,0,25.13,11.27,25.13,25.13,0,13.86-11.27,25.13-25.13,25.13s-25.13-11.27-25.13-25.13c0-13.86,11.27-25.13,25.13-25.13ZM57.85,49.05c13.19,0,23.92-10.73,23.92-23.92,0-13.19-10.73-23.92-23.92-23.92s-23.92,10.73-23.92,23.92c0,13.19,10.73,23.92,23.92,23.92Z"/>
  <path class="cls-3" d="M54.9,95.35c0-1.63,1.32-2.95,2.95-2.95s2.96,1.32,2.96,2.95-1.32,2.95-2.96,2.95-2.95-1.32-2.95-2.95Z"/>
  <g id="_513_Business_Career_Cv_Job_Resume" data-name="513, Business, Career, Cv, Job, Resume">
    <g>
      <g>
        <path class="cls-2" d="M66.71,11.61c2.68,0,4.87,2.16,4.87,4.81s-2.19,4.81-4.87,4.81-4.87-2.16-4.87-4.81,2.14-4.81,4.87-4.81Z"/>
        <path class="cls-1" d="M50.9,14.6c.83,0,1.51.67,1.51,1.49s-.68,1.49-1.51,1.49-1.51-.67-1.51-1.49.63-1.49,1.51-1.49Z"/>
        <path class="cls-5" d="M50.9,17.63c.83,0,1.51-.67,1.51-1.49s-.68-1.49-1.51-1.49-1.51.67-1.51,1.49.63,1.49,1.51,1.49ZM61.85,16.42v18.28c0,.87-.73,1.59-1.61,1.59h-12.65c-.88,0-1.61-.72-1.61-1.59V13.78c0-.87.73-1.59,1.61-1.59h12.65c.88,0,1.61.72,1.61,1.59v2.65Z"/>
      </g>
      <g>
        <path class="cls-4" d="M64.86,18.83c-.15,0-.29-.05-.44-.19-.24-.24-.24-.63,0-.87l3.65-3.7c.24-.24.63-.24.88,0,.24.24.24.63,0,.87l-3.65,3.75c-.15.1-.29.14-.44.14Z"/>
        <path class="cls-4" d="M68.56,18.83c-.15,0-.29-.05-.44-.19l-3.75-3.61c-.24-.24-.24-.63,0-.87.24-.24.63-.24.88,0l3.75,3.61c.24.24.24.63,0,.87-.15.1-.29.19-.44.19Z"/>
        <path class="cls-4" d="M50.9,18.2c-1.17,0-2.14-.96-2.14-2.12s.97-2.12,2.14-2.12,2.14.96,2.14,2.12-.97,2.12-2.14,2.12ZM50.9,15.22c-.49,0-.92.38-.92.91s.39.91.92.91.92-.38.92-.91-.44-.91-.92-.91Z"/>
        <path class="cls-4" d="M60.24,36.86h-12.65c-1.22,0-2.19-.96-2.19-2.16V13.78c0-1.2.97-2.16,2.19-2.16h12.65c1.22,0,2.19.96,2.19,2.16v20.92c0,1.15-.97,2.16-2.19,2.16ZM47.59,12.82c-.54,0-.97.43-.97.96v20.92c0,.53.44.96.97.96h12.65c.54,0,.97-.43.97-.96V13.78c0-.53-.44-.96-.97-.96h-12.65Z"/>
        <path class="cls-4" d="M63.89,39.27h-12.65c-1.22,0-2.19-.96-2.19-2.16,0-.34.29-.63.63-.63s.63.29.63.63c0,.53.44.96.97.96h12.65c.54,0,.97-.43.97-.96v-15.87c0-.34.29-.63.63-.63s.63.29.63.63v15.87c-.1,1.15-1.07,2.16-2.29,2.16Z"/>
        <path class="cls-4" d="M67.54,39.27c-.34,0-.63-.29-.63-.63s.29-.63.63-.63c.54,0,.97-.43.97-.96v-16.45c0-.34.29-.63.63-.63s.63.29.63.63v16.5c-.05,1.15-1.02,2.16-2.24,2.16Z"/>
        <path class="cls-4" d="M53.33,21.23c-.34,0-.63-.29-.63-.63v-1.15c0-.53-.44-.91-.92-.91h-1.8c-.53,0-.92.43-.92.91v1.15c0,.34-.29.63-.63.63s-.63-.29-.63-.63v-1.15c0-1.15.97-2.12,2.14-2.12h1.8c1.17,0,2.14.96,2.14,2.12v1.15c.05.34-.24.63-.54.63Z"/>
        <path class="cls-4" d="M58.2,17h-2.43c-.34,0-.63-.29-.63-.63s.29-.63.63-.63h2.43c.34,0,.63.29.63.63-.05.34-.34.63-.63.63Z"/>
        <path class="cls-4" d="M59.42,19.4h-3.65c-.34,0-.63-.29-.63-.63s.29-.63.63-.63h3.65c.34,0,.63.29.63.63-.05.34-.34.63-.63.63Z"/>
        <path class="cls-4" d="M59.42,24.84h-10.95c-.34,0-.63-.29-.63-.63s.29-.63.63-.63h10.95c.34,0,.63.29.63.63-.05.34-.34.63-.63.63Z"/>
        <path class="cls-4" d="M53.33,27.82h-4.87c-.34,0-.63-.29-.63-.63s.29-.63.63-.63h4.87c.34,0,.63.29.63.63s-.34.63-.63.63Z"/>
        <path class="cls-4" d="M59.42,27.82h-3.65c-.34,0-.63-.29-.63-.63s.29-.63.63-.63h3.65c.34,0,.63.29.63.63s-.34.63-.63.63Z"/>
        <path class="cls-4" d="M52.7,30.85h-4.28c-.34,0-.63-.29-.63-.63s.29-.63.63-.63h4.28c.34,0,.63.29.63.63s-.29.63-.63.63Z"/>
        <path class="cls-4" d="M55.77,30.85h-1.22c-.34,0-.63-.29-.63-.63s.29-.63.63-.63h1.22c.34,0,.63.29.63.63s-.34.63-.63.63Z"/>
        <path class="cls-4" d="M59.42,30.85h-1.85c-.34,0-.63-.29-.63-.63s.29-.63.63-.63h1.85c.34,0,.63.29.63.63s-.34.63-.63.63Z"/>
        <path class="cls-4" d="M66.71,21.81c-3.02,0-5.5-2.4-5.5-5.43s2.43-5.39,5.5-5.39,5.5,2.4,5.5,5.43-2.48,5.39-5.5,5.39ZM66.71,12.19c-2.34,0-4.28,1.88-4.28,4.23s1.9,4.23,4.28,4.23,4.28-1.88,4.28-4.23-1.95-4.23-4.28-4.23Z"/>
      </g>
    </g>
  </g>
</svg>