<?xml version="1.0" encoding="UTF-8"?>
<svg id="_1" data-name="1" xmlns="http://www.w3.org/2000/svg" viewBox="0 0 115.71 96.98">
  <defs>
    <style>
      .cls-1 {
        fill: none;
      }

      .cls-1, .cls-2, .cls-3, .cls-4, .cls-5, .cls-6 {
        stroke-width: 0px;
      }

      .cls-2 {
        fill: #5cbfab;
      }

      .cls-3 {
        fill: #f8f1e7;
      }

      .cls-4 {
        fill: #5a6e7f;
      }

      .cls-5 {
        fill: #97d5c9;
      }

      .cls-6 {
        fill: #6f7b91;
      }
    </style>
  </defs>
  <polygon class="cls-6" points="110.69 12.21 55.35 12.21 0 12.21 5.01 6.11 0 0 55.35 0 110.69 0 115.71 6.11 110.69 12.21"/>
  <rect class="cls-6" x="57.25" y="6.11" width="1.21" height="41.36"/>
  <path class="cls-6" d="M57.85,96.98c-13.86,0-25.13-11.27-25.13-25.13s11.27-25.13,25.13-25.13,25.13,11.27,25.13,25.13-11.27,25.13-25.13,25.13ZM57.85,47.93c-13.19,0-23.92,10.73-23.92,23.92s10.73,23.92,23.92,23.92,23.92-10.73,23.92-23.92-10.73-23.92-23.92-23.92Z"/>
  <circle class="cls-3" cx="57.85" cy="6.11" r="2.95"/>
  <g>
    <path class="cls-1" d="M55.62,62.55c-4.11,0-7.45,3.34-7.45,7.45s3.34,7.45,7.45,7.45,7.45-3.34,7.45-7.45-3.34-7.45-7.45-7.45ZM52.09,72.76c-.11,0-.22-.04-.31-.11-.22-.17-.25-.49-.08-.71l5.21-6.55c.17-.22.49-.25.71-.08.22.17.26.49.08.71l-5.2,6.55c-.1.13-.25.19-.39.19ZM59.87,68.2l-5.21,6.55c-.1.12-.25.19-.39.19-.11,0-.22-.04-.31-.11-.22-.17-.25-.49-.08-.71l5.21-6.55c.17-.22.49-.25.71-.08.22.17.25.49.08.71Z"/>
    <path class="cls-4" d="M70.71,82.67l-.11-.11-2.72,2.72.07.07.72.72c.46.46,1.45.23,2.2-.52.75-.75.98-1.74.52-2.2l-.67-.67h0Z"/>
    <polygon class="cls-5" points="69.94 81.91 67.22 84.62 67.88 85.28 70.6 82.56 70.52 82.48 70.52 82.48 69.94 81.91"/>
    <path class="cls-4" d="M55.47,59.41c-5.85,0-10.6,4.75-10.6,10.6s4.74,10.6,10.6,10.6c2.17,0,4.18-.65,5.86-1.77l5.88,5.79,2.72-2.72-5.84-5.75c1.24-1.73,1.98-3.85,1.98-6.15,0-5.85-4.74-10.6-10.6-10.6ZM55.62,77.46c-4.11,0-7.45-3.34-7.45-7.45s3.34-7.45,7.45-7.45,7.45,3.34,7.45,7.45-3.34,7.45-7.45,7.45Z"/>
    <path class="cls-2" d="M56.9,65.39l-5.21,6.55c-.17.22-.14.53.08.71.09.07.2.11.31.11.15,0,.3-.06.39-.19l5.2-6.55c.17-.22.14-.53-.08-.71-.22-.17-.53-.14-.71.08Z"/>
    <path class="cls-2" d="M59.08,67.58l-5.21,6.55c-.17.22-.14.53.08.71.09.07.2.11.31.11.15,0,.29-.07.39-.19l5.21-6.55c.17-.22.14-.53-.08-.71-.22-.17-.53-.14-.71.08Z"/>
  </g>
</svg>