<?xml version="1.0" encoding="UTF-8"?>
<svg id="Layer_1" data-name="Layer 1" xmlns="http://www.w3.org/2000/svg" viewBox="0 0 280 347.19">
  <defs>
    <style>
      .cls-1 {
        fill: #f6921e;
      }

      .cls-1, .cls-2, .cls-3, .cls-4 {
        stroke-width: 0px;
      }

      .cls-2 {
        fill: #808184;
      }

      .cls-3 {
        fill: #fffffa;
      }

      .cls-4 {
        fill: #325e81;
      }
    </style>
  </defs>
  <polygon class="cls-2" points="0 239.28 12.32 231.46 12.32 239.28 0 239.28"/>
  <g>
    <path class="cls-4" d="M107.12,0H12.32v347.19h267.68V0H107.12Z"/>
    <polygon class="cls-1" points="203.26 239.28 0 239.28 0 276.61 203.26 276.61 186.88 257.95 203.26 239.28"/>
    <g>
      <path class="cls-3" d="M19.72,265.52c0-.53.03-1.03.09-1.48.06-.46.16-.94.28-1.45h2.92v1.1c0,1.34.2,2.36.61,3.07.41.71,1.03,1.07,1.88,1.07,1.45,0,2.18-.71,2.18-2.14,0-.55-.12-1.13-.36-1.74s-.7-1.36-1.39-2.24l-3.93-4.93c-.69-.89-1.22-1.78-1.61-2.67s-.57-1.88-.57-2.98c0-1.65.51-3,1.53-4.05,1.02-1.05,2.44-1.58,4.25-1.58,1.46,0,2.61.26,3.45.79.83.53,1.42,1.19,1.77,2,.34.8.52,1.63.52,2.47,0,.53-.04,1.02-.12,1.48-.08.45-.18.95-.28,1.49h-2.91v-1.19c0-1.31-.21-2.32-.63-3.02-.42-.71-1.01-1.06-1.79-1.06-.71,0-1.24.2-1.61.59s-.55.92-.55,1.58c0,.56.12,1.07.35,1.53s.53.93.89,1.42l4.38,5.55c.8,1.04,1.42,2.02,1.84,2.96.42.94.63,1.97.63,3.12,0,1.72-.55,3.07-1.64,4.08s-2.55,1.5-4.38,1.5c-1.49,0-2.66-.25-3.51-.76-.85-.51-1.44-1.17-1.79-1.97-.34-.8-.52-1.65-.52-2.53Z"/>
      <path class="cls-3" d="M40.34,270.77c-.43,0-.9-.04-1.43-.12-.53-.08-1.05-.26-1.58-.54-.52-.28-1-.7-1.44-1.26-.44-.57-.79-1.33-1.05-2.29-.27-.96-.4-2.17-.4-3.63v-17.2h3.76v18.08c0,1.54.17,2.59.52,3.16.34.57.88.85,1.62.85s1.29-.28,1.64-.85c.34-.57.52-1.62.52-3.16v-18.08h3.75v17.2c0,1.46-.13,2.67-.4,3.63-.27.96-.62,1.72-1.05,2.29-.44.57-.92.99-1.44,1.26-.52.28-1.05.46-1.57.54-.52.08-1,.12-1.44.12Z"/>
      <path class="cls-3" d="M49.22,265.52c0-.53.03-1.03.09-1.48.06-.46.16-.94.28-1.45h2.92v1.1c0,1.34.2,2.36.61,3.07s1.03,1.07,1.87,1.07c1.45,0,2.18-.71,2.18-2.14,0-.55-.12-1.13-.36-1.74s-.7-1.36-1.39-2.24l-3.93-4.93c-.69-.89-1.22-1.78-1.61-2.67-.38-.89-.57-1.88-.57-2.98,0-1.65.51-3,1.53-4.05,1.02-1.05,2.44-1.58,4.25-1.58,1.46,0,2.61.26,3.45.79s1.42,1.19,1.77,2c.34.8.52,1.63.52,2.47,0,.53-.04,1.02-.12,1.48-.08.45-.18.95-.28,1.49h-2.91v-1.19c0-1.31-.21-2.32-.63-3.02s-1.01-1.06-1.79-1.06c-.71,0-1.24.2-1.61.59-.36.39-.55.92-.55,1.58,0,.56.12,1.07.35,1.53.23.46.53.93.89,1.42l4.38,5.55c.8,1.04,1.42,2.02,1.84,2.96s.63,1.97.63,3.12c0,1.72-.55,3.07-1.64,4.08-1.1,1-2.55,1.5-4.38,1.5-1.49,0-2.66-.25-3.51-.76-.85-.51-1.44-1.17-1.79-1.97-.34-.8-.52-1.65-.52-2.53Z"/>
      <path class="cls-3" d="M66.71,245.72h4.24l4.64,24.83h-3.78l-.68-4.45h-4.59l-.65,4.45h-3.79l4.62-24.83ZM70.69,263.27l-1.77-12.43h-.16l-1.79,12.43h3.72Z"/>
      <path class="cls-3" d="M77.84,245.72h2.98l6.06,16.33h.09c-.04-.51-.09-1.09-.15-1.72-.06-.64-.12-1.4-.17-2.29-.05-.89-.07-1.98-.07-3.26v-9.06h3.34v24.83h-3.01l-6.03-15.89h-.12c.05.58.1,1.22.16,1.9.06.69.11,1.56.16,2.6.05,1.05.07,2.41.07,4.08v7.3h-3.31v-24.83Z"/>
      <path class="cls-3" d="M106.13,270.77c-.6,0-1.26-.09-1.97-.26-.71-.17-1.39-.54-2.03-1.09-.64-.55-1.16-1.38-1.57-2.49s-.61-2.6-.61-4.46v-8.8c0-1.49.14-2.74.41-3.73.28-.99.64-1.79,1.09-2.38.45-.6.95-1.04,1.5-1.34.55-.3,1.09-.49,1.64-.58.55-.09,1.05-.14,1.52-.14,1.28,0,2.29.24,3.04.71s1.28,1.11,1.61,1.91c.33.8.49,1.68.49,2.64,0,.53-.04,1.02-.12,1.48-.08.45-.18.95-.28,1.49h-2.91v-1.19c0-2.72-.64-4.08-1.92-4.08-.69,0-1.21.3-1.58.89s-.55,1.69-.55,3.28v11.19c0,1.54.18,2.59.55,3.15.36.56.93.84,1.69.84.53,0,.97-.23,1.32-.68.35-.45.52-1.17.52-2.17v-2.36h3.3v2.3c0,1.99-.44,3.46-1.32,4.42-.88.96-2.16,1.44-3.82,1.44Z"/>
      <path class="cls-3" d="M116.75,245.72h4.24l4.64,24.83h-3.78l-.68-4.45h-4.59l-.65,4.45h-3.79l4.62-24.83ZM120.73,263.27l-1.77-12.43h-.16l-1.79,12.43h3.72Z"/>
      <path class="cls-3" d="M127.88,245.72h3.77v24.83h-3.77v-24.83Z"/>
      <path class="cls-3" d="M135.75,245.72h2.98l6.06,16.33h.09c-.04-.51-.09-1.09-.15-1.72-.06-.64-.12-1.4-.17-2.29-.05-.89-.07-1.98-.07-3.26v-9.06h3.34v24.83h-3.01l-6.03-15.89h-.12c.05.58.1,1.22.16,1.9.06.69.11,1.56.16,2.6.05,1.05.07,2.41.07,4.08v7.3h-3.31v-24.83Z"/>
      <path class="cls-3" d="M151.93,245.72h9.49v2.97h-5.73v7.43h4.49v2.97h-4.49v8.5h5.73v2.97h-9.49v-24.83Z"/>
    </g>
    <g>
      <path class="cls-3" d="M120.06,305.72h2.2v8.91c0,1.21-.38,2.18-1.14,2.9-.76.72-1.76,1.07-3,1.07-1.33,0-2.35-.33-3.07-1-.72-.67-1.08-1.6-1.08-2.79h2.2c0,.67.17,1.18.5,1.52s.82.51,1.45.51c.59,0,1.07-.2,1.42-.59.35-.39.53-.93.53-1.63v-8.9Z"/>
      <path class="cls-3" d="M124.18,313.61c0-.92.18-1.76.55-2.5.37-.74.88-1.31,1.54-1.71.66-.4,1.42-.6,2.28-.6,1.27,0,2.31.41,3.1,1.23.79.82,1.22,1.91,1.29,3.26v.5c0,.93-.17,1.76-.53,2.49-.36.73-.87,1.3-1.54,1.7s-1.43.6-2.31.6c-1.33,0-2.4-.44-3.2-1.33-.8-.89-1.2-2.07-1.2-3.55v-.1ZM126.3,313.79c0,.97.2,1.73.6,2.28.4.55.96.82,1.68.82s1.27-.28,1.67-.84.6-1.38.6-2.45c0-.95-.2-1.71-.61-2.27-.41-.56-.97-.84-1.67-.84s-1.24.28-1.65.82c-.41.55-.61,1.37-.61,2.46Z"/>
      <path class="cls-3" d="M136.83,310.01c.69-.8,1.57-1.2,2.63-1.2,2.01,0,3.03,1.15,3.06,3.45v6.17h-2.12v-6.09c0-.65-.14-1.11-.42-1.38s-.7-.41-1.24-.41c-.85,0-1.48.38-1.9,1.13v6.74h-2.12v-13.4h2.12v4.99Z"/>
      <path class="cls-3" d="M146.63,308.98l.06,1.09c.7-.84,1.61-1.26,2.75-1.26,1.97,0,2.97,1.13,3,3.38v6.24h-2.12v-6.11c0-.6-.13-1.04-.39-1.33-.26-.29-.68-.43-1.27-.43-.86,0-1.49.39-1.91,1.16v6.72h-2.12v-9.44h2Z"/>
      <path class="cls-3" d="M153.99,309.48l-1.08-.67c.52-.76.79-1.57.81-2.42v-1.38h1.86v1.2c0,.6-.15,1.2-.46,1.81-.31.61-.68,1.09-1.13,1.45Z"/>
      <path class="cls-3" d="M160.69,315.85c0-.38-.16-.67-.47-.86-.31-.2-.83-.37-1.55-.52-.72-.15-1.32-.34-1.81-.58-1.06-.51-1.59-1.25-1.59-2.22,0-.81.34-1.49,1.03-2.04.69-.55,1.56-.82,2.62-.82,1.13,0,2.04.28,2.73.84.69.56,1.04,1.28,1.04,2.17h-2.12c0-.41-.15-.75-.45-1.02-.3-.27-.7-.41-1.2-.41-.47,0-.85.11-1.14.32-.29.22-.44.5-.44.86,0,.33.14.58.41.76.27.18.83.36,1.66.55.83.18,1.48.4,1.96.65.47.25.83.56,1.06.91.23.35.34.78.34,1.29,0,.85-.35,1.54-1.06,2.06-.7.53-1.63.79-2.76.79-.77,0-1.46-.14-2.07-.42-.6-.28-1.08-.66-1.41-1.15-.34-.49-.51-1.01-.51-1.58h2.06c.03.5.22.89.57,1.16s.81.41,1.39.41.98-.11,1.27-.32c.29-.21.44-.49.44-.83Z"/>
      <path class="cls-3" d="M179.35,318.42h-2.2v-5.63h-5.68v5.63h-2.21v-12.7h2.21v5.29h5.68v-5.29h2.2v12.7Z"/>
      <path class="cls-3" d="M181.36,313.61c0-.92.18-1.76.55-2.5.37-.74.88-1.31,1.54-1.71.66-.4,1.42-.6,2.29-.6,1.27,0,2.31.41,3.1,1.23.79.82,1.22,1.91,1.29,3.26v.5c0,.93-.17,1.76-.53,2.49-.36.73-.87,1.3-1.54,1.7s-1.43.6-2.31.6c-1.33,0-2.4-.44-3.2-1.33-.8-.89-1.2-2.07-1.2-3.55v-.1ZM183.48,313.79c0,.97.2,1.73.6,2.28.4.55.96.82,1.67.82s1.27-.28,1.67-.84c.4-.56.6-1.38.6-2.45,0-.95-.2-1.71-.62-2.27-.41-.56-.97-.84-1.67-.84s-1.24.28-1.65.82c-.41.55-.61,1.37-.61,2.46Z"/>
      <path class="cls-3" d="M197.64,317.49c-.62.73-1.51,1.1-2.65,1.1-1.02,0-1.8-.3-2.32-.9-.53-.6-.79-1.47-.79-2.6v-6.11h2.12v6.09c0,1.2.5,1.8,1.49,1.8s1.72-.37,2.08-1.11v-6.78h2.12v9.44h-2l-.05-.92Z"/>
      <path class="cls-3" d="M207.14,315.85c0-.38-.16-.67-.47-.86-.31-.2-.83-.37-1.55-.52-.72-.15-1.32-.34-1.81-.58-1.06-.51-1.59-1.25-1.59-2.22,0-.81.34-1.49,1.03-2.04.69-.55,1.56-.82,2.62-.82,1.13,0,2.04.28,2.73.84.69.56,1.04,1.28,1.04,2.17h-2.12c0-.41-.15-.75-.45-1.02-.3-.27-.7-.41-1.2-.41-.46,0-.84.11-1.14.32s-.44.5-.44.86c0,.33.14.58.41.76.27.18.83.36,1.66.55.83.18,1.48.4,1.96.65.47.25.83.56,1.06.91s.34.78.34,1.29c0,.85-.35,1.54-1.06,2.06-.7.53-1.63.79-2.76.79-.77,0-1.46-.14-2.07-.42s-1.08-.66-1.41-1.15c-.34-.49-.51-1.01-.51-1.58h2.06c.03.5.22.89.57,1.16s.81.41,1.39.41.98-.11,1.27-.32c.29-.21.44-.49.44-.83Z"/>
      <path class="cls-3" d="M215.23,318.59c-1.34,0-2.43-.42-3.27-1.27-.83-.85-1.25-1.97-1.25-3.38v-.26c0-.94.18-1.78.55-2.53.36-.74.87-1.32,1.53-1.73s1.39-.62,2.2-.62c1.29,0,2.28.41,2.98,1.23.7.82,1.05,1.98,1.05,3.48v.86h-6.17c.06.78.32,1.4.78,1.85.46.45,1.03.68,1.72.68.97,0,1.76-.39,2.37-1.18l1.14,1.09c-.38.56-.88,1-1.51,1.31-.63.31-1.34.47-2.12.47ZM214.98,310.5c-.58,0-1.05.2-1.41.61s-.59.97-.68,1.7h4.04v-.16c-.05-.71-.24-1.25-.57-1.61-.33-.36-.79-.55-1.38-.55Z"/>
      <path class="cls-3" d="M223.72,314.37l-.94.97v3.08h-2.12v-13.4h2.12v7.73l.66-.83,2.61-2.94h2.55l-3.51,3.93,3.88,5.5h-2.45l-2.8-4.05Z"/>
      <path class="cls-3" d="M233.96,318.59c-1.34,0-2.43-.42-3.27-1.27-.83-.85-1.25-1.97-1.25-3.38v-.26c0-.94.18-1.78.55-2.53.36-.74.87-1.32,1.53-1.73s1.39-.62,2.2-.62c1.29,0,2.28.41,2.98,1.23.7.82,1.05,1.98,1.05,3.48v.86h-6.17c.06.78.32,1.4.78,1.85.46.45,1.03.68,1.72.68.97,0,1.76-.39,2.37-1.18l1.14,1.09c-.38.56-.88,1-1.51,1.31-.63.31-1.34.47-2.12.47ZM233.71,310.5c-.58,0-1.05.2-1.41.61s-.59.97-.68,1.7h4.04v-.16c-.05-.71-.24-1.25-.57-1.61-.33-.36-.79-.55-1.38-.55Z"/>
      <path class="cls-3" d="M243.55,318.59c-1.34,0-2.43-.42-3.27-1.27-.83-.85-1.25-1.97-1.25-3.38v-.26c0-.94.18-1.78.55-2.53.36-.74.87-1.32,1.53-1.73s1.39-.62,2.2-.62c1.29,0,2.28.41,2.98,1.23.7.82,1.05,1.98,1.05,3.48v.86h-6.17c.06.78.32,1.4.78,1.85.46.45,1.03.68,1.72.68.97,0,1.76-.39,2.37-1.18l1.14,1.09c-.38.56-.88,1-1.51,1.31-.63.31-1.34.47-2.12.47ZM243.3,310.5c-.58,0-1.05.2-1.41.61s-.59.97-.68,1.7h4.04v-.16c-.05-.71-.24-1.25-.57-1.61-.33-.36-.79-.55-1.38-.55Z"/>
      <path class="cls-3" d="M257.24,313.79c0,1.46-.33,2.62-.99,3.49-.66.87-1.55,1.3-2.67,1.3-1.03,0-1.86-.34-2.49-1.02v4.47h-2.12v-13.07h1.95l.09.96c.62-.76,1.47-1.13,2.54-1.13,1.15,0,2.05.43,2.71,1.29.65.86.98,2.05.98,3.57v.13ZM255.13,313.61c0-.94-.19-1.69-.56-2.24s-.91-.83-1.61-.83c-.87,0-1.49.36-1.87,1.07v4.19c.38.73,1.01,1.1,1.88,1.1.67,0,1.2-.27,1.58-.82.38-.54.57-1.37.57-2.47Z"/>
      <path class="cls-3" d="M263.19,318.59c-1.34,0-2.43-.42-3.27-1.27-.83-.85-1.25-1.97-1.25-3.38v-.26c0-.94.18-1.78.55-2.53.36-.74.87-1.32,1.53-1.73s1.39-.62,2.2-.62c1.29,0,2.28.41,2.98,1.23.7.82,1.05,1.98,1.05,3.48v.86h-6.17c.06.78.32,1.4.78,1.85.46.45,1.03.68,1.72.68.97,0,1.76-.39,2.37-1.18l1.14,1.09c-.38.56-.88,1-1.51,1.31-.63.31-1.34.47-2.12.47ZM262.94,310.5c-.58,0-1.05.2-1.41.61s-.59.97-.68,1.7h4.04v-.16c-.05-.71-.24-1.25-.57-1.61-.33-.36-.79-.55-1.38-.55Z"/>
      <path class="cls-3" d="M273.56,310.91c-.28-.05-.57-.07-.86-.07-.97,0-1.63.37-1.96,1.12v6.45h-2.12v-9.44h2.02l.05,1.06c.51-.82,1.22-1.23,2.13-1.23.3,0,.55.04.75.12v1.99Z"/>
    </g>
    <rect class="cls-1" x="12.32" y="330.73" width="267.68" height="5.49"/>
  </g>
</svg>