<?xml version="1.0" encoding="UTF-8"?>
<svg id="Layer_1" data-name="Layer 1" xmlns="http://www.w3.org/2000/svg" viewBox="0 0 709.1 15.37">
  <defs>
    <style>
      .cls-1 {
        fill: #000;
      }

      .cls-1, .cls-2 {
        stroke-width: 0px;
      }

      .cls-2 {
        fill: #ffce00;
      }
    </style>
  </defs>
  <g>
    <g>
      <g>
        <g>
          <rect class="cls-2" x="354.05" y=".07" width="59.2" height="15.24"/>
          <g>
            <polygon class="cls-1" points="408.46 13.69 406.93 15.32 411.87 15.32 413.25 13.85 413.25 13.69 408.46 13.69"/>
            <polygon class="cls-1" points="411.38 .08 409.85 1.71 413.25 1.71 413.26 .08 411.38 .08"/>
            <polygon class="cls-1" points="397.07 15.31 402 15.32 403.53 13.69 398.6 13.69 397.07 15.31"/>
            <polygon class="cls-1" points="399.99 1.7 404.92 1.7 406.45 .08 401.51 .07 399.99 1.7"/>
            <polygon class="cls-1" points="387.2 15.31 392.13 15.31 393.66 13.68 388.73 13.68 387.2 15.31"/>
            <polygon class="cls-1" points="360.52 1.69 365.45 1.69 366.98 .06 362.05 .06 360.52 1.69"/>
            <polygon class="cls-1" points="354.05 13.82 354.19 13.67 354.05 13.67 354.05 13.82"/>
            <polygon class="cls-1" points="357.6 15.3 362.53 15.3 364.06 13.67 359.13 13.67 357.6 15.3"/>
            <polygon class="cls-1" points="370.38 1.69 375.32 1.69 376.85 .06 371.91 .06 370.38 1.69"/>
            <polygon class="cls-1" points="354.05 1.68 355.58 1.68 357.11 .06 354.05 .05 354.05 1.68"/>
            <polygon class="cls-1" points="390.12 1.7 395.05 1.7 396.58 .07 391.65 .07 390.12 1.7"/>
            <polygon class="cls-1" points="377.33 15.31 382.27 15.31 383.8 13.68 378.86 13.68 377.33 15.31"/>
            <polygon class="cls-1" points="380.25 1.69 385.18 1.7 386.71 .07 381.78 .07 380.25 1.69"/>
            <polygon class="cls-1" points="367.46 15.3 372.4 15.3 373.93 13.68 368.99 13.67 367.46 15.3"/>
          </g>
        </g>
        <g>
          <rect class="cls-2" x="413.25" y=".09" width="59.2" height="15.24"/>
          <g>
            <polygon class="cls-1" points="467.66 13.71 466.13 15.34 471.07 15.34 472.45 13.87 472.45 13.72 467.66 13.71"/>
            <polygon class="cls-1" points="470.58 .1 469.05 1.73 472.46 1.73 472.46 .1 470.58 .1"/>
            <polygon class="cls-1" points="456.27 15.34 461.2 15.34 462.73 13.71 457.8 13.71 456.27 15.34"/>
            <polygon class="cls-1" points="459.19 1.72 464.12 1.73 465.65 .1 460.72 .1 459.19 1.72"/>
            <polygon class="cls-1" points="446.4 15.33 451.33 15.34 452.86 13.71 447.93 13.71 446.4 15.33"/>
            <polygon class="cls-1" points="419.72 1.71 424.65 1.71 426.18 .08 421.25 .08 419.72 1.71"/>
            <polygon class="cls-1" points="413.25 13.85 413.39 13.69 413.25 13.69 413.25 13.85"/>
            <polygon class="cls-1" points="416.8 15.32 421.73 15.32 423.26 13.7 418.33 13.69 416.8 15.32"/>
            <polygon class="cls-1" points="429.58 1.71 434.52 1.71 436.05 .09 431.11 .08 429.58 1.71"/>
            <polygon class="cls-1" points="413.25 1.71 414.78 1.71 416.31 .08 413.26 .08 413.25 1.71"/>
            <polygon class="cls-1" points="449.32 1.72 454.25 1.72 455.78 .09 450.85 .09 449.32 1.72"/>
            <polygon class="cls-1" points="436.53 15.33 441.47 15.33 443 13.7 438.06 13.7 436.53 15.33"/>
            <polygon class="cls-1" points="439.45 1.72 444.39 1.72 445.91 .09 440.98 .09 439.45 1.72"/>
            <polygon class="cls-1" points="426.66 15.33 431.6 15.33 433.13 13.7 428.19 13.7 426.66 15.33"/>
          </g>
        </g>
        <g>
          <rect class="cls-2" x="472.45" y=".11" width="59.2" height="15.24"/>
          <g>
            <polygon class="cls-1" points="526.86 13.74 525.33 15.36 530.27 15.37 531.65 13.89 531.65 13.74 526.86 13.74"/>
            <polygon class="cls-1" points="529.78 .12 528.25 1.75 531.66 1.75 531.66 .12 529.78 .12"/>
            <polygon class="cls-1" points="515.47 15.36 520.4 15.36 521.93 13.73 517 13.73 515.47 15.36"/>
            <polygon class="cls-1" points="518.39 1.75 523.32 1.75 524.85 .12 519.92 .12 518.39 1.75"/>
            <polygon class="cls-1" points="505.6 15.36 510.53 15.36 512.06 13.73 507.13 13.73 505.6 15.36"/>
            <polygon class="cls-1" points="478.92 1.73 483.85 1.73 485.38 .11 480.45 .1 478.92 1.73"/>
            <polygon class="cls-1" points="472.45 13.87 472.6 13.72 472.45 13.72 472.45 13.87"/>
            <polygon class="cls-1" points="476 15.35 480.93 15.35 482.46 13.72 477.53 13.72 476 15.35"/>
            <polygon class="cls-1" points="488.79 1.74 493.72 1.74 495.25 .11 490.31 .11 488.79 1.74"/>
            <polygon class="cls-1" points="472.46 1.73 473.98 1.73 475.51 .1 472.46 .1 472.46 1.73"/>
            <polygon class="cls-1" points="508.52 1.74 513.45 1.75 514.98 .12 510.05 .12 508.52 1.74"/>
            <polygon class="cls-1" points="495.73 15.35 500.67 15.36 502.2 13.73 497.26 13.73 495.73 15.35"/>
            <polygon class="cls-1" points="498.65 1.74 503.59 1.74 505.12 .11 500.18 .11 498.65 1.74"/>
            <polygon class="cls-1" points="485.87 15.35 490.8 15.35 492.33 13.72 487.4 13.72 485.87 15.35"/>
          </g>
        </g>
      </g>
      <g>
        <path class="cls-1" d="M420.31,10.71c-.03-2.13-.06-4.2-.09-6.2.41-.03.76-.04,1.06-.04.37,0,.66.02.87.06.37.08.69.27.96.59.27.32.46.76.58,1.33.08.38.11.79.12,1.21,0,.2,0,.42-.02.63-.05.67-.33,1.25-.82,1.77-.43.44-1.14.67-2.15.67-.16,0-.32,0-.49-.02ZM422.39,9.14c.26-.34.4-.75.43-1.22,0-.12.01-.25.01-.37,0-.33-.03-.63-.09-.9-.09-.37-.29-.65-.61-.84-.27-.15-.53-.23-.78-.23-.06,0-.11,0-.17.01.02,1.35.04,2.71.05,4.09.52-.02.9-.2,1.16-.54Z"/>
        <path class="cls-1" d="M428,7.28c0,.14,0,.28,0,.42,0,1.49-.18,2.39-.54,2.69-.32.26-.73.39-1.22.39-.12,0-.25,0-.38-.02-.67-.08-1.1-.55-1.28-1.42-.09-.43-.14-.9-.14-1.4,0-.5.04-1.03.13-1.59.18-1.12.78-1.68,1.81-1.68h.02c1.03,0,1.57.87,1.61,2.61ZM426.32,5.75h0c-.5,0-.8.38-.89,1.14-.05.38-.07.74-.07,1.07,0,.34.03.65.07.94.09.58.3.9.63.96.06.01.13.02.19.02.24,0,.44-.09.6-.28.18-.21.27-.82.27-1.83v-.26c-.02-1.17-.29-1.76-.8-1.76Z"/>
        <path class="cls-1" d="M430.01,4.49l1.21-.08c.53,1.54,1.05,2.93,1.57,4.2-.02-.53-.08-1.96-.17-4.28h.98c0,.33,0,.7,0,1.09,0,1.32.04,3.01.12,5.06l-1.25-.08c-.38-.96-.92-2.37-1.61-4.23.04.81.07,1.91.07,3.3,0,.31,0,.63,0,.97h-.78c-.03-1.93-.08-3.92-.13-5.97Z"/>
        <path class="cls-1" d="M437.9,7.25c0,.14,0,.28,0,.42,0,1.49-.18,2.39-.54,2.69-.32.26-.73.39-1.22.39-.12,0-.25,0-.38-.02-.67-.08-1.1-.55-1.28-1.42-.09-.43-.14-.9-.14-1.4,0-.5.04-1.03.13-1.59.18-1.12.78-1.68,1.81-1.68h.02c1.03,0,1.57.87,1.61,2.61ZM436.22,5.72h0c-.5,0-.8.38-.89,1.14-.05.38-.07.74-.07,1.07,0,.34.03.65.07.94.09.58.3.9.63.96.06.01.13.02.19.02.24,0,.44-.09.6-.28.18-.21.27-.82.27-1.83v-.26c-.02-1.17-.29-1.76-.8-1.76Z"/>
        <path class="cls-1" d="M438.52,5.47c.03-.24.04-.48.04-.72,0-.06,0-.12,0-.18.93.04,1.72.07,2.36.06.32,0,.61,0,.87-.02.02.42.04.72.04.91l-1.11.02c0,.44,0,.88,0,1.3,0,1.37.02,2.62.05,3.76l-1.11-.02c.08-1.17.12-2.5.11-3.99,0-.32,0-.65,0-.99v-.04s-1.25-.08-1.25-.08Z"/>
        <path class="cls-1" d="M447.35,6.24l-.94.27c-.06-.53-.26-.84-.59-.92-.06-.02-.12-.02-.18-.02-.24,0-.43.15-.56.45-.16.37-.25.87-.28,1.51,0,.15-.01.3-.01.44,0,.44.04.82.12,1.13.1.41.38.61.84.61.46,0,.69-.42.69-1.25l1.03.23c-.07.81-.31,1.38-.7,1.71-.31.26-.69.4-1.14.4-.13,0-.27-.01-.42-.04-.64-.1-1.05-.58-1.22-1.46-.08-.43-.13-.89-.13-1.38,0-.51.04-1.04.13-1.61.16-1.08.72-1.63,1.67-1.63h.08c1,.03,1.54.55,1.62,1.57Z"/>
        <path class="cls-1" d="M448.16,10.68c0-2.34-.04-4.36-.09-6.06.38-.03.73-.05,1.04-.05.93,0,1.55.15,1.87.45.37.36.56.84.56,1.44,0,.08,0,.17,0,.25-.06.73-.35,1.19-.87,1.38.3.73.59,1.57.86,2.52l-1,.35c-.24-.98-.49-1.78-.75-2.39l-.6.12v2.02s-1.02-.02-1.02-.02ZM449.06,7.75h.08c.59,0,.98-.13,1.17-.37.16-.21.24-.47.23-.77,0-.07,0-.14-.01-.22-.05-.4-.2-.66-.47-.76-.15-.06-.32-.09-.51-.09-.15,0-.32.02-.5.06l.02,2.15Z"/>
        <path class="cls-1" d="M455.73,7.2c0,.14,0,.28,0,.42,0,1.49-.18,2.39-.54,2.69-.32.26-.73.39-1.22.39-.12,0-.25,0-.38-.02-.67-.08-1.1-.55-1.28-1.42-.09-.43-.14-.9-.14-1.4,0-.5.04-1.03.13-1.59.18-1.12.78-1.68,1.81-1.68h.02c1.03,0,1.57.87,1.61,2.61ZM454.05,5.67h0c-.5,0-.8.38-.89,1.14-.05.38-.07.74-.07,1.07,0,.34.03.65.07.94.09.58.3.9.63.96.06.01.13.02.19.02.24,0,.44-.09.6-.28.18-.21.27-.82.27-1.83v-.26c-.02-1.17-.29-1.76-.8-1.76Z"/>
        <path class="cls-1" d="M456.36,8.35l.97-.25c0,.61.1.98.3,1.12.16.11.33.17.51.16.04,0,.09,0,.14-.01.23-.03.39-.13.48-.28.06-.1.09-.23.09-.38,0-.09,0-.18-.03-.29-.05-.29-.25-.51-.58-.65-.33-.15-.64-.3-.93-.44-.29-.15-.49-.37-.61-.65-.09-.22-.14-.47-.14-.73,0-.08,0-.16.01-.24.03-.35.21-.68.53-.96.3-.27.66-.41,1.07-.41h.08c.44.02.8.17,1.08.45.28.28.43.8.46,1.57l-.91.22c-.04-.63-.15-1.01-.34-1.13-.12-.08-.24-.12-.37-.12-.07,0-.15.01-.22.04-.2.07-.34.21-.41.42-.03.07-.04.15-.04.22,0,.13.04.25.13.37.13.19.5.41,1.12.65s.97.54,1.08.89c.06.22.1.43.1.64,0,.13-.01.27-.04.4-.07.34-.18.63-.35.86-.17.23-.43.41-.78.53-.22.08-.44.12-.66.12-.13,0-.26-.01-.39-.04-.35-.07-.66-.25-.92-.55s-.4-.81-.42-1.54Z"/>
        <path class="cls-1" d="M460.53,8.34l.97-.25c0,.61.1.98.3,1.12.16.11.33.17.51.16.04,0,.09,0,.14-.01.23-.03.39-.13.48-.28.06-.1.09-.23.09-.38,0-.09,0-.18-.03-.29-.05-.29-.25-.51-.58-.65s-.64-.3-.93-.44c-.29-.15-.49-.37-.61-.65-.09-.22-.14-.47-.14-.73,0-.08,0-.16.01-.24.03-.35.21-.68.53-.96.3-.27.66-.41,1.07-.41h.08c.44.02.8.17,1.08.45s.43.8.46,1.57l-.91.22c-.04-.63-.15-1.01-.34-1.13-.12-.08-.24-.12-.37-.12-.07,0-.15.01-.22.04-.2.07-.34.21-.41.42-.03.07-.04.15-.04.22,0,.13.04.25.13.37.13.19.5.41,1.12.65s.97.54,1.08.89c.06.22.1.43.1.64,0,.13-.01.27-.04.4-.07.34-.18.63-.35.86-.17.23-.43.41-.78.53-.22.08-.44.12-.66.12-.13,0-.26-.01-.39-.04-.35-.07-.66-.25-.92-.55s-.4-.81-.42-1.54Z"/>
      </g>
      <g>
        <path class="cls-1" d="M362.22,10.88c-.03-2.13-.06-4.2-.09-6.2.41-.03.76-.04,1.06-.04.37,0,.66.02.87.06.37.08.69.27.96.59.27.32.46.76.58,1.33.08.38.11.79.12,1.21,0,.21,0,.42-.02.63-.05.67-.33,1.25-.82,1.77-.43.44-1.15.67-2.15.67-.16,0-.32,0-.49-.02ZM364.29,9.31c.26-.34.4-.75.43-1.22,0-.12.01-.25.01-.37,0-.33-.03-.63-.09-.9-.09-.37-.29-.65-.61-.84-.27-.15-.53-.23-.78-.23-.06,0-.11,0-.17.01.02,1.35.04,2.71.05,4.09.52-.02.9-.2,1.16-.54Z"/>
        <path class="cls-1" d="M369.9,7.46c0,.14,0,.28,0,.42,0,1.49-.18,2.39-.54,2.69-.32.26-.73.39-1.22.39-.12,0-.25,0-.38-.02-.67-.08-1.1-.55-1.28-1.42-.09-.43-.14-.9-.14-1.4,0-.5.04-1.03.13-1.59.18-1.12.78-1.68,1.81-1.68h.02c1.03,0,1.57.87,1.61,2.61ZM368.22,5.92h0c-.5,0-.8.38-.89,1.14-.05.38-.07.74-.07,1.07,0,.34.03.65.07.94.09.58.3.9.63.96.06.01.13.02.19.02.24,0,.44-.09.6-.28.18-.21.27-.82.27-1.83v-.26c-.02-1.17-.29-1.76-.8-1.76Z"/>
        <path class="cls-1" d="M371.91,4.67l1.21-.08c.53,1.54,1.05,2.93,1.57,4.2-.02-.53-.08-1.96-.17-4.28h.98c0,.33,0,.7,0,1.09,0,1.32.04,3.01.12,5.06l-1.25-.08c-.38-.96-.92-2.37-1.61-4.23.04.81.07,1.91.07,3.3,0,.31,0,.63,0,.97h-.78c-.03-1.93-.08-3.92-.13-5.97Z"/>
        <path class="cls-1" d="M379.8,7.43c0,.14,0,.28,0,.42,0,1.49-.18,2.39-.54,2.69-.32.26-.73.39-1.22.39-.12,0-.25,0-.38-.02-.67-.08-1.1-.55-1.28-1.42-.09-.43-.14-.9-.14-1.4,0-.5.04-1.03.13-1.59.18-1.12.78-1.68,1.81-1.68h.02c1.03,0,1.57.87,1.61,2.61ZM378.12,5.89h0c-.5,0-.8.38-.89,1.14-.05.38-.07.74-.07,1.07,0,.34.03.65.07.94.09.58.3.9.63.96.06.01.13.02.19.02.24,0,.44-.09.6-.28.18-.21.27-.82.27-1.83v-.26c-.02-1.17-.29-1.76-.8-1.76Z"/>
        <path class="cls-1" d="M380.42,5.65c.03-.24.04-.48.04-.72,0-.06,0-.12,0-.18.93.04,1.72.07,2.36.06.32,0,.61,0,.87-.02.02.42.04.72.04.91l-1.11.02c0,.44,0,.88,0,1.3,0,1.37.02,2.62.05,3.76l-1.11-.02c.08-1.17.12-2.5.11-3.99,0-.32,0-.65,0-.99v-.04s-1.25-.08-1.25-.08Z"/>
        <path class="cls-1" d="M389.25,6.42l-.94.27c-.06-.53-.26-.84-.59-.92-.06-.02-.12-.02-.18-.02-.24,0-.43.15-.56.45-.16.37-.25.87-.28,1.51,0,.15-.01.3-.01.44,0,.44.04.82.12,1.13.1.41.38.61.84.61.46,0,.69-.42.69-1.25l1.03.23c-.07.81-.31,1.38-.7,1.71-.31.26-.69.4-1.14.4-.13,0-.27-.01-.42-.04-.64-.1-1.05-.58-1.22-1.46-.08-.43-.13-.89-.13-1.38,0-.51.04-1.04.13-1.61.16-1.08.72-1.63,1.67-1.63h.08c1,.03,1.54.55,1.62,1.57Z"/>
        <path class="cls-1" d="M390.06,10.86c0-2.34-.04-4.36-.09-6.06.38-.03.73-.05,1.04-.05.93,0,1.55.15,1.87.45.37.36.56.84.56,1.44,0,.08,0,.17,0,.25-.06.73-.35,1.19-.87,1.38.3.73.59,1.57.86,2.52l-1,.35c-.24-.98-.49-1.78-.75-2.39l-.6.12v2.02s-1.02-.02-1.02-.02ZM390.96,7.92h.08c.59,0,.98-.13,1.17-.37.16-.21.24-.47.23-.77,0-.07,0-.14-.01-.22-.05-.4-.2-.66-.47-.76-.15-.06-.32-.09-.51-.09-.15,0-.32.02-.5.06l.02,2.15Z"/>
        <path class="cls-1" d="M397.63,7.37c0,.14,0,.28,0,.42,0,1.49-.18,2.39-.54,2.69-.32.26-.73.39-1.22.39-.12,0-.25,0-.38-.02-.67-.08-1.1-.55-1.28-1.42-.09-.43-.14-.9-.14-1.4,0-.5.04-1.03.13-1.59.18-1.12.78-1.68,1.81-1.68h.02c1.03,0,1.57.87,1.61,2.61ZM395.95,5.84h0c-.5,0-.8.38-.89,1.14-.05.38-.07.74-.07,1.07,0,.34.03.65.07.94.09.58.3.9.63.96.06.01.13.02.19.02.24,0,.44-.09.6-.28.18-.21.27-.82.27-1.83v-.26c-.02-1.17-.29-1.76-.8-1.76Z"/>
        <path class="cls-1" d="M398.26,8.52l.97-.25c0,.61.1.98.3,1.12.16.11.33.17.51.16.04,0,.09,0,.14-.01.23-.03.39-.13.48-.28.06-.1.09-.23.09-.38,0-.09,0-.18-.03-.29-.05-.29-.25-.51-.58-.65-.33-.15-.64-.3-.93-.44-.29-.15-.49-.37-.61-.65-.09-.22-.14-.47-.14-.73,0-.08,0-.16.01-.24.03-.35.21-.68.53-.96.3-.27.66-.4,1.07-.41h.08c.44.02.8.17,1.08.45.28.28.43.8.46,1.57l-.91.22c-.04-.63-.15-1.01-.34-1.13-.12-.08-.24-.12-.37-.12-.07,0-.15.01-.22.04-.2.07-.34.21-.41.42-.03.07-.04.15-.04.22,0,.13.04.25.13.37.13.19.5.41,1.12.65.61.24.97.54,1.08.89.06.22.1.43.1.64,0,.13-.01.27-.04.4-.07.34-.18.63-.35.86-.17.23-.43.41-.78.53-.22.08-.44.12-.66.12-.13,0-.26-.01-.39-.04-.35-.07-.66-.25-.92-.55-.26-.3-.4-.81-.42-1.54Z"/>
        <path class="cls-1" d="M402.43,8.51l.97-.25c0,.61.1.98.3,1.12.16.11.33.17.51.16.04,0,.09,0,.14-.01.23-.03.39-.13.48-.28.06-.1.09-.23.09-.38,0-.09,0-.18-.03-.29-.05-.29-.25-.51-.58-.65-.33-.15-.65-.3-.93-.44s-.49-.37-.61-.65c-.09-.22-.14-.47-.14-.73,0-.08,0-.16.01-.24.03-.35.21-.68.53-.96.3-.27.66-.41,1.07-.41h.08c.44.02.8.17,1.08.45.28.28.43.8.46,1.57l-.91.22c-.04-.63-.15-1.01-.34-1.13-.12-.08-.24-.12-.37-.12-.07,0-.15.01-.22.04-.2.07-.34.21-.41.42-.03.07-.04.15-.04.22,0,.13.04.25.13.37.13.19.5.41,1.12.65.61.24.97.54,1.08.89.06.22.1.43.1.64,0,.13-.01.27-.04.4-.07.34-.18.63-.35.86-.17.23-.43.41-.78.53-.22.08-.44.12-.66.12-.13,0-.26-.01-.39-.04-.35-.07-.66-.25-.92-.55-.26-.3-.4-.81-.42-1.54Z"/>
      </g>
      <g>
        <path class="cls-1" d="M482.26,10.52c-.03-2.13-.06-4.2-.09-6.2.41-.03.76-.04,1.06-.04.37,0,.66.02.87.06.37.08.69.27.96.59.27.32.46.76.58,1.33.08.38.11.79.12,1.21,0,.2,0,.42-.02.63-.05.67-.33,1.25-.82,1.77-.43.44-1.15.67-2.15.67-.16,0-.32,0-.49-.02ZM484.34,8.95c.26-.34.4-.75.43-1.22,0-.12.01-.25.01-.37,0-.33-.03-.63-.09-.9-.09-.37-.29-.65-.61-.84-.27-.15-.53-.23-.78-.23-.06,0-.11,0-.17.01.02,1.35.04,2.71.05,4.09.52-.02.9-.2,1.16-.54Z"/>
        <path class="cls-1" d="M489.94,7.1c0,.14,0,.28,0,.42,0,1.49-.18,2.39-.54,2.69-.32.26-.73.39-1.22.39-.12,0-.25,0-.38-.02-.67-.08-1.1-.55-1.28-1.42-.09-.43-.14-.9-.14-1.4,0-.5.04-1.03.13-1.59.18-1.12.78-1.68,1.81-1.68h.02c1.03,0,1.57.87,1.61,2.61ZM488.26,5.57h0c-.5,0-.8.38-.89,1.14-.05.38-.07.74-.07,1.07,0,.34.03.65.07.94.09.58.3.9.63.96.06.01.13.02.19.02.24,0,.44-.09.6-.28.18-.21.27-.82.27-1.83v-.26c-.02-1.17-.29-1.76-.8-1.76Z"/>
        <path class="cls-1" d="M491.96,4.31l1.21-.08c.53,1.54,1.05,2.93,1.57,4.2-.02-.53-.08-1.96-.17-4.28h.98c0,.33,0,.7,0,1.09,0,1.32.04,3.01.12,5.06l-1.25-.08c-.38-.96-.92-2.37-1.61-4.23.04.81.07,1.91.07,3.3,0,.31,0,.63,0,.97h-.78c-.03-1.93-.08-3.92-.13-5.97Z"/>
        <path class="cls-1" d="M499.85,7.07c0,.14,0,.28,0,.42,0,1.49-.18,2.39-.54,2.69-.32.26-.73.39-1.22.39-.12,0-.25,0-.38-.02-.67-.08-1.1-.55-1.28-1.42-.09-.43-.14-.9-.14-1.4,0-.5.04-1.03.13-1.59.18-1.12.78-1.68,1.81-1.68h.02c1.03,0,1.57.87,1.61,2.61ZM498.17,5.54h0c-.5,0-.8.38-.89,1.14-.05.38-.07.74-.07,1.07,0,.34.03.65.07.94.09.58.3.9.63.96.06.01.13.02.19.02.24,0,.44-.09.6-.28.18-.21.27-.82.27-1.83v-.26c-.02-1.17-.29-1.76-.8-1.76Z"/>
        <path class="cls-1" d="M500.47,5.29c.03-.24.04-.48.04-.72,0-.06,0-.12,0-.18.93.04,1.72.07,2.36.06.32,0,.61,0,.87-.02.02.42.04.72.04.91l-1.11.02c0,.44,0,.88,0,1.3,0,1.37.02,2.62.05,3.76l-1.11-.02c.08-1.17.12-2.5.11-3.99,0-.32,0-.65,0-.99v-.04s-1.25-.08-1.25-.08Z"/>
        <path class="cls-1" d="M509.3,6.06l-.94.27c-.06-.53-.26-.84-.59-.92-.06-.02-.12-.02-.18-.02-.24,0-.43.15-.56.45-.16.37-.25.87-.28,1.51,0,.15-.01.3-.01.44,0,.44.04.82.12,1.13.1.41.38.61.84.61.46,0,.69-.42.69-1.25l1.03.23c-.07.81-.31,1.38-.7,1.71-.31.26-.69.4-1.14.4-.13,0-.27-.01-.42-.04-.64-.1-1.05-.58-1.22-1.46-.08-.43-.13-.89-.13-1.38,0-.51.04-1.04.13-1.61.16-1.08.72-1.63,1.67-1.63h.08c1,.03,1.54.55,1.62,1.57Z"/>
        <path class="cls-1" d="M510.1,10.5c0-2.34-.04-4.36-.09-6.06.38-.03.73-.05,1.04-.05.93,0,1.55.15,1.87.45.37.36.56.84.56,1.44,0,.08,0,.17,0,.25-.06.73-.35,1.19-.87,1.38.3.73.59,1.57.86,2.52l-1,.35c-.24-.98-.49-1.78-.75-2.39l-.6.12v2.02s-1.02-.02-1.02-.02ZM511.01,7.56h.08c.59,0,.98-.13,1.17-.37.16-.21.24-.47.23-.77,0-.07,0-.14-.01-.22-.05-.4-.2-.66-.47-.76-.15-.06-.32-.09-.51-.09-.15,0-.32.02-.5.06l.02,2.15Z"/>
        <path class="cls-1" d="M517.67,7.01c0,.14,0,.28,0,.42,0,1.49-.18,2.39-.54,2.69-.32.26-.73.39-1.22.39-.12,0-.25,0-.38-.02-.67-.08-1.1-.55-1.28-1.42-.09-.43-.14-.9-.14-1.4,0-.5.04-1.03.13-1.59.18-1.12.78-1.68,1.81-1.68h.02c1.03,0,1.57.87,1.61,2.61ZM515.99,5.48h0c-.5,0-.8.38-.89,1.14-.05.38-.07.74-.07,1.07,0,.34.03.65.07.94.09.58.3.9.63.96.06.01.13.02.19.02.24,0,.44-.09.6-.28.18-.21.27-.82.27-1.83v-.26c-.02-1.17-.29-1.76-.8-1.76Z"/>
        <path class="cls-1" d="M518.31,8.16l.97-.25c0,.61.1.98.3,1.12.16.11.33.17.51.16.04,0,.09,0,.14-.01.23-.03.39-.13.48-.28.06-.1.09-.23.09-.38,0-.09,0-.18-.03-.29-.05-.29-.25-.51-.58-.65-.33-.15-.64-.3-.93-.44-.29-.15-.49-.37-.61-.65-.09-.22-.14-.47-.14-.73,0-.08,0-.16.01-.24.03-.35.21-.68.53-.96.3-.27.66-.41,1.07-.41h.08c.44.02.8.17,1.08.45s.43.8.46,1.57l-.91.22c-.04-.63-.15-1.01-.34-1.13-.12-.08-.24-.12-.37-.12-.07,0-.15.01-.22.04-.2.07-.34.21-.41.42-.03.07-.04.15-.04.22,0,.13.04.25.13.37.13.19.5.41,1.12.65.61.24.97.54,1.08.89.06.22.1.43.1.64,0,.13-.01.27-.04.4-.07.34-.18.63-.35.86-.17.23-.43.41-.78.53-.22.08-.44.12-.66.12-.13,0-.26-.01-.39-.04-.35-.07-.66-.25-.92-.55-.26-.3-.4-.81-.42-1.54Z"/>
        <path class="cls-1" d="M522.48,8.15l.97-.25c0,.61.1.98.3,1.12.16.11.33.17.51.16.04,0,.09,0,.14-.01.23-.03.39-.13.48-.28.06-.1.09-.23.09-.38,0-.09,0-.18-.03-.29-.05-.29-.25-.51-.58-.65-.33-.15-.64-.3-.93-.44s-.49-.37-.61-.65c-.09-.22-.14-.47-.14-.73,0-.08,0-.16.01-.24.03-.35.21-.68.53-.96.3-.27.66-.41,1.07-.41h.08c.44.02.8.17,1.08.45s.43.8.46,1.57l-.91.22c-.04-.63-.15-1.01-.34-1.13-.12-.08-.24-.12-.37-.12-.07,0-.15.01-.22.04-.2.07-.34.21-.41.42-.03.07-.04.15-.04.22,0,.13.04.25.13.37.13.19.5.41,1.12.65.61.24.97.54,1.08.89.06.22.1.43.1.64,0,.13-.01.27-.04.4-.07.34-.18.63-.35.86-.17.23-.43.41-.78.53-.22.08-.44.12-.66.12-.13,0-.26-.01-.39-.04-.35-.07-.66-.25-.92-.55-.26-.3-.4-.81-.42-1.54Z"/>
      </g>
      <path class="cls-1" d="M414.48,7.51c0,.55-.44.99-.99.99s-.99-.44-.99-.99c0-.55.44-.99.99-.99.55,0,.99.44.99.99Z"/>
      <path class="cls-1" d="M473.77,7.33c0,.55-.44.99-.99.99s-.99-.44-.99-.99.44-.99.99-.99c.55,0,.99.44.99.99Z"/>
    </g>
    <g>
      <g>
        <g>
          <rect class="cls-2" x="531.49" y=".01" width="59.2" height="15.24"/>
          <g>
            <polygon class="cls-1" points="585.9 13.64 584.37 15.26 589.31 15.27 590.69 13.79 590.69 13.64 585.9 13.64"/>
            <polygon class="cls-1" points="588.82 .02 587.29 1.65 590.7 1.65 590.7 .02 588.82 .02"/>
            <polygon class="cls-1" points="574.51 15.26 579.44 15.26 580.97 13.63 576.04 13.63 574.51 15.26"/>
            <polygon class="cls-1" points="577.43 1.65 582.36 1.65 583.89 .02 578.96 .02 577.43 1.65"/>
            <polygon class="cls-1" points="564.64 15.26 569.57 15.26 571.1 13.63 566.17 13.63 564.64 15.26"/>
            <polygon class="cls-1" points="537.96 1.63 542.89 1.63 544.42 0 539.49 0 537.96 1.63"/>
            <polygon class="cls-1" points="531.49 13.77 531.63 13.61 531.49 13.61 531.49 13.77"/>
            <polygon class="cls-1" points="535.04 15.24 539.97 15.25 541.5 13.62 536.57 13.62 535.04 15.24"/>
            <polygon class="cls-1" points="547.82 1.64 552.76 1.64 554.29 0 549.35 0 547.82 1.64"/>
            <polygon class="cls-1" points="531.5 1.63 533.02 1.63 534.55 0 531.5 0 531.5 1.63"/>
            <polygon class="cls-1" points="567.56 1.64 572.49 1.64 574.02 .02 569.09 .02 567.56 1.64"/>
            <polygon class="cls-1" points="554.77 15.25 559.71 15.25 561.24 13.63 556.3 13.62 554.77 15.25"/>
            <polygon class="cls-1" points="557.69 1.64 562.63 1.64 564.16 .01 559.22 .01 557.69 1.64"/>
            <polygon class="cls-1" points="544.91 15.25 549.84 15.25 551.37 13.62 546.43 13.62 544.91 15.25"/>
          </g>
        </g>
        <g>
          <rect class="cls-2" x="590.69" y=".03" width="59.2" height="15.24"/>
          <g>
            <polygon class="cls-1" points="645.1 13.66 643.57 15.29 648.51 15.29 649.89 13.82 649.89 13.66 645.1 13.66"/>
            <polygon class="cls-1" points="648.02 .05 646.49 1.67 649.9 1.68 649.9 .05 648.02 .05"/>
            <polygon class="cls-1" points="633.71 15.28 638.64 15.29 640.17 13.66 635.24 13.66 633.71 15.28"/>
            <polygon class="cls-1" points="636.63 1.67 641.56 1.67 643.09 .04 638.16 .04 636.63 1.67"/>
            <polygon class="cls-1" points="623.84 15.28 628.77 15.28 630.3 13.65 625.37 13.65 623.84 15.28"/>
            <polygon class="cls-1" points="597.16 1.65 602.09 1.66 603.62 .03 598.69 .03 597.16 1.65"/>
            <polygon class="cls-1" points="590.69 13.79 590.84 13.64 590.69 13.64 590.69 13.79"/>
            <polygon class="cls-1" points="594.24 15.27 599.17 15.27 600.7 13.64 595.77 13.64 594.24 15.27"/>
            <polygon class="cls-1" points="607.03 1.66 611.96 1.66 613.49 .03 608.56 .03 607.03 1.66"/>
            <polygon class="cls-1" points="590.7 1.65 592.22 1.65 593.75 .02 590.7 .02 590.7 1.65"/>
            <polygon class="cls-1" points="626.76 1.67 631.69 1.67 633.22 .04 628.29 .04 626.76 1.67"/>
            <polygon class="cls-1" points="613.97 15.28 618.91 15.28 620.44 13.65 615.5 13.65 613.97 15.28"/>
            <polygon class="cls-1" points="616.89 1.66 621.83 1.66 623.36 .04 618.42 .03 616.89 1.66"/>
            <polygon class="cls-1" points="604.11 15.27 609.04 15.27 610.57 13.65 605.64 13.64 604.11 15.27"/>
          </g>
        </g>
        <g>
          <rect class="cls-2" x="649.89" y=".06" width="59.2" height="15.24"/>
          <g>
            <polygon class="cls-1" points="704.3 13.68 702.78 15.31 707.71 15.31 709.09 13.84 709.09 13.68 704.3 13.68"/>
            <polygon class="cls-1" points="707.22 .07 705.69 1.7 709.1 1.7 709.1 .07 707.22 .07"/>
            <polygon class="cls-1" points="692.91 15.31 697.84 15.31 699.37 13.68 694.44 13.68 692.91 15.31"/>
            <polygon class="cls-1" points="695.83 1.69 700.76 1.7 702.29 .07 697.36 .07 695.83 1.69"/>
            <polygon class="cls-1" points="683.04 15.3 687.97 15.3 689.5 13.68 684.57 13.67 683.04 15.3"/>
            <polygon class="cls-1" points="656.36 1.68 661.29 1.68 662.82 .05 657.89 .05 656.36 1.68"/>
            <polygon class="cls-1" points="649.89 13.81 650.04 13.66 649.89 13.66 649.89 13.81"/>
            <polygon class="cls-1" points="653.44 15.29 658.37 15.29 659.9 13.66 654.97 13.66 653.44 15.29"/>
            <polygon class="cls-1" points="666.23 1.68 671.16 1.68 672.69 .06 667.76 .05 666.23 1.68"/>
            <polygon class="cls-1" points="649.9 1.68 651.43 1.68 652.95 .05 649.9 .05 649.9 1.68"/>
            <polygon class="cls-1" points="685.96 1.69 690.89 1.69 692.42 .06 687.49 .06 685.96 1.69"/>
            <polygon class="cls-1" points="673.17 15.3 678.11 15.3 679.64 13.67 674.7 13.67 673.17 15.3"/>
            <polygon class="cls-1" points="676.09 1.69 681.03 1.69 682.56 .06 677.62 .06 676.09 1.69"/>
            <polygon class="cls-1" points="663.31 15.29 668.24 15.3 669.77 13.67 664.84 13.67 663.31 15.29"/>
          </g>
        </g>
      </g>
      <g>
        <path class="cls-1" d="M597.75,10.65c-.03-2.13-.06-4.2-.09-6.2.41-.03.76-.04,1.06-.04.37,0,.66.02.87.06.37.08.69.27.96.59.27.32.46.76.58,1.33.08.38.11.79.12,1.21,0,.21,0,.42-.02.63-.05.67-.33,1.25-.82,1.77-.43.44-1.14.67-2.15.67-.16,0-.32,0-.49-.02ZM599.83,9.08c.26-.34.4-.75.43-1.22,0-.12.01-.25.01-.37,0-.33-.03-.63-.09-.9-.09-.37-.29-.65-.61-.84-.27-.15-.53-.23-.78-.23-.06,0-.11,0-.17.01.02,1.35.04,2.71.05,4.09.52-.02.9-.2,1.16-.54Z"/>
        <path class="cls-1" d="M605.44,7.23c0,.14,0,.28,0,.42,0,1.49-.18,2.39-.54,2.69-.32.26-.73.39-1.22.39-.12,0-.25,0-.38-.02-.67-.08-1.1-.55-1.28-1.42-.09-.43-.14-.9-.14-1.4,0-.5.04-1.03.13-1.59.18-1.12.78-1.68,1.81-1.68h.02c1.03,0,1.57.87,1.61,2.61ZM603.76,5.7h0c-.5,0-.8.38-.89,1.14-.05.38-.07.74-.07,1.07s.03.65.07.94c.09.58.3.9.63.96.06.01.13.02.19.02.24,0,.44-.09.6-.28.18-.21.27-.82.27-1.83v-.26c-.02-1.17-.29-1.76-.8-1.76Z"/>
        <path class="cls-1" d="M607.45,4.44l1.21-.08c.53,1.54,1.05,2.93,1.57,4.2-.02-.53-.08-1.96-.17-4.28h.98c0,.33,0,.7,0,1.09,0,1.32.04,3.01.12,5.06l-1.25-.08c-.38-.96-.92-2.37-1.61-4.23.04.81.07,1.91.07,3.3,0,.31,0,.63,0,.97h-.78c-.03-1.93-.08-3.92-.13-5.97Z"/>
        <path class="cls-1" d="M615.34,7.2c0,.14,0,.28,0,.42,0,1.49-.18,2.39-.54,2.69-.32.26-.73.39-1.22.39-.12,0-.25,0-.38-.02-.67-.08-1.1-.55-1.28-1.42-.09-.43-.14-.9-.14-1.4,0-.5.04-1.03.13-1.59.18-1.12.78-1.68,1.81-1.68h.02c1.03,0,1.57.87,1.61,2.61ZM613.66,5.67h0c-.5,0-.8.38-.89,1.14-.05.38-.07.74-.07,1.07,0,.34.03.65.07.94.09.58.3.9.63.96.06.01.13.02.19.02.24,0,.44-.09.6-.28.18-.21.27-.82.27-1.83v-.26c-.02-1.17-.29-1.76-.8-1.76Z"/>
        <path class="cls-1" d="M615.96,5.42c.03-.24.04-.48.04-.72,0-.06,0-.12,0-.18.93.04,1.72.07,2.36.06.32,0,.61,0,.87-.02.02.42.04.72.04.91l-1.11.02c0,.44,0,.88,0,1.3,0,1.37.02,2.62.05,3.76l-1.11-.02c.08-1.17.12-2.5.11-3.99,0-.32,0-.65,0-.99v-.04s-1.25-.08-1.25-.08Z"/>
        <path class="cls-1" d="M624.79,6.19l-.94.27c-.06-.53-.26-.84-.59-.92-.06-.02-.12-.02-.18-.02-.24,0-.43.15-.56.45-.16.37-.25.87-.28,1.51,0,.15-.01.3-.01.44,0,.44.04.82.12,1.13.1.41.38.61.84.61.46,0,.69-.42.69-1.25l1.03.23c-.07.81-.31,1.38-.7,1.71-.31.26-.69.4-1.14.4-.13,0-.27-.01-.42-.04-.64-.1-1.05-.58-1.22-1.46-.08-.43-.13-.89-.13-1.38,0-.51.04-1.04.13-1.61.16-1.08.72-1.63,1.67-1.63h.08c1,.03,1.54.55,1.62,1.57Z"/>
        <path class="cls-1" d="M625.6,10.63c0-2.34-.04-4.36-.09-6.06.38-.03.73-.05,1.04-.05.93,0,1.55.15,1.87.45.37.36.56.84.56,1.44,0,.08,0,.17,0,.25-.06.73-.35,1.19-.87,1.38.3.73.59,1.57.86,2.52l-1,.35c-.24-.98-.49-1.78-.75-2.39l-.6.12v2.02s-1.02-.02-1.02-.02ZM626.5,7.69h.08c.59,0,.98-.13,1.17-.37.16-.21.24-.47.23-.77,0-.07,0-.14-.01-.22-.05-.4-.2-.66-.47-.76-.15-.06-.32-.09-.51-.09-.15,0-.32.02-.5.06l.02,2.15Z"/>
        <path class="cls-1" d="M633.17,7.15c0,.14,0,.28,0,.42,0,1.49-.18,2.39-.54,2.69-.32.26-.73.39-1.22.39-.12,0-.25,0-.38-.02-.67-.08-1.1-.55-1.28-1.42-.09-.43-.14-.9-.14-1.4,0-.5.04-1.03.13-1.59.18-1.12.78-1.68,1.81-1.68h.02c1.03,0,1.57.87,1.61,2.61ZM631.49,5.61h0c-.5,0-.8.38-.89,1.14-.05.38-.07.74-.07,1.07,0,.34.03.65.07.94.09.58.3.9.63.96.06.01.13.02.19.02.24,0,.44-.09.6-.28.18-.21.27-.82.27-1.83v-.26c-.02-1.17-.29-1.76-.8-1.76Z"/>
        <path class="cls-1" d="M633.8,8.29l.97-.25c0,.61.1.98.3,1.12.16.11.33.17.51.16.04,0,.09,0,.14-.01.23-.03.39-.13.48-.28.06-.1.09-.23.09-.38,0-.09,0-.18-.03-.29-.05-.29-.25-.51-.58-.65-.33-.15-.65-.3-.93-.44s-.49-.37-.61-.65c-.09-.22-.14-.47-.14-.73,0-.08,0-.16.01-.24.03-.35.21-.68.53-.96.3-.27.66-.4,1.07-.41h.08c.44.02.8.17,1.08.45.28.28.43.8.46,1.57l-.91.22c-.04-.63-.15-1.01-.34-1.13-.12-.08-.24-.12-.37-.12-.07,0-.15.01-.22.04-.2.07-.34.21-.41.42-.03.07-.04.15-.04.22,0,.13.04.25.13.37.13.19.5.41,1.12.65.61.24.97.54,1.08.89.06.22.1.43.1.64,0,.13-.01.27-.04.4-.07.34-.18.63-.35.86-.17.23-.43.41-.78.53-.22.08-.44.12-.66.12-.13,0-.26-.01-.39-.04-.35-.07-.66-.25-.92-.55-.26-.3-.4-.81-.42-1.54Z"/>
        <path class="cls-1" d="M637.97,8.28l.97-.25c0,.61.1.98.3,1.12.16.11.33.17.51.16.04,0,.09,0,.14-.01.23-.03.39-.13.48-.28.06-.1.09-.23.09-.38,0-.09,0-.18-.03-.29-.05-.29-.25-.51-.58-.65-.33-.15-.64-.3-.93-.44-.29-.15-.49-.37-.61-.65-.09-.22-.14-.47-.14-.73,0-.08,0-.16.01-.24.03-.35.21-.68.53-.96.3-.27.66-.4,1.07-.41h.08c.44.02.8.17,1.08.45.28.28.43.8.46,1.57l-.91.22c-.04-.63-.15-1.01-.34-1.13-.12-.08-.24-.12-.37-.12-.07,0-.15.01-.22.04-.2.07-.34.21-.41.42-.03.07-.04.15-.04.22,0,.13.04.25.13.37.13.19.5.41,1.12.65.61.24.97.54,1.08.89.06.22.1.43.1.64,0,.13-.01.27-.04.4-.07.34-.18.63-.35.86-.17.23-.43.41-.78.53-.22.08-.44.12-.66.12-.13,0-.26-.01-.39-.04-.35-.07-.66-.25-.92-.55-.26-.3-.4-.81-.42-1.54Z"/>
      </g>
      <g>
        <path class="cls-1" d="M539.66,10.82c-.03-2.13-.06-4.2-.09-6.2.41-.03.76-.04,1.06-.04.37,0,.66.02.87.06.37.08.69.27.96.59s.46.76.58,1.33c.08.38.11.79.12,1.21,0,.2,0,.42-.02.63-.05.67-.33,1.25-.82,1.77-.43.44-1.14.67-2.15.67-.16,0-.32,0-.49-.02ZM541.73,9.26c.26-.34.4-.75.43-1.22,0-.12.01-.25.01-.37,0-.33-.03-.63-.09-.9-.09-.37-.29-.65-.61-.84-.27-.15-.53-.23-.78-.23-.06,0-.11,0-.17.01.02,1.35.04,2.71.05,4.09.52-.02.9-.2,1.16-.54Z"/>
        <path class="cls-1" d="M547.34,7.4c0,.14,0,.28,0,.42,0,1.49-.18,2.39-.54,2.69-.32.26-.73.39-1.22.39-.12,0-.25,0-.38-.02-.67-.08-1.1-.55-1.28-1.42-.09-.43-.14-.9-.14-1.4,0-.5.04-1.03.13-1.59.18-1.12.78-1.68,1.81-1.68h.02c1.03,0,1.57.87,1.61,2.61ZM545.66,5.87h0c-.5,0-.8.38-.89,1.14-.05.38-.07.74-.07,1.07,0,.34.03.65.07.94.09.58.3.9.63.96.06.01.13.02.19.02.24,0,.44-.09.6-.28.18-.21.27-.82.27-1.83v-.26c-.02-1.17-.29-1.76-.8-1.76Z"/>
        <path class="cls-1" d="M549.35,4.61l1.21-.08c.53,1.54,1.05,2.93,1.57,4.2-.02-.53-.08-1.96-.17-4.28h.98c0,.33,0,.7,0,1.09,0,1.32.04,3.01.12,5.06l-1.25-.08c-.38-.96-.92-2.37-1.61-4.23.04.81.07,1.91.07,3.3,0,.31,0,.63,0,.97h-.78c-.03-1.93-.08-3.92-.13-5.97Z"/>
        <path class="cls-1" d="M557.24,7.37c0,.14,0,.28,0,.42,0,1.49-.18,2.39-.54,2.69-.32.26-.73.39-1.22.39-.12,0-.25,0-.38-.02-.67-.08-1.1-.55-1.28-1.42-.09-.43-.14-.9-.14-1.4,0-.5.04-1.03.13-1.59.18-1.12.78-1.68,1.81-1.68h.02c1.03,0,1.57.87,1.61,2.61ZM555.56,5.84h0c-.5,0-.8.38-.89,1.14-.05.38-.07.74-.07,1.07,0,.34.03.65.07.94.09.58.3.9.63.96.06.01.13.02.19.02.24,0,.44-.09.6-.28.18-.21.27-.82.27-1.83v-.26c-.02-1.17-.29-1.76-.8-1.76Z"/>
        <path class="cls-1" d="M557.86,5.59c.03-.24.04-.48.04-.72,0-.06,0-.12,0-.18.93.04,1.72.07,2.36.06.32,0,.61,0,.87-.02.02.42.04.72.04.91l-1.11.02c0,.44,0,.88,0,1.3,0,1.37.02,2.62.05,3.76l-1.11-.02c.08-1.17.12-2.5.11-3.99,0-.32,0-.65,0-.99v-.04s-1.25-.08-1.25-.08Z"/>
        <path class="cls-1" d="M566.69,6.36l-.94.27c-.06-.53-.26-.84-.59-.93-.06-.02-.12-.02-.18-.02-.24,0-.43.15-.56.45-.16.37-.25.87-.28,1.51,0,.15-.01.3-.01.44,0,.44.04.82.12,1.13.1.41.38.61.84.61.46,0,.69-.42.69-1.25l1.03.23c-.07.81-.31,1.38-.7,1.71-.31.26-.69.4-1.14.4-.13,0-.27-.01-.42-.04-.64-.1-1.05-.58-1.22-1.46-.08-.43-.13-.89-.13-1.38,0-.51.04-1.04.13-1.61.16-1.08.72-1.63,1.67-1.63h.08c1,.03,1.54.55,1.62,1.57Z"/>
        <path class="cls-1" d="M567.5,10.8c0-2.34-.04-4.36-.09-6.06.38-.03.73-.05,1.04-.05.93,0,1.55.15,1.87.45.37.36.56.84.56,1.44,0,.08,0,.17,0,.25-.06.73-.35,1.19-.87,1.38.3.73.59,1.57.86,2.52l-1,.35c-.24-.98-.49-1.78-.75-2.39l-.6.12v2.02s-1.02-.02-1.02-.02ZM568.4,7.87h.08c.59,0,.98-.13,1.17-.37.16-.21.24-.47.23-.77,0-.07,0-.14-.01-.22-.05-.4-.2-.66-.47-.76-.15-.06-.32-.09-.51-.09-.15,0-.32.02-.5.06l.02,2.15Z"/>
        <path class="cls-1" d="M575.07,7.32c0,.14,0,.28,0,.42,0,1.49-.18,2.39-.54,2.69-.32.26-.73.39-1.22.39-.12,0-.25,0-.38-.02-.67-.08-1.1-.55-1.28-1.42-.09-.43-.14-.9-.14-1.4,0-.5.04-1.03.13-1.59.18-1.12.78-1.68,1.81-1.68h.02c1.03,0,1.57.87,1.61,2.61ZM573.39,5.79h0c-.5,0-.8.38-.89,1.14-.05.38-.07.74-.07,1.07,0,.34.03.65.07.94.09.58.3.9.63.96.06.01.13.02.19.02.24,0,.44-.09.6-.28.18-.21.27-.82.27-1.83v-.26c-.02-1.17-.29-1.76-.8-1.76Z"/>
        <path class="cls-1" d="M575.7,8.47l.97-.25c0,.61.1.98.3,1.12.16.11.33.17.51.16.04,0,.09,0,.14-.01.23-.03.39-.13.48-.28.06-.1.09-.23.09-.38,0-.09,0-.18-.03-.29-.05-.29-.25-.51-.58-.65-.33-.15-.64-.3-.93-.44-.29-.15-.49-.37-.61-.65-.09-.22-.14-.47-.14-.73,0-.08,0-.16.01-.24.03-.35.21-.68.53-.96.3-.27.66-.41,1.07-.41h.08c.44.02.8.17,1.08.45.28.28.43.8.46,1.57l-.91.22c-.04-.63-.15-1.01-.34-1.13-.12-.08-.24-.12-.37-.12-.07,0-.15.01-.22.04-.2.07-.34.21-.41.42-.03.07-.04.15-.04.22,0,.13.04.25.13.37.13.19.5.41,1.12.65s.97.54,1.08.89c.06.22.1.43.1.64,0,.13-.01.27-.04.4-.07.34-.18.63-.35.86-.17.23-.43.41-.78.53-.22.08-.44.12-.66.12-.13,0-.26-.01-.39-.04-.35-.07-.66-.25-.92-.55-.26-.3-.4-.81-.42-1.54Z"/>
        <path class="cls-1" d="M579.88,8.46l.97-.25c0,.61.1.98.3,1.12.16.11.33.17.51.16.04,0,.09,0,.14-.01.23-.03.39-.13.48-.28.06-.1.09-.23.09-.38,0-.09,0-.18-.03-.29-.05-.29-.25-.51-.58-.65s-.64-.3-.93-.44c-.29-.15-.49-.37-.61-.65-.09-.22-.14-.47-.14-.73,0-.08,0-.16.01-.24.03-.35.21-.68.53-.96.3-.27.66-.41,1.07-.41h.08c.44.02.8.17,1.08.45s.43.8.46,1.57l-.91.22c-.04-.63-.15-1.01-.34-1.13-.12-.08-.24-.12-.37-.12-.07,0-.15.01-.22.04-.2.07-.34.21-.41.42-.03.07-.04.15-.04.22,0,.13.04.25.13.37.13.19.5.41,1.12.65.61.24.97.54,1.08.89.06.22.1.43.1.64,0,.13-.01.27-.04.4-.07.34-.18.63-.35.86-.17.23-.43.41-.78.53-.22.08-.44.12-.66.12-.13,0-.26-.01-.39-.04-.35-.07-.66-.25-.92-.55-.26-.3-.4-.81-.42-1.54Z"/>
      </g>
      <g>
        <path class="cls-1" d="M659.7,10.47c-.03-2.13-.06-4.2-.09-6.2.41-.03.76-.04,1.06-.04.37,0,.66.02.87.06.37.08.69.27.96.59.27.32.46.76.58,1.33.08.38.11.79.12,1.21,0,.2,0,.42-.02.63-.05.67-.33,1.25-.82,1.77-.43.44-1.15.67-2.15.67-.16,0-.32,0-.49-.02ZM661.78,8.9c.26-.34.4-.75.43-1.22,0-.12.01-.25.01-.37,0-.33-.03-.63-.09-.9-.09-.37-.29-.65-.61-.84-.27-.15-.53-.23-.78-.23-.06,0-.11,0-.17.01.02,1.35.04,2.71.05,4.09.52-.02.9-.2,1.16-.54Z"/>
        <path class="cls-1" d="M667.38,7.04c0,.14,0,.28,0,.42,0,1.49-.18,2.39-.54,2.69-.32.26-.73.39-1.22.39-.12,0-.25,0-.38-.02-.67-.08-1.1-.55-1.28-1.42-.09-.43-.14-.9-.14-1.4,0-.5.04-1.03.13-1.59.18-1.12.78-1.68,1.81-1.68h.02c1.03,0,1.57.87,1.61,2.61ZM665.71,5.51h0c-.5,0-.8.38-.89,1.14-.05.38-.07.74-.07,1.07,0,.34.03.65.07.94.09.58.3.9.63.96.06.01.13.02.19.02.24,0,.44-.09.6-.28.18-.21.27-.82.27-1.83v-.26c-.02-1.17-.29-1.76-.8-1.76Z"/>
        <path class="cls-1" d="M669.4,4.25l1.21-.08c.53,1.54,1.05,2.93,1.57,4.2-.02-.53-.08-1.96-.17-4.28h.98c0,.33,0,.7,0,1.09,0,1.32.04,3.01.12,5.06l-1.25-.08c-.38-.96-.92-2.37-1.61-4.23.04.81.07,1.91.07,3.3,0,.31,0,.63,0,.97h-.78c-.03-1.93-.08-3.92-.13-5.97Z"/>
        <path class="cls-1" d="M677.29,7.01c0,.14,0,.28,0,.42,0,1.49-.18,2.39-.54,2.69-.32.26-.73.39-1.22.39-.12,0-.25,0-.38-.02-.67-.08-1.1-.55-1.28-1.42-.09-.43-.14-.9-.14-1.4,0-.5.04-1.03.13-1.59.18-1.12.78-1.68,1.81-1.68h.02c1.03,0,1.57.87,1.61,2.61ZM675.61,5.48h0c-.5,0-.8.38-.89,1.14-.05.38-.07.74-.07,1.07,0,.34.03.65.07.94.09.58.3.9.63.96.06.01.13.02.19.02.24,0,.44-.09.6-.28.18-.21.27-.82.27-1.83v-.26c-.02-1.17-.29-1.76-.8-1.76Z"/>
        <path class="cls-1" d="M677.91,5.23c.03-.24.04-.48.04-.72,0-.06,0-.12,0-.18.93.04,1.72.07,2.36.06.32,0,.61,0,.87-.02.02.42.04.72.04.91l-1.11.02c0,.44,0,.88,0,1.3,0,1.37.02,2.62.05,3.76l-1.11-.02c.08-1.17.12-2.5.11-3.99,0-.32,0-.65,0-.99v-.04s-1.25-.08-1.25-.08Z"/>
        <path class="cls-1" d="M686.74,6l-.94.27c-.06-.53-.26-.84-.59-.92-.06-.02-.12-.02-.18-.02-.24,0-.43.15-.56.45-.16.37-.25.87-.28,1.51,0,.15-.01.3-.01.44,0,.44.04.82.12,1.13.1.41.38.61.84.61.46,0,.69-.42.69-1.25l1.03.23c-.07.81-.31,1.38-.7,1.71-.31.26-.69.4-1.14.4-.13,0-.27-.01-.42-.04-.64-.1-1.05-.58-1.22-1.46-.08-.43-.13-.89-.13-1.38,0-.51.04-1.04.13-1.61.16-1.08.72-1.63,1.67-1.63h.08c1,.03,1.54.55,1.62,1.57Z"/>
        <path class="cls-1" d="M687.55,10.44c0-2.34-.04-4.36-.09-6.06.38-.03.73-.05,1.04-.05.93,0,1.55.15,1.87.45.37.36.56.84.56,1.44,0,.08,0,.17,0,.25-.06.73-.35,1.19-.87,1.38.3.73.59,1.57.86,2.52l-1,.35c-.24-.98-.49-1.78-.75-2.39l-.6.12v2.02s-1.02-.02-1.02-.02ZM688.45,7.51h.08c.59,0,.98-.13,1.17-.37.16-.21.24-.47.23-.77,0-.07,0-.14-.01-.22-.05-.4-.2-.66-.47-.76-.15-.06-.32-.09-.51-.09-.15,0-.32.02-.5.06l.02,2.15Z"/>
        <path class="cls-1" d="M695.12,6.96c0,.14,0,.28,0,.42,0,1.49-.18,2.39-.54,2.69-.32.26-.73.39-1.22.39-.12,0-.25,0-.38-.02-.67-.08-1.1-.55-1.28-1.42-.09-.43-.14-.9-.14-1.4,0-.5.04-1.03.13-1.59.18-1.12.78-1.68,1.81-1.68h.02c1.03,0,1.57.87,1.61,2.61ZM693.44,5.43h0c-.5,0-.8.38-.89,1.14-.05.38-.07.74-.07,1.07,0,.34.03.65.07.94.09.58.3.9.63.96.06.01.13.02.19.02.24,0,.44-.09.6-.28.18-.21.27-.82.27-1.83v-.26c-.02-1.17-.29-1.76-.8-1.76Z"/>
        <path class="cls-1" d="M695.75,8.11l.97-.25c0,.61.1.98.3,1.12.16.11.33.17.51.16.04,0,.09,0,.14-.01.23-.03.39-.13.48-.28.06-.1.09-.23.09-.38,0-.09,0-.18-.03-.29-.05-.29-.25-.51-.58-.65-.33-.15-.64-.3-.93-.44-.29-.15-.49-.37-.61-.65-.09-.22-.14-.47-.14-.73,0-.08,0-.16.01-.24.03-.35.21-.68.53-.96.3-.27.66-.41,1.07-.41h.08c.44.02.8.17,1.08.45s.43.8.46,1.57l-.91.22c-.04-.63-.15-1.01-.34-1.13-.12-.08-.24-.12-.37-.12-.07,0-.15.01-.22.04-.2.07-.34.21-.41.42-.03.07-.04.15-.04.22,0,.13.04.25.13.37.13.19.5.41,1.12.65.61.24.97.54,1.08.89.06.22.1.43.1.64,0,.13-.01.27-.04.4-.07.34-.18.63-.35.86-.17.23-.43.41-.78.53-.22.08-.44.12-.66.12-.13,0-.26-.01-.39-.04-.35-.07-.66-.25-.92-.55s-.4-.81-.42-1.54Z"/>
        <path class="cls-1" d="M699.92,8.1l.97-.25c0,.61.1.98.3,1.12.16.11.33.17.51.16.04,0,.09,0,.14-.01.23-.03.39-.13.48-.28.06-.1.09-.23.09-.38,0-.09,0-.18-.03-.29-.05-.29-.25-.51-.58-.65s-.64-.3-.93-.44c-.29-.15-.49-.37-.61-.65-.09-.22-.14-.47-.14-.73,0-.08,0-.16.01-.24.03-.35.21-.68.53-.96.3-.27.66-.41,1.07-.41h.08c.44.02.8.17,1.08.45s.43.8.46,1.57l-.91.22c-.04-.63-.15-1.01-.34-1.13-.12-.08-.24-.12-.37-.12-.07,0-.15.01-.22.04-.2.07-.34.21-.41.42-.03.07-.04.15-.04.22,0,.13.04.25.13.37.13.19.5.41,1.12.65s.97.54,1.08.89c.06.22.1.43.1.64,0,.13-.01.27-.04.4-.07.34-.18.63-.35.86-.17.23-.43.41-.78.53-.22.08-.44.12-.66.12-.13,0-.26-.01-.39-.04-.35-.07-.66-.25-.92-.55s-.4-.81-.42-1.54Z"/>
      </g>
      <path class="cls-1" d="M591.92,7.46c0,.55-.44.99-.99.99s-.99-.44-.99-.99c0-.55.44-.99.99-.99.55,0,.99.44.99.99Z"/>
      <path class="cls-1" d="M651.21,7.28c0,.55-.44.99-.99.99-.55,0-.99-.44-.99-.99,0-.55.44-.99.99-.99s.99.44.99.99Z"/>
    </g>
  </g>
  <g>
    <g>
      <g>
        <g>
          <rect class="cls-2" x="0" y=".07" width="59.2" height="15.24"/>
          <g>
            <polygon class="cls-1" points="54.41 13.69 52.88 15.32 57.82 15.32 59.2 13.85 59.2 13.69 54.41 13.69"/>
            <polygon class="cls-1" points="57.33 .08 55.8 1.71 59.21 1.71 59.21 .08 57.33 .08"/>
            <polygon class="cls-1" points="43.02 15.31 47.95 15.32 49.48 13.69 44.55 13.69 43.02 15.31"/>
            <polygon class="cls-1" points="45.94 1.7 50.87 1.7 52.4 .08 47.47 .07 45.94 1.7"/>
            <polygon class="cls-1" points="33.15 15.31 38.08 15.31 39.61 13.68 34.68 13.68 33.15 15.31"/>
            <polygon class="cls-1" points="6.47 1.69 11.4 1.69 12.93 .06 8 .06 6.47 1.69"/>
            <polygon class="cls-1" points="0 13.82 .14 13.67 0 13.67 0 13.82"/>
            <polygon class="cls-1" points="3.55 15.3 8.48 15.3 10.01 13.67 5.08 13.67 3.55 15.3"/>
            <polygon class="cls-1" points="16.34 1.69 21.27 1.69 22.8 .06 17.86 .06 16.34 1.69"/>
            <polygon class="cls-1" points="0 1.68 1.53 1.68 3.06 .06 0 .05 0 1.68"/>
            <polygon class="cls-1" points="36.07 1.7 41 1.7 42.53 .07 37.6 .07 36.07 1.7"/>
            <polygon class="cls-1" points="23.28 15.31 28.22 15.31 29.75 13.68 24.81 13.68 23.28 15.31"/>
            <polygon class="cls-1" points="26.2 1.69 31.14 1.7 32.67 .07 27.73 .07 26.2 1.69"/>
            <polygon class="cls-1" points="13.42 15.3 18.35 15.3 19.88 13.68 14.95 13.67 13.42 15.3"/>
          </g>
        </g>
        <g>
          <rect class="cls-2" x="59.2" y=".09" width="59.2" height="15.24"/>
          <g>
            <polygon class="cls-1" points="113.61 13.71 112.09 15.34 117.02 15.34 118.4 13.87 118.4 13.72 113.61 13.71"/>
            <polygon class="cls-1" points="116.53 .1 115 1.73 118.41 1.73 118.41 .1 116.53 .1"/>
            <polygon class="cls-1" points="102.22 15.34 107.15 15.34 108.68 13.71 103.75 13.71 102.22 15.34"/>
            <polygon class="cls-1" points="105.14 1.72 110.07 1.73 111.6 .1 106.67 .1 105.14 1.72"/>
            <polygon class="cls-1" points="92.35 15.33 97.28 15.34 98.81 13.71 93.88 13.71 92.35 15.33"/>
            <polygon class="cls-1" points="65.67 1.71 70.6 1.71 72.13 .08 67.2 .08 65.67 1.71"/>
            <polygon class="cls-1" points="59.2 13.85 59.35 13.69 59.2 13.69 59.2 13.85"/>
            <polygon class="cls-1" points="62.75 15.32 67.68 15.32 69.21 13.7 64.28 13.69 62.75 15.32"/>
            <polygon class="cls-1" points="75.54 1.71 80.47 1.71 82 .09 77.07 .08 75.54 1.71"/>
            <polygon class="cls-1" points="59.21 1.71 60.74 1.71 62.26 .08 59.21 .08 59.21 1.71"/>
            <polygon class="cls-1" points="95.27 1.72 100.2 1.72 101.73 .09 96.8 .09 95.27 1.72"/>
            <polygon class="cls-1" points="82.48 15.33 87.42 15.33 88.95 13.7 84.01 13.7 82.48 15.33"/>
            <polygon class="cls-1" points="85.4 1.72 90.34 1.72 91.87 .09 86.93 .09 85.4 1.72"/>
            <polygon class="cls-1" points="72.62 15.33 77.55 15.33 79.08 13.7 74.15 13.7 72.62 15.33"/>
          </g>
        </g>
        <g>
          <rect class="cls-2" x="118.4" y=".11" width="59.2" height="15.24"/>
          <g>
            <polygon class="cls-1" points="172.82 13.74 171.29 15.36 176.22 15.37 177.6 13.89 177.6 13.74 172.82 13.74"/>
            <polygon class="cls-1" points="175.73 .12 174.21 1.75 177.61 1.75 177.61 .12 175.73 .12"/>
            <polygon class="cls-1" points="161.42 15.36 166.35 15.36 167.88 13.73 162.95 13.73 161.42 15.36"/>
            <polygon class="cls-1" points="164.34 1.75 169.27 1.75 170.8 .12 165.87 .12 164.34 1.75"/>
            <polygon class="cls-1" points="151.55 15.36 156.49 15.36 158.02 13.73 153.08 13.73 151.55 15.36"/>
            <polygon class="cls-1" points="124.87 1.73 129.8 1.73 131.33 .11 126.4 .1 124.87 1.73"/>
            <polygon class="cls-1" points="118.4 13.87 118.55 13.72 118.4 13.72 118.4 13.87"/>
            <polygon class="cls-1" points="121.95 15.35 126.88 15.35 128.41 13.72 123.48 13.72 121.95 15.35"/>
            <polygon class="cls-1" points="134.74 1.74 139.67 1.74 141.2 .11 136.27 .11 134.74 1.74"/>
            <polygon class="cls-1" points="118.41 1.73 119.94 1.73 121.47 .1 118.41 .1 118.41 1.73"/>
            <polygon class="cls-1" points="154.47 1.74 159.4 1.75 160.93 .12 156 .12 154.47 1.74"/>
            <polygon class="cls-1" points="141.68 15.35 146.62 15.36 148.15 13.73 143.21 13.73 141.68 15.35"/>
            <polygon class="cls-1" points="144.6 1.74 149.54 1.74 151.07 .11 146.13 .11 144.6 1.74"/>
            <polygon class="cls-1" points="131.82 15.35 136.75 15.35 138.28 13.72 133.35 13.72 131.82 15.35"/>
          </g>
        </g>
      </g>
      <g>
        <path class="cls-1" d="M66.26,10.71c-.03-2.13-.06-4.2-.09-6.2.41-.03.76-.04,1.06-.04.37,0,.66.02.87.06.37.08.69.27.96.59.27.32.46.76.58,1.33.08.38.11.79.12,1.21,0,.2,0,.42-.02.63-.05.67-.33,1.25-.82,1.77-.43.44-1.14.67-2.15.67-.16,0-.32,0-.49-.02ZM68.34,9.14c.26-.34.4-.75.43-1.22,0-.12.01-.25.01-.37,0-.33-.03-.63-.09-.9-.09-.37-.29-.65-.61-.84-.27-.15-.53-.23-.78-.23-.06,0-.11,0-.17.01.02,1.35.04,2.71.05,4.09.52-.02.9-.2,1.16-.54Z"/>
        <path class="cls-1" d="M73.95,7.28c0,.14,0,.28,0,.42,0,1.49-.18,2.39-.54,2.69-.32.26-.73.39-1.22.39-.12,0-.25,0-.38-.02-.67-.08-1.1-.55-1.28-1.42-.09-.43-.14-.9-.14-1.4,0-.5.04-1.03.13-1.59.18-1.12.78-1.68,1.81-1.68h.02c1.03,0,1.57.87,1.61,2.61ZM72.27,5.75h0c-.5,0-.8.38-.89,1.14-.05.38-.07.74-.07,1.07,0,.34.03.65.07.94.09.58.3.9.63.96.06.01.13.02.19.02.24,0,.44-.09.6-.28.18-.21.27-.82.27-1.83v-.26c-.02-1.17-.29-1.76-.8-1.76Z"/>
        <path class="cls-1" d="M75.96,4.49l1.21-.08c.53,1.54,1.05,2.93,1.57,4.2-.02-.53-.08-1.96-.17-4.28h.98c0,.33,0,.7,0,1.09,0,1.32.04,3.01.12,5.06l-1.25-.08c-.38-.96-.92-2.37-1.61-4.23.04.81.07,1.91.07,3.3,0,.31,0,.63,0,.97h-.78c-.03-1.93-.08-3.92-.13-5.97Z"/>
        <path class="cls-1" d="M83.85,7.25c0,.14,0,.28,0,.42,0,1.49-.18,2.39-.54,2.69-.32.26-.73.39-1.22.39-.12,0-.25,0-.38-.02-.67-.08-1.1-.55-1.28-1.42-.09-.43-.14-.9-.14-1.4,0-.5.04-1.03.13-1.59.18-1.12.78-1.68,1.81-1.68h.02c1.03,0,1.57.87,1.61,2.61ZM82.17,5.72h0c-.5,0-.8.38-.89,1.14-.05.38-.07.74-.07,1.07,0,.34.03.65.07.94.09.58.3.9.63.96.06.01.13.02.19.02.24,0,.44-.09.6-.28.18-.21.27-.82.27-1.83v-.26c-.02-1.17-.29-1.76-.8-1.76Z"/>
        <path class="cls-1" d="M84.47,5.47c.03-.24.04-.48.04-.72,0-.06,0-.12,0-.18.93.04,1.72.07,2.36.06.32,0,.61,0,.87-.02.02.42.04.72.04.91l-1.11.02c0,.44,0,.88,0,1.3,0,1.37.02,2.62.05,3.76l-1.11-.02c.08-1.17.12-2.5.11-3.99,0-.32,0-.65,0-.99v-.04s-1.25-.08-1.25-.08Z"/>
        <path class="cls-1" d="M93.3,6.24l-.94.27c-.06-.53-.26-.84-.59-.92-.06-.02-.12-.02-.18-.02-.24,0-.43.15-.56.45-.16.37-.25.87-.28,1.51,0,.15-.01.3-.01.44,0,.44.04.82.12,1.13.1.41.38.61.84.61.46,0,.69-.42.69-1.25l1.03.23c-.07.81-.31,1.38-.7,1.71-.31.26-.69.4-1.14.4-.13,0-.27-.01-.42-.04-.64-.1-1.05-.58-1.22-1.46-.08-.43-.13-.89-.13-1.38,0-.51.04-1.04.13-1.61.16-1.08.72-1.63,1.67-1.63h.08c1,.03,1.54.55,1.62,1.57Z"/>
        <path class="cls-1" d="M94.11,10.68c0-2.34-.04-4.36-.09-6.06.38-.03.73-.05,1.04-.05.93,0,1.55.15,1.87.45.37.36.56.84.56,1.44,0,.08,0,.17,0,.25-.06.73-.35,1.19-.87,1.38.3.73.59,1.57.86,2.52l-1,.35c-.24-.98-.49-1.78-.75-2.39l-.6.12v2.02s-1.02-.02-1.02-.02ZM95.01,7.75h.08c.59,0,.98-.13,1.17-.37.16-.21.24-.47.23-.77,0-.07,0-.14-.01-.22-.05-.4-.2-.66-.47-.76-.15-.06-.32-.09-.51-.09-.15,0-.32.02-.5.06l.02,2.15Z"/>
        <path class="cls-1" d="M101.68,7.2c0,.14,0,.28,0,.42,0,1.49-.18,2.39-.54,2.69-.32.26-.73.39-1.22.39-.12,0-.25,0-.38-.02-.67-.08-1.1-.55-1.28-1.42-.09-.43-.14-.9-.14-1.4,0-.5.04-1.03.13-1.59.18-1.12.78-1.68,1.81-1.68h.02c1.03,0,1.57.87,1.61,2.61ZM100,5.67h0c-.5,0-.8.38-.89,1.14-.05.38-.07.74-.07,1.07,0,.34.03.65.07.94.09.58.3.9.63.96.06.01.13.02.19.02.24,0,.44-.09.6-.28.18-.21.27-.82.27-1.83v-.26c-.02-1.17-.29-1.76-.8-1.76Z"/>
        <path class="cls-1" d="M102.31,8.35l.97-.25c0,.61.1.98.3,1.12.16.11.33.17.51.16.04,0,.09,0,.14-.01.23-.03.39-.13.48-.28.06-.1.09-.23.09-.38,0-.09,0-.18-.03-.29-.05-.29-.25-.51-.58-.65-.33-.15-.64-.3-.93-.44-.29-.15-.49-.37-.61-.65-.09-.22-.14-.47-.14-.73,0-.08,0-.16.01-.24.03-.35.21-.68.53-.96.3-.27.66-.41,1.07-.41h.08c.44.02.8.17,1.08.45.28.28.43.8.46,1.57l-.91.22c-.04-.63-.15-1.01-.34-1.13-.12-.08-.24-.12-.37-.12-.07,0-.15.01-.22.04-.2.07-.34.21-.41.42-.03.07-.04.15-.04.22,0,.13.04.25.13.37.13.19.5.41,1.12.65s.97.54,1.08.89c.06.22.1.43.1.64,0,.13-.01.27-.04.4-.07.34-.18.63-.35.86-.17.23-.43.41-.78.53-.22.08-.44.12-.66.12-.13,0-.26-.01-.39-.04-.35-.07-.66-.25-.92-.55s-.4-.81-.42-1.54Z"/>
        <path class="cls-1" d="M106.48,8.34l.97-.25c0,.61.1.98.3,1.12.16.11.33.17.51.16.04,0,.09,0,.14-.01.23-.03.39-.13.48-.28.06-.1.09-.23.09-.38,0-.09,0-.18-.03-.29-.05-.29-.25-.51-.58-.65s-.64-.3-.93-.44c-.29-.15-.49-.37-.61-.65-.09-.22-.14-.47-.14-.73,0-.08,0-.16.01-.24.03-.35.21-.68.53-.96.3-.27.66-.41,1.07-.41h.08c.44.02.8.17,1.08.45s.43.8.46,1.57l-.91.22c-.04-.63-.15-1.01-.34-1.13-.12-.08-.24-.12-.37-.12-.07,0-.15.01-.22.04-.2.07-.34.21-.41.42-.03.07-.04.15-.04.22,0,.13.04.25.13.37.13.19.5.41,1.12.65s.97.54,1.08.89c.06.22.1.43.1.64,0,.13-.01.27-.04.4-.07.34-.18.63-.35.86-.17.23-.43.41-.78.53-.22.08-.44.12-.66.12-.13,0-.26-.01-.39-.04-.35-.07-.66-.25-.92-.55s-.4-.81-.42-1.54Z"/>
      </g>
      <g>
        <path class="cls-1" d="M8.17,10.88c-.03-2.13-.06-4.2-.09-6.2.41-.03.76-.04,1.06-.04.37,0,.66.02.87.06.37.08.69.27.96.59.27.32.46.76.58,1.33.08.38.11.79.12,1.21,0,.21,0,.42-.02.63-.05.67-.33,1.25-.82,1.77-.43.44-1.15.67-2.15.67-.16,0-.32,0-.49-.02ZM10.24,9.31c.26-.34.4-.75.43-1.22,0-.12.01-.25.01-.37,0-.33-.03-.63-.09-.9-.09-.37-.29-.65-.61-.84-.27-.15-.53-.23-.78-.23-.06,0-.11,0-.17.01.02,1.35.04,2.71.05,4.09.52-.02.9-.2,1.16-.54Z"/>
        <path class="cls-1" d="M15.85,7.46c0,.14,0,.28,0,.42,0,1.49-.18,2.39-.54,2.69-.32.26-.73.39-1.22.39-.12,0-.25,0-.38-.02-.67-.08-1.1-.55-1.28-1.42-.09-.43-.14-.9-.14-1.4,0-.5.04-1.03.13-1.59.18-1.12.78-1.68,1.81-1.68h.02c1.03,0,1.57.87,1.61,2.61ZM14.17,5.92h0c-.5,0-.8.38-.89,1.14-.05.38-.07.74-.07,1.07,0,.34.03.65.07.94.09.58.3.9.63.96.06.01.13.02.19.02.24,0,.44-.09.6-.28.18-.21.27-.82.27-1.83v-.26c-.02-1.17-.29-1.76-.8-1.76Z"/>
        <path class="cls-1" d="M17.86,4.67l1.21-.08c.53,1.54,1.05,2.93,1.57,4.2-.02-.53-.08-1.96-.17-4.28h.98c0,.33,0,.7,0,1.09,0,1.32.04,3.01.12,5.06l-1.25-.08c-.38-.96-.92-2.37-1.61-4.23.04.81.07,1.91.07,3.3,0,.31,0,.63,0,.97h-.78c-.03-1.93-.08-3.92-.13-5.97Z"/>
        <path class="cls-1" d="M25.75,7.43c0,.14,0,.28,0,.42,0,1.49-.18,2.39-.54,2.69-.32.26-.73.39-1.22.39-.12,0-.25,0-.38-.02-.67-.08-1.1-.55-1.28-1.42-.09-.43-.14-.9-.14-1.4,0-.5.04-1.03.13-1.59.18-1.12.78-1.68,1.81-1.68h.02c1.03,0,1.57.87,1.61,2.61ZM24.07,5.89h0c-.5,0-.8.38-.89,1.14-.05.38-.07.74-.07,1.07,0,.34.03.65.07.94.09.58.3.9.63.96.06.01.13.02.19.02.24,0,.44-.09.6-.28.18-.21.27-.82.27-1.83v-.26c-.02-1.17-.29-1.76-.8-1.76Z"/>
        <path class="cls-1" d="M26.37,5.65c.03-.24.04-.48.04-.72,0-.06,0-.12,0-.18.93.04,1.72.07,2.36.06.32,0,.61,0,.87-.02.02.42.04.72.04.91l-1.11.02c0,.44,0,.88,0,1.3,0,1.37.02,2.62.05,3.76l-1.11-.02c.08-1.17.12-2.5.11-3.99,0-.32,0-.65,0-.99v-.04s-1.25-.08-1.25-.08Z"/>
        <path class="cls-1" d="M35.2,6.42l-.94.27c-.06-.53-.26-.84-.59-.92-.06-.02-.12-.02-.18-.02-.24,0-.43.15-.56.45-.16.37-.25.87-.28,1.51,0,.15-.01.3-.01.44,0,.44.04.82.12,1.13.1.41.38.61.84.61.46,0,.69-.42.69-1.25l1.03.23c-.07.81-.31,1.38-.7,1.71-.31.26-.69.4-1.14.4-.13,0-.27-.01-.42-.04-.64-.1-1.05-.58-1.22-1.46-.08-.43-.13-.89-.13-1.38,0-.51.04-1.04.13-1.61.16-1.08.72-1.63,1.67-1.63h.08c1,.03,1.54.55,1.62,1.57Z"/>
        <path class="cls-1" d="M36.01,10.86c0-2.34-.04-4.36-.09-6.06.38-.03.73-.05,1.04-.05.93,0,1.55.15,1.87.45.37.36.56.84.56,1.44,0,.08,0,.17,0,.25-.06.73-.35,1.19-.87,1.38.3.73.59,1.57.86,2.52l-1,.35c-.24-.98-.49-1.78-.75-2.39l-.6.12v2.02s-1.02-.02-1.02-.02ZM36.91,7.92h.08c.59,0,.98-.13,1.17-.37.16-.21.24-.47.23-.77,0-.07,0-.14-.01-.22-.05-.4-.2-.66-.47-.76-.15-.06-.32-.09-.51-.09-.15,0-.32.02-.5.06l.02,2.15Z"/>
        <path class="cls-1" d="M43.58,7.37c0,.14,0,.28,0,.42,0,1.49-.18,2.39-.54,2.69-.32.26-.73.39-1.22.39-.12,0-.25,0-.38-.02-.67-.08-1.1-.55-1.28-1.42-.09-.43-.14-.9-.14-1.4,0-.5.04-1.03.13-1.59.18-1.12.78-1.68,1.81-1.68h.02c1.03,0,1.57.87,1.61,2.61ZM41.9,5.84h0c-.5,0-.8.38-.89,1.14-.05.38-.07.74-.07,1.07,0,.34.03.65.07.94.09.58.3.9.63.96.06.01.13.02.19.02.24,0,.44-.09.6-.28.18-.21.27-.82.27-1.83v-.26c-.02-1.17-.29-1.76-.8-1.76Z"/>
        <path class="cls-1" d="M44.21,8.52l.97-.25c0,.61.1.98.3,1.12.16.11.33.17.51.16.04,0,.09,0,.14-.01.23-.03.39-.13.48-.28.06-.1.09-.23.09-.38,0-.09,0-.18-.03-.29-.05-.29-.25-.51-.58-.65-.33-.15-.64-.3-.93-.44-.29-.15-.49-.37-.61-.65-.09-.22-.14-.47-.14-.73,0-.08,0-.16.01-.24.03-.35.21-.68.53-.96.3-.27.66-.4,1.07-.41h.08c.44.02.8.17,1.08.45.28.28.43.8.46,1.57l-.91.22c-.04-.63-.15-1.01-.34-1.13-.12-.08-.24-.12-.37-.12-.07,0-.15.01-.22.04-.2.07-.34.21-.41.42-.03.07-.04.15-.04.22,0,.13.04.25.13.37.13.19.5.41,1.12.65.61.24.97.54,1.08.89.06.22.1.43.1.64,0,.13-.01.27-.04.4-.07.34-.18.63-.35.86-.17.23-.43.41-.78.53-.22.08-.44.12-.66.12-.13,0-.26-.01-.39-.04-.35-.07-.66-.25-.92-.55-.26-.3-.4-.81-.42-1.54Z"/>
        <path class="cls-1" d="M48.39,8.51l.97-.25c0,.61.1.98.3,1.12.16.11.33.17.51.16.04,0,.09,0,.14-.01.23-.03.39-.13.48-.28.06-.1.09-.23.09-.38,0-.09,0-.18-.03-.29-.05-.29-.25-.51-.58-.65-.33-.15-.65-.3-.93-.44s-.49-.37-.61-.65c-.09-.22-.14-.47-.14-.73,0-.08,0-.16.01-.24.03-.35.21-.68.53-.96.3-.27.66-.41,1.07-.41h.08c.44.02.8.17,1.08.45.28.28.43.8.46,1.57l-.91.22c-.04-.63-.15-1.01-.34-1.13-.12-.08-.24-.12-.37-.12-.07,0-.15.01-.22.04-.2.07-.34.21-.41.42-.03.07-.04.15-.04.22,0,.13.04.25.13.37.13.19.5.41,1.12.65.61.24.97.54,1.08.89.06.22.1.43.1.64,0,.13-.01.27-.04.4-.07.34-.18.63-.35.86-.17.23-.43.41-.78.53-.22.08-.44.12-.66.12-.13,0-.26-.01-.39-.04-.35-.07-.66-.25-.92-.55-.26-.3-.4-.81-.42-1.54Z"/>
      </g>
      <g>
        <path class="cls-1" d="M128.21,10.52c-.03-2.13-.06-4.2-.09-6.2.41-.03.76-.04,1.06-.04.37,0,.66.02.87.06.37.08.69.27.96.59.27.32.46.76.58,1.33.08.38.11.79.12,1.21,0,.2,0,.42-.02.63-.05.67-.33,1.25-.82,1.77-.43.44-1.15.67-2.15.67-.16,0-.32,0-.49-.02ZM130.29,8.95c.26-.34.4-.75.43-1.22,0-.12.01-.25.01-.37,0-.33-.03-.63-.09-.9-.09-.37-.29-.65-.61-.84-.27-.15-.53-.23-.78-.23-.06,0-.11,0-.17.01.02,1.35.04,2.71.05,4.09.52-.02.9-.2,1.16-.54Z"/>
        <path class="cls-1" d="M135.9,7.1c0,.14,0,.28,0,.42,0,1.49-.18,2.39-.54,2.69-.32.26-.73.39-1.22.39-.12,0-.25,0-.38-.02-.67-.08-1.1-.55-1.28-1.42-.09-.43-.14-.9-.14-1.4,0-.5.04-1.03.13-1.59.18-1.12.78-1.68,1.81-1.68h.02c1.03,0,1.57.87,1.61,2.61ZM134.22,5.57h0c-.5,0-.8.38-.89,1.14-.05.38-.07.74-.07,1.07,0,.34.03.65.07.94.09.58.3.9.63.96.06.01.13.02.19.02.24,0,.44-.09.6-.28.18-.21.27-.82.27-1.83v-.26c-.02-1.17-.29-1.76-.8-1.76Z"/>
        <path class="cls-1" d="M137.91,4.31l1.21-.08c.53,1.54,1.05,2.93,1.57,4.2-.02-.53-.08-1.96-.17-4.28h.98c0,.33,0,.7,0,1.09,0,1.32.04,3.01.12,5.06l-1.25-.08c-.38-.96-.92-2.37-1.61-4.23.04.81.07,1.91.07,3.3,0,.31,0,.63,0,.97h-.78c-.03-1.93-.08-3.92-.13-5.97Z"/>
        <path class="cls-1" d="M145.8,7.07c0,.14,0,.28,0,.42,0,1.49-.18,2.39-.54,2.69-.32.26-.73.39-1.22.39-.12,0-.25,0-.38-.02-.67-.08-1.1-.55-1.28-1.42-.09-.43-.14-.9-.14-1.4,0-.5.04-1.03.13-1.59.18-1.12.78-1.68,1.81-1.68h.02c1.03,0,1.57.87,1.61,2.61ZM144.12,5.54h0c-.5,0-.8.38-.89,1.14-.05.38-.07.74-.07,1.07,0,.34.03.65.07.94.09.58.3.9.63.96.06.01.13.02.19.02.24,0,.44-.09.6-.28.18-.21.27-.82.27-1.83v-.26c-.02-1.17-.29-1.76-.8-1.76Z"/>
        <path class="cls-1" d="M146.42,5.29c.03-.24.04-.48.04-.72,0-.06,0-.12,0-.18.93.04,1.72.07,2.36.06.32,0,.61,0,.87-.02.02.42.04.72.04.91l-1.11.02c0,.44,0,.88,0,1.3,0,1.37.02,2.62.05,3.76l-1.11-.02c.08-1.17.12-2.5.11-3.99,0-.32,0-.65,0-.99v-.04s-1.25-.08-1.25-.08Z"/>
        <path class="cls-1" d="M155.25,6.06l-.94.27c-.06-.53-.26-.84-.59-.92-.06-.02-.12-.02-.18-.02-.24,0-.43.15-.56.45-.16.37-.25.87-.28,1.51,0,.15-.01.3-.01.44,0,.44.04.82.12,1.13.1.41.38.61.84.61.46,0,.69-.42.69-1.25l1.03.23c-.07.81-.31,1.38-.7,1.71-.31.26-.69.4-1.14.4-.13,0-.27-.01-.42-.04-.64-.1-1.05-.58-1.22-1.46-.08-.43-.13-.89-.13-1.38,0-.51.04-1.04.13-1.61.16-1.08.72-1.63,1.67-1.63h.08c1,.03,1.54.55,1.62,1.57Z"/>
        <path class="cls-1" d="M156.06,10.5c0-2.34-.04-4.36-.09-6.06.38-.03.73-.05,1.04-.05.93,0,1.55.15,1.87.45.37.36.56.84.56,1.44,0,.08,0,.17,0,.25-.06.73-.35,1.19-.87,1.38.3.73.59,1.57.86,2.52l-1,.35c-.24-.98-.49-1.78-.75-2.39l-.6.12v2.02s-1.02-.02-1.02-.02ZM156.96,7.56h.08c.59,0,.98-.13,1.17-.37.16-.21.24-.47.23-.77,0-.07,0-.14-.01-.22-.05-.4-.2-.66-.47-.76-.15-.06-.32-.09-.51-.09-.15,0-.32.02-.5.06l.02,2.15Z"/>
        <path class="cls-1" d="M163.63,7.01c0,.14,0,.28,0,.42,0,1.49-.18,2.39-.54,2.69-.32.26-.73.39-1.22.39-.12,0-.25,0-.38-.02-.67-.08-1.1-.55-1.28-1.42-.09-.43-.14-.9-.14-1.4,0-.5.04-1.03.13-1.59.18-1.12.78-1.68,1.81-1.68h.02c1.03,0,1.57.87,1.61,2.61ZM161.95,5.48h0c-.5,0-.8.38-.89,1.14-.05.38-.07.74-.07,1.07,0,.34.03.65.07.94.09.58.3.9.63.96.06.01.13.02.19.02.24,0,.44-.09.6-.28.18-.21.27-.82.27-1.83v-.26c-.02-1.17-.29-1.76-.8-1.76Z"/>
        <path class="cls-1" d="M164.26,8.16l.97-.25c0,.61.1.98.3,1.12.16.11.33.17.51.16.04,0,.09,0,.14-.01.23-.03.39-.13.48-.28.06-.1.09-.23.09-.38,0-.09,0-.18-.03-.29-.05-.29-.25-.51-.58-.65-.33-.15-.64-.3-.93-.44-.29-.15-.49-.37-.61-.65-.09-.22-.14-.47-.14-.73,0-.08,0-.16.01-.24.03-.35.21-.68.53-.96.3-.27.66-.41,1.07-.41h.08c.44.02.8.17,1.08.45s.43.8.46,1.57l-.91.22c-.04-.63-.15-1.01-.34-1.13-.12-.08-.24-.12-.37-.12-.07,0-.15.01-.22.04-.2.07-.34.21-.41.42-.03.07-.04.15-.04.22,0,.13.04.25.13.37.13.19.5.41,1.12.65.61.24.97.54,1.08.89.06.22.1.43.1.64,0,.13-.01.27-.04.4-.07.34-.18.63-.35.86-.17.23-.43.41-.78.53-.22.08-.44.12-.66.12-.13,0-.26-.01-.39-.04-.35-.07-.66-.25-.92-.55-.26-.3-.4-.81-.42-1.54Z"/>
        <path class="cls-1" d="M168.43,8.15l.97-.25c0,.61.1.98.3,1.12.16.11.33.17.51.16.04,0,.09,0,.14-.01.23-.03.39-.13.48-.28.06-.1.09-.23.09-.38,0-.09,0-.18-.03-.29-.05-.29-.25-.51-.58-.65-.33-.15-.64-.3-.93-.44s-.49-.37-.61-.65c-.09-.22-.14-.47-.14-.73,0-.08,0-.16.01-.24.03-.35.21-.68.53-.96.3-.27.66-.41,1.07-.41h.08c.44.02.8.17,1.08.45s.43.8.46,1.57l-.91.22c-.04-.63-.15-1.01-.34-1.13-.12-.08-.24-.12-.37-.12-.07,0-.15.01-.22.04-.2.07-.34.21-.41.42-.03.07-.04.15-.04.22,0,.13.04.25.13.37.13.19.5.41,1.12.65.61.24.97.54,1.08.89.06.22.1.43.1.64,0,.13-.01.27-.04.4-.07.34-.18.63-.35.86-.17.23-.43.41-.78.53-.22.08-.44.12-.66.12-.13,0-.26-.01-.39-.04-.35-.07-.66-.25-.92-.55-.26-.3-.4-.81-.42-1.54Z"/>
      </g>
      <path class="cls-1" d="M60.43,7.51c0,.55-.44.99-.99.99s-.99-.44-.99-.99c0-.55.44-.99.99-.99.55,0,.99.44.99.99Z"/>
      <path class="cls-1" d="M119.72,7.33c0,.55-.44.99-.99.99s-.99-.44-.99-.99.44-.99.99-.99c.55,0,.99.44.99.99Z"/>
    </g>
    <g>
      <g>
        <g>
          <rect class="cls-2" x="177.44" y=".01" width="59.2" height="15.24"/>
          <g>
            <polygon class="cls-1" points="231.85 13.64 230.33 15.26 235.26 15.27 236.64 13.79 236.64 13.64 231.85 13.64"/>
            <polygon class="cls-1" points="234.77 .02 233.24 1.65 236.65 1.65 236.65 .02 234.77 .02"/>
            <polygon class="cls-1" points="220.46 15.26 225.39 15.26 226.92 13.63 221.99 13.63 220.46 15.26"/>
            <polygon class="cls-1" points="223.38 1.65 228.31 1.65 229.84 .02 224.91 .02 223.38 1.65"/>
            <polygon class="cls-1" points="210.59 15.26 215.52 15.26 217.05 13.63 212.12 13.63 210.59 15.26"/>
            <polygon class="cls-1" points="183.91 1.63 188.84 1.63 190.37 0 185.44 0 183.91 1.63"/>
            <polygon class="cls-1" points="177.44 13.77 177.59 13.61 177.44 13.61 177.44 13.77"/>
            <polygon class="cls-1" points="180.99 15.24 185.92 15.25 187.45 13.62 182.52 13.62 180.99 15.24"/>
            <polygon class="cls-1" points="193.78 1.64 198.71 1.64 200.24 0 195.31 0 193.78 1.64"/>
            <polygon class="cls-1" points="177.45 1.63 178.98 1.63 180.51 0 177.45 0 177.45 1.63"/>
            <polygon class="cls-1" points="213.51 1.64 218.44 1.64 219.97 .02 215.04 .02 213.51 1.64"/>
            <polygon class="cls-1" points="200.72 15.25 205.66 15.25 207.19 13.63 202.25 13.62 200.72 15.25"/>
            <polygon class="cls-1" points="203.64 1.64 208.58 1.64 210.11 .01 205.17 .01 203.64 1.64"/>
            <polygon class="cls-1" points="190.86 15.25 195.79 15.25 197.32 13.62 192.39 13.62 190.86 15.25"/>
          </g>
        </g>
        <g>
          <rect class="cls-2" x="236.64" y=".03" width="59.2" height="15.24"/>
          <g>
            <polygon class="cls-1" points="291.06 13.66 289.53 15.29 294.46 15.29 295.84 13.82 295.84 13.66 291.06 13.66"/>
            <polygon class="cls-1" points="293.97 .05 292.45 1.67 295.85 1.68 295.85 .05 293.97 .05"/>
            <polygon class="cls-1" points="279.66 15.28 284.59 15.29 286.12 13.66 281.19 13.66 279.66 15.28"/>
            <polygon class="cls-1" points="282.58 1.67 287.51 1.67 289.04 .04 284.11 .04 282.58 1.67"/>
            <polygon class="cls-1" points="269.79 15.28 274.73 15.28 276.26 13.65 271.32 13.65 269.79 15.28"/>
            <polygon class="cls-1" points="243.11 1.65 248.04 1.66 249.57 .03 244.64 .03 243.11 1.65"/>
            <polygon class="cls-1" points="236.64 13.79 236.79 13.64 236.64 13.64 236.64 13.79"/>
            <polygon class="cls-1" points="240.19 15.27 245.12 15.27 246.65 13.64 241.72 13.64 240.19 15.27"/>
            <polygon class="cls-1" points="252.98 1.66 257.91 1.66 259.44 .03 254.51 .03 252.98 1.66"/>
            <polygon class="cls-1" points="236.65 1.65 238.18 1.65 239.71 .02 236.65 .02 236.65 1.65"/>
            <polygon class="cls-1" points="272.71 1.67 277.64 1.67 279.17 .04 274.24 .04 272.71 1.67"/>
            <polygon class="cls-1" points="259.93 15.28 264.86 15.28 266.39 13.65 261.45 13.65 259.93 15.28"/>
            <polygon class="cls-1" points="262.84 1.66 267.78 1.66 269.31 .04 264.37 .03 262.84 1.66"/>
            <polygon class="cls-1" points="250.06 15.27 254.99 15.27 256.52 13.65 251.59 13.64 250.06 15.27"/>
          </g>
        </g>
        <g>
          <rect class="cls-2" x="295.85" y=".06" width="59.2" height="15.24"/>
          <g>
            <polygon class="cls-1" points="350.26 13.68 348.73 15.31 353.66 15.31 355.04 13.84 355.04 13.68 350.26 13.68"/>
            <polygon class="cls-1" points="353.18 .07 351.65 1.7 355.05 1.7 355.05 .07 353.18 .07"/>
            <polygon class="cls-1" points="338.86 15.31 343.79 15.31 345.32 13.68 340.39 13.68 338.86 15.31"/>
            <polygon class="cls-1" points="341.78 1.69 346.71 1.7 348.24 .07 343.31 .07 341.78 1.69"/>
            <polygon class="cls-1" points="328.99 15.3 333.93 15.3 335.46 13.68 330.52 13.67 328.99 15.3"/>
            <polygon class="cls-1" points="302.31 1.68 307.24 1.68 308.77 .05 303.84 .05 302.31 1.68"/>
            <polygon class="cls-1" points="295.84 13.81 295.99 13.66 295.84 13.66 295.84 13.81"/>
            <polygon class="cls-1" points="299.39 15.29 304.32 15.29 305.85 13.66 300.92 13.66 299.39 15.29"/>
            <polygon class="cls-1" points="312.18 1.68 317.11 1.68 318.64 .06 313.71 .05 312.18 1.68"/>
            <polygon class="cls-1" points="295.85 1.68 297.38 1.68 298.91 .05 295.85 .05 295.85 1.68"/>
            <polygon class="cls-1" points="331.91 1.69 336.85 1.69 338.37 .06 333.44 .06 331.91 1.69"/>
            <polygon class="cls-1" points="319.13 15.3 324.06 15.3 325.59 13.67 320.66 13.67 319.13 15.3"/>
            <polygon class="cls-1" points="322.04 1.69 326.98 1.69 328.51 .06 323.57 .06 322.04 1.69"/>
            <polygon class="cls-1" points="309.26 15.29 314.19 15.3 315.72 13.67 310.79 13.67 309.26 15.29"/>
          </g>
        </g>
      </g>
      <g>
        <path class="cls-1" d="M243.71,10.65c-.03-2.13-.06-4.2-.09-6.2.41-.03.76-.04,1.06-.04.37,0,.66.02.87.06.37.08.69.27.96.59.27.32.46.76.58,1.33.08.38.11.79.12,1.21,0,.21,0,.42-.02.63-.05.67-.33,1.25-.82,1.77-.43.44-1.14.67-2.15.67-.16,0-.32,0-.49-.02ZM245.78,9.08c.26-.34.4-.75.43-1.22,0-.12.01-.25.01-.37,0-.33-.03-.63-.09-.9-.09-.37-.29-.65-.61-.84-.27-.15-.53-.23-.78-.23-.06,0-.11,0-.17.01.02,1.35.04,2.71.05,4.09.52-.02.9-.2,1.16-.54Z"/>
        <path class="cls-1" d="M251.39,7.23c0,.14,0,.28,0,.42,0,1.49-.18,2.39-.54,2.69-.32.26-.73.39-1.22.39-.12,0-.25,0-.38-.02-.67-.08-1.1-.55-1.28-1.42-.09-.43-.14-.9-.14-1.4,0-.5.04-1.03.13-1.59.18-1.12.78-1.68,1.81-1.68h.02c1.03,0,1.57.87,1.61,2.61ZM249.71,5.7h0c-.5,0-.8.38-.89,1.14-.05.38-.07.74-.07,1.07s.03.65.07.94c.09.58.3.9.63.96.06.01.13.02.19.02.24,0,.44-.09.6-.28.18-.21.27-.82.27-1.83v-.26c-.02-1.17-.29-1.76-.8-1.76Z"/>
        <path class="cls-1" d="M253.4,4.44l1.21-.08c.53,1.54,1.05,2.93,1.57,4.2-.02-.53-.08-1.96-.17-4.28h.98c0,.33,0,.7,0,1.09,0,1.32.04,3.01.12,5.06l-1.25-.08c-.38-.96-.92-2.37-1.61-4.23.04.81.07,1.91.07,3.3,0,.31,0,.63,0,.97h-.78c-.03-1.93-.08-3.92-.13-5.97Z"/>
        <path class="cls-1" d="M261.29,7.2c0,.14,0,.28,0,.42,0,1.49-.18,2.39-.54,2.69-.32.26-.73.39-1.22.39-.12,0-.25,0-.38-.02-.67-.08-1.1-.55-1.28-1.42-.09-.43-.14-.9-.14-1.4,0-.5.04-1.03.13-1.59.18-1.12.78-1.68,1.81-1.68h.02c1.03,0,1.57.87,1.61,2.61ZM259.61,5.67h0c-.5,0-.8.38-.89,1.14-.05.38-.07.74-.07,1.07,0,.34.03.65.07.94.09.58.3.9.63.96.06.01.13.02.19.02.24,0,.44-.09.6-.28.18-.21.27-.82.27-1.83v-.26c-.02-1.17-.29-1.76-.8-1.76Z"/>
        <path class="cls-1" d="M261.91,5.42c.03-.24.04-.48.04-.72,0-.06,0-.12,0-.18.93.04,1.72.07,2.36.06.32,0,.61,0,.87-.02.02.42.04.72.04.91l-1.11.02c0,.44,0,.88,0,1.3,0,1.37.02,2.62.05,3.76l-1.11-.02c.08-1.17.12-2.5.11-3.99,0-.32,0-.65,0-.99v-.04s-1.25-.08-1.25-.08Z"/>
        <path class="cls-1" d="M270.74,6.19l-.94.27c-.06-.53-.26-.84-.59-.92-.06-.02-.12-.02-.18-.02-.24,0-.43.15-.56.45-.16.37-.25.87-.28,1.51,0,.15-.01.3-.01.44,0,.44.04.82.12,1.13.1.41.38.61.84.61.46,0,.69-.42.69-1.25l1.03.23c-.07.81-.31,1.38-.7,1.71-.31.26-.69.4-1.14.4-.13,0-.27-.01-.42-.04-.64-.1-1.05-.58-1.22-1.46-.08-.43-.13-.89-.13-1.38,0-.51.04-1.04.13-1.61.16-1.08.72-1.63,1.67-1.63h.08c1,.03,1.54.55,1.62,1.57Z"/>
        <path class="cls-1" d="M271.55,10.63c0-2.34-.04-4.36-.09-6.06.38-.03.73-.05,1.04-.05.93,0,1.55.15,1.87.45.37.36.56.84.56,1.44,0,.08,0,.17,0,.25-.06.73-.35,1.19-.87,1.38.3.73.59,1.57.86,2.52l-1,.35c-.24-.98-.49-1.78-.75-2.39l-.6.12v2.02s-1.02-.02-1.02-.02ZM272.45,7.69h.08c.59,0,.98-.13,1.17-.37.16-.21.24-.47.23-.77,0-.07,0-.14-.01-.22-.05-.4-.2-.66-.47-.76-.15-.06-.32-.09-.51-.09-.15,0-.32.02-.5.06l.02,2.15Z"/>
        <path class="cls-1" d="M279.12,7.15c0,.14,0,.28,0,.42,0,1.49-.18,2.39-.54,2.69-.32.26-.73.39-1.22.39-.12,0-.25,0-.38-.02-.67-.08-1.1-.55-1.28-1.42-.09-.43-.14-.9-.14-1.4,0-.5.04-1.03.13-1.59.18-1.12.78-1.68,1.81-1.68h.02c1.03,0,1.57.87,1.61,2.61ZM277.44,5.61h0c-.5,0-.8.38-.89,1.14-.05.38-.07.74-.07,1.07,0,.34.03.65.07.94.09.58.3.9.63.96.06.01.13.02.19.02.24,0,.44-.09.6-.28.18-.21.27-.82.27-1.83v-.26c-.02-1.17-.29-1.76-.8-1.76Z"/>
        <path class="cls-1" d="M279.75,8.29l.97-.25c0,.61.1.98.3,1.12.16.11.33.17.51.16.04,0,.09,0,.14-.01.23-.03.39-.13.48-.28.06-.1.09-.23.09-.38,0-.09,0-.18-.03-.29-.05-.29-.25-.51-.58-.65-.33-.15-.65-.3-.93-.44s-.49-.37-.61-.65c-.09-.22-.14-.47-.14-.73,0-.08,0-.16.01-.24.03-.35.21-.68.53-.96.3-.27.66-.4,1.07-.41h.08c.44.02.8.17,1.08.45.28.28.43.8.46,1.57l-.91.22c-.04-.63-.15-1.01-.34-1.13-.12-.08-.24-.12-.37-.12-.07,0-.15.01-.22.04-.2.07-.34.21-.41.42-.03.07-.04.15-.04.22,0,.13.04.25.13.37.13.19.5.41,1.12.65.61.24.97.54,1.08.89.06.22.1.43.1.64,0,.13-.01.27-.04.4-.07.34-.18.63-.35.86-.17.23-.43.41-.78.53-.22.08-.44.12-.66.12-.13,0-.26-.01-.39-.04-.35-.07-.66-.25-.92-.55-.26-.3-.4-.81-.42-1.54Z"/>
        <path class="cls-1" d="M283.92,8.28l.97-.25c0,.61.1.98.3,1.12.16.11.33.17.51.16.04,0,.09,0,.14-.01.23-.03.39-.13.48-.28.06-.1.09-.23.09-.38,0-.09,0-.18-.03-.29-.05-.29-.25-.51-.58-.65-.33-.15-.64-.3-.93-.44-.29-.15-.49-.37-.61-.65-.09-.22-.14-.47-.14-.73,0-.08,0-.16.01-.24.03-.35.21-.68.53-.96.3-.27.66-.4,1.07-.41h.08c.44.02.8.17,1.08.45.28.28.43.8.46,1.57l-.91.22c-.04-.63-.15-1.01-.34-1.13-.12-.08-.24-.12-.37-.12-.07,0-.15.01-.22.04-.2.07-.34.21-.41.42-.03.07-.04.15-.04.22,0,.13.04.25.13.37.13.19.5.41,1.12.65.61.24.97.54,1.08.89.06.22.1.43.1.64,0,.13-.01.27-.04.4-.07.34-.18.63-.35.86-.17.23-.43.41-.78.53-.22.08-.44.12-.66.12-.13,0-.26-.01-.39-.04-.35-.07-.66-.25-.92-.55-.26-.3-.4-.81-.42-1.54Z"/>
      </g>
      <g>
        <path class="cls-1" d="M185.61,10.82c-.03-2.13-.06-4.2-.09-6.2.41-.03.76-.04,1.06-.04.37,0,.66.02.87.06.37.08.69.27.96.59s.46.76.58,1.33c.08.38.11.79.12,1.21,0,.2,0,.42-.02.63-.05.67-.33,1.25-.82,1.77-.43.44-1.14.67-2.15.67-.16,0-.32,0-.49-.02ZM187.68,9.26c.26-.34.4-.75.43-1.22,0-.12.01-.25.01-.37,0-.33-.03-.63-.09-.9-.09-.37-.29-.65-.61-.84-.27-.15-.53-.23-.78-.23-.06,0-.11,0-.17.01.02,1.35.04,2.71.05,4.09.52-.02.9-.2,1.16-.54Z"/>
        <path class="cls-1" d="M193.29,7.4c0,.14,0,.28,0,.42,0,1.49-.18,2.39-.54,2.69-.32.26-.73.39-1.22.39-.12,0-.25,0-.38-.02-.67-.08-1.1-.55-1.28-1.42-.09-.43-.14-.9-.14-1.4,0-.5.04-1.03.13-1.59.18-1.12.78-1.68,1.81-1.68h.02c1.03,0,1.57.87,1.61,2.61ZM191.61,5.87h0c-.5,0-.8.38-.89,1.14-.05.38-.07.74-.07,1.07,0,.34.03.65.07.94.09.58.3.9.63.96.06.01.13.02.19.02.24,0,.44-.09.6-.28.18-.21.27-.82.27-1.83v-.26c-.02-1.17-.29-1.76-.8-1.76Z"/>
        <path class="cls-1" d="M195.3,4.61l1.21-.08c.53,1.54,1.05,2.93,1.57,4.2-.02-.53-.08-1.96-.17-4.28h.98c0,.33,0,.7,0,1.09,0,1.32.04,3.01.12,5.06l-1.25-.08c-.38-.96-.92-2.37-1.61-4.23.04.81.07,1.91.07,3.3,0,.31,0,.63,0,.97h-.78c-.03-1.93-.08-3.92-.13-5.97Z"/>
        <path class="cls-1" d="M203.19,7.37c0,.14,0,.28,0,.42,0,1.49-.18,2.39-.54,2.69-.32.26-.73.39-1.22.39-.12,0-.25,0-.38-.02-.67-.08-1.1-.55-1.28-1.42-.09-.43-.14-.9-.14-1.4,0-.5.04-1.03.13-1.59.18-1.12.78-1.68,1.81-1.68h.02c1.03,0,1.57.87,1.61,2.61ZM201.51,5.84h0c-.5,0-.8.38-.89,1.14-.05.38-.07.74-.07,1.07,0,.34.03.65.07.94.09.58.3.9.63.96.06.01.13.02.19.02.24,0,.44-.09.6-.28.18-.21.27-.82.27-1.83v-.26c-.02-1.17-.29-1.76-.8-1.76Z"/>
        <path class="cls-1" d="M203.81,5.59c.03-.24.04-.48.04-.72,0-.06,0-.12,0-.18.93.04,1.72.07,2.36.06.32,0,.61,0,.87-.02.02.42.04.72.04.91l-1.11.02c0,.44,0,.88,0,1.3,0,1.37.02,2.62.05,3.76l-1.11-.02c.08-1.17.12-2.5.11-3.99,0-.32,0-.65,0-.99v-.04s-1.25-.08-1.25-.08Z"/>
        <path class="cls-1" d="M212.64,6.36l-.94.27c-.06-.53-.26-.84-.59-.93-.06-.02-.12-.02-.18-.02-.24,0-.43.15-.56.45-.16.37-.25.87-.28,1.51,0,.15-.01.3-.01.44,0,.44.04.82.12,1.13.1.41.38.61.84.61.46,0,.69-.42.69-1.25l1.03.23c-.07.81-.31,1.38-.7,1.71-.31.26-.69.4-1.14.4-.13,0-.27-.01-.42-.04-.64-.1-1.05-.58-1.22-1.46-.08-.43-.13-.89-.13-1.38,0-.51.04-1.04.13-1.61.16-1.08.72-1.63,1.67-1.63h.08c1,.03,1.54.55,1.62,1.57Z"/>
        <path class="cls-1" d="M213.45,10.8c0-2.34-.04-4.36-.09-6.06.38-.03.73-.05,1.04-.05.93,0,1.55.15,1.87.45.37.36.56.84.56,1.44,0,.08,0,.17,0,.25-.06.73-.35,1.19-.87,1.38.3.73.59,1.57.86,2.52l-1,.35c-.24-.98-.49-1.78-.75-2.39l-.6.12v2.02s-1.02-.02-1.02-.02ZM214.35,7.87h.08c.59,0,.98-.13,1.17-.37.16-.21.24-.47.23-.77,0-.07,0-.14-.01-.22-.05-.4-.2-.66-.47-.76-.15-.06-.32-.09-.51-.09-.15,0-.32.02-.5.06l.02,2.15Z"/>
        <path class="cls-1" d="M221.02,7.32c0,.14,0,.28,0,.42,0,1.49-.18,2.39-.54,2.69-.32.26-.73.39-1.22.39-.12,0-.25,0-.38-.02-.67-.08-1.1-.55-1.28-1.42-.09-.43-.14-.9-.14-1.4,0-.5.04-1.03.13-1.59.18-1.12.78-1.68,1.81-1.68h.02c1.03,0,1.57.87,1.61,2.61ZM219.34,5.79h0c-.5,0-.8.38-.89,1.14-.05.38-.07.74-.07,1.07,0,.34.03.65.07.94.09.58.3.9.63.96.06.01.13.02.19.02.24,0,.44-.09.6-.28.18-.21.27-.82.27-1.83v-.26c-.02-1.17-.29-1.76-.8-1.76Z"/>
        <path class="cls-1" d="M221.65,8.47l.97-.25c0,.61.1.98.3,1.12.16.11.33.17.51.16.04,0,.09,0,.14-.01.23-.03.39-.13.48-.28.06-.1.09-.23.09-.38,0-.09,0-.18-.03-.29-.05-.29-.25-.51-.58-.65-.33-.15-.64-.3-.93-.44-.29-.15-.49-.37-.61-.65-.09-.22-.14-.47-.14-.73,0-.08,0-.16.01-.24.03-.35.21-.68.53-.96.3-.27.66-.41,1.07-.41h.08c.44.02.8.17,1.08.45.28.28.43.8.46,1.57l-.91.22c-.04-.63-.15-1.01-.34-1.13-.12-.08-.24-.12-.37-.12-.07,0-.15.01-.22.04-.2.07-.34.21-.41.42-.03.07-.04.15-.04.22,0,.13.04.25.13.37.13.19.5.41,1.12.65s.97.54,1.08.89c.06.22.1.43.1.64,0,.13-.01.27-.04.4-.07.34-.18.63-.35.86-.17.23-.43.41-.78.53-.22.08-.44.12-.66.12-.13,0-.26-.01-.39-.04-.35-.07-.66-.25-.92-.55-.26-.3-.4-.81-.42-1.54Z"/>
        <path class="cls-1" d="M225.83,8.46l.97-.25c0,.61.1.98.3,1.12.16.11.33.17.51.16.04,0,.09,0,.14-.01.23-.03.39-.13.48-.28.06-.1.09-.23.09-.38,0-.09,0-.18-.03-.29-.05-.29-.25-.51-.58-.65s-.64-.3-.93-.44c-.29-.15-.49-.37-.61-.65-.09-.22-.14-.47-.14-.73,0-.08,0-.16.01-.24.03-.35.21-.68.53-.96.3-.27.66-.41,1.07-.41h.08c.44.02.8.17,1.08.45s.43.8.46,1.57l-.91.22c-.04-.63-.15-1.01-.34-1.13-.12-.08-.24-.12-.37-.12-.07,0-.15.01-.22.04-.2.07-.34.21-.41.42-.03.07-.04.15-.04.22,0,.13.04.25.13.37.13.19.5.41,1.12.65.61.24.97.54,1.08.89.06.22.1.43.1.64,0,.13-.01.27-.04.4-.07.34-.18.63-.35.86-.17.23-.43.41-.78.53-.22.08-.44.12-.66.12-.13,0-.26-.01-.39-.04-.35-.07-.66-.25-.92-.55-.26-.3-.4-.81-.42-1.54Z"/>
      </g>
      <g>
        <path class="cls-1" d="M305.65,10.47c-.03-2.13-.06-4.2-.09-6.2.41-.03.76-.04,1.06-.04.37,0,.66.02.87.06.37.08.69.27.96.59.27.32.46.76.58,1.33.08.38.11.79.12,1.21,0,.2,0,.42-.02.63-.05.67-.33,1.25-.82,1.77-.43.44-1.15.67-2.15.67-.16,0-.32,0-.49-.02ZM307.73,8.9c.26-.34.4-.75.43-1.22,0-.12.01-.25.01-.37,0-.33-.03-.63-.09-.9-.09-.37-.29-.65-.61-.84-.27-.15-.53-.23-.78-.23-.06,0-.11,0-.17.01.02,1.35.04,2.71.05,4.09.52-.02.9-.2,1.16-.54Z"/>
        <path class="cls-1" d="M313.34,7.04c0,.14,0,.28,0,.42,0,1.49-.18,2.39-.54,2.69-.32.26-.73.39-1.22.39-.12,0-.25,0-.38-.02-.67-.08-1.1-.55-1.28-1.42-.09-.43-.14-.9-.14-1.4,0-.5.04-1.03.13-1.59.18-1.12.78-1.68,1.81-1.68h.02c1.03,0,1.57.87,1.61,2.61ZM311.66,5.51h0c-.5,0-.8.38-.89,1.14-.05.38-.07.74-.07,1.07,0,.34.03.65.07.94.09.58.3.9.63.96.06.01.13.02.19.02.24,0,.44-.09.6-.28.18-.21.27-.82.27-1.83v-.26c-.02-1.17-.29-1.76-.8-1.76Z"/>
        <path class="cls-1" d="M315.35,4.25l1.21-.08c.53,1.54,1.05,2.93,1.57,4.2-.02-.53-.08-1.96-.17-4.28h.98c0,.33,0,.7,0,1.09,0,1.32.04,3.01.12,5.06l-1.25-.08c-.38-.96-.92-2.37-1.61-4.23.04.81.07,1.91.07,3.3,0,.31,0,.63,0,.97h-.78c-.03-1.93-.08-3.92-.13-5.97Z"/>
        <path class="cls-1" d="M323.24,7.01c0,.14,0,.28,0,.42,0,1.49-.18,2.39-.54,2.69-.32.26-.73.39-1.22.39-.12,0-.25,0-.38-.02-.67-.08-1.1-.55-1.28-1.42-.09-.43-.14-.9-.14-1.4,0-.5.04-1.03.13-1.59.18-1.12.78-1.68,1.81-1.68h.02c1.03,0,1.57.87,1.61,2.61ZM321.56,5.48h0c-.5,0-.8.38-.89,1.14-.05.38-.07.74-.07,1.07,0,.34.03.65.07.94.09.58.3.9.63.96.06.01.13.02.19.02.24,0,.44-.09.6-.28.18-.21.27-.82.27-1.83v-.26c-.02-1.17-.29-1.76-.8-1.76Z"/>
        <path class="cls-1" d="M323.86,5.23c.03-.24.04-.48.04-.72,0-.06,0-.12,0-.18.93.04,1.72.07,2.36.06.32,0,.61,0,.87-.02.02.42.04.72.04.91l-1.11.02c0,.44,0,.88,0,1.3,0,1.37.02,2.62.05,3.76l-1.11-.02c.08-1.17.12-2.5.11-3.99,0-.32,0-.65,0-.99v-.04s-1.25-.08-1.25-.08Z"/>
        <path class="cls-1" d="M332.69,6l-.94.27c-.06-.53-.26-.84-.59-.92-.06-.02-.12-.02-.18-.02-.24,0-.43.15-.56.45-.16.37-.25.87-.28,1.51,0,.15-.01.3-.01.44,0,.44.04.82.12,1.13.1.41.38.61.84.61.46,0,.69-.42.69-1.25l1.03.23c-.07.81-.31,1.38-.7,1.71-.31.26-.69.4-1.14.4-.13,0-.27-.01-.42-.04-.64-.1-1.05-.58-1.22-1.46-.08-.43-.13-.89-.13-1.38,0-.51.04-1.04.13-1.61.16-1.08.72-1.63,1.67-1.63h.08c1,.03,1.54.55,1.62,1.57Z"/>
        <path class="cls-1" d="M333.5,10.44c0-2.34-.04-4.36-.09-6.06.38-.03.73-.05,1.04-.05.93,0,1.55.15,1.87.45.37.36.56.84.56,1.44,0,.08,0,.17,0,.25-.06.73-.35,1.19-.87,1.38.3.73.59,1.57.86,2.52l-1,.35c-.24-.98-.49-1.78-.75-2.39l-.6.12v2.02s-1.02-.02-1.02-.02ZM334.4,7.51h.08c.59,0,.98-.13,1.17-.37.16-.21.24-.47.23-.77,0-.07,0-.14-.01-.22-.05-.4-.2-.66-.47-.76-.15-.06-.32-.09-.51-.09-.15,0-.32.02-.5.06l.02,2.15Z"/>
        <path class="cls-1" d="M341.07,6.96c0,.14,0,.28,0,.42,0,1.49-.18,2.39-.54,2.69-.32.26-.73.39-1.22.39-.12,0-.25,0-.38-.02-.67-.08-1.1-.55-1.28-1.42-.09-.43-.14-.9-.14-1.4,0-.5.04-1.03.13-1.59.18-1.12.78-1.68,1.81-1.68h.02c1.03,0,1.57.87,1.61,2.61ZM339.39,5.43h0c-.5,0-.8.38-.89,1.14-.05.38-.07.74-.07,1.07,0,.34.03.65.07.94.09.58.3.9.63.96.06.01.13.02.19.02.24,0,.44-.09.6-.28.18-.21.27-.82.27-1.83v-.26c-.02-1.17-.29-1.76-.8-1.76Z"/>
        <path class="cls-1" d="M341.7,8.11l.97-.25c0,.61.1.98.3,1.12.16.11.33.17.51.16.04,0,.09,0,.14-.01.23-.03.39-.13.48-.28.06-.1.09-.23.09-.38,0-.09,0-.18-.03-.29-.05-.29-.25-.51-.58-.65-.33-.15-.64-.3-.93-.44-.29-.15-.49-.37-.61-.65-.09-.22-.14-.47-.14-.73,0-.08,0-.16.01-.24.03-.35.21-.68.53-.96.3-.27.66-.41,1.07-.41h.08c.44.02.8.17,1.08.45s.43.8.46,1.57l-.91.22c-.04-.63-.15-1.01-.34-1.13-.12-.08-.24-.12-.37-.12-.07,0-.15.01-.22.04-.2.07-.34.21-.41.42-.03.07-.04.15-.04.22,0,.13.04.25.13.37.13.19.5.41,1.12.65.61.24.97.54,1.08.89.06.22.1.43.1.64,0,.13-.01.27-.04.4-.07.34-.18.63-.35.86-.17.23-.43.41-.78.53-.22.08-.44.12-.66.12-.13,0-.26-.01-.39-.04-.35-.07-.66-.25-.92-.55s-.4-.81-.42-1.54Z"/>
        <path class="cls-1" d="M345.87,8.1l.97-.25c0,.61.1.98.3,1.12.16.11.33.17.51.16.04,0,.09,0,.14-.01.23-.03.39-.13.48-.28.06-.1.09-.23.09-.38,0-.09,0-.18-.03-.29-.05-.29-.25-.51-.58-.65s-.64-.3-.93-.44c-.29-.15-.49-.37-.61-.65-.09-.22-.14-.47-.14-.73,0-.08,0-.16.01-.24.03-.35.21-.68.53-.96.3-.27.66-.41,1.07-.41h.08c.44.02.8.17,1.08.45s.43.8.46,1.57l-.91.22c-.04-.63-.15-1.01-.34-1.13-.12-.08-.24-.12-.37-.12-.07,0-.15.01-.22.04-.2.07-.34.21-.41.42-.03.07-.04.15-.04.22,0,.13.04.25.13.37.13.19.5.41,1.12.65s.97.54,1.08.89c.06.22.1.43.1.64,0,.13-.01.27-.04.4-.07.34-.18.63-.35.86-.17.23-.43.41-.78.53-.22.08-.44.12-.66.12-.13,0-.26-.01-.39-.04-.35-.07-.66-.25-.92-.55s-.4-.81-.42-1.54Z"/>
      </g>
      <path class="cls-1" d="M237.88,7.46c0,.55-.44.99-.99.99s-.99-.44-.99-.99c0-.55.44-.99.99-.99.55,0,.99.44.99.99Z"/>
      <path class="cls-1" d="M297.16,7.28c0,.55-.44.99-.99.99-.55,0-.99-.44-.99-.99,0-.55.44-.99.99-.99s.99.44.99.99Z"/>
    </g>
  </g>
</svg>