<?xml version="1.0" encoding="UTF-8"?>
<svg id="Layer_1" data-name="Layer 1" xmlns="http://www.w3.org/2000/svg" viewBox="0 0 280 347.19">
  <defs>
    <style>
      .cls-1 {
        fill: #808184;
      }

      .cls-1, .cls-2, .cls-3, .cls-4 {
        stroke-width: 0px;
      }

      .cls-2 {
        fill: #fffffa;
      }

      .cls-3 {
        fill: #b14625;
      }

      .cls-4 {
        fill: #325e81;
      }
    </style>
  </defs>
  <polygon class="cls-1" points="0 239.28 12.32 231.46 12.32 239.28 0 239.28"/>
  <g>
    <path class="cls-4" d="M107.12,0H12.32v347.19h267.68V0H107.12Z"/>
    <polygon class="cls-3" points="203.26 239.28 0 239.28 0 276.61 203.26 276.61 186.88 257.95 203.26 239.28"/>
    <g>
      <path class="cls-2" d="M23.6,245.72h4.24l4.64,24.83h-3.78l-.68-4.45h-4.59l-.65,4.45h-3.79l4.62-24.83ZM27.59,263.27l-1.77-12.43h-.16l-1.79,12.43h3.72Z"/>
      <path class="cls-2" d="M34.74,245.72h3.77v21.86h5.13v2.97h-8.9v-24.83Z"/>
      <path class="cls-2" d="M45.5,245.72h9.49v2.97h-5.73v7.43h4.49v2.97h-4.49v8.5h5.73v2.97h-9.49v-24.83Z"/>
      <path class="cls-2" d="M60.72,258.05l-4.54-12.33h3.98l2.36,7.94h.15l2.31-7.94h3.9l-4.55,12.34,4.55,12.49h-3.84l-2.4-7.98h-.25l-2.46,7.98h-3.75l4.54-12.5Z"/>
      <path class="cls-2" d="M77.7,245.72h3.77c.57,0,1.2.04,1.88.11s1.36.24,2.04.49c.68.26,1.3.66,1.87,1.21.57.55,1.02,1.3,1.36,2.25s.51,2.16.51,3.62v.87c0,1.59-.16,2.91-.47,3.97-.32,1.06-.73,1.9-1.26,2.54-.52.64-1.11,1.11-1.75,1.42-.64.32-1.3.52-1.96.63-.66.1-1.28.15-1.86.15h-.36v7.56h-3.77v-24.83ZM81.65,260.23c1.37,0,2.31-.41,2.83-1.22.52-.81.78-2.16.78-4.03v-2.24c0-1.47-.24-2.56-.73-3.26s-1.45-1.05-2.87-1.05h-.19v11.79h.19Z"/>
      <path class="cls-2" d="M91.84,245.72h4.08c.57,0,1.2.03,1.89.1.69.07,1.37.22,2.05.46.68.24,1.3.61,1.86,1.12.56.51,1.01,1.2,1.36,2.08s.52,1.99.52,3.34v.63c0,3.72-1.12,6.12-3.36,7.18l4.08,9.93h-4.01l-3.42-9.29h-1.29v9.29h-3.76v-24.83ZM96.1,258.54c1.38,0,2.32-.32,2.84-.96.52-.64.78-1.79.78-3.46v-1.96c0-1.28-.24-2.22-.73-2.82-.49-.6-1.45-.9-2.89-.9h-.49v10.1h.49Z"/>
      <path class="cls-2" d="M109.56,261.84l-4.86-16.12h3.79l2.88,11.98h.17l2.88-11.98h3.78l-4.88,16.12v8.71h-3.76v-8.71Z"/>
      <path class="cls-2" d="M125.57,270.77c-.6,0-1.26-.09-1.97-.26-.71-.17-1.39-.54-2.03-1.09-.64-.55-1.16-1.38-1.57-2.49s-.61-2.6-.61-4.46v-8.8c0-1.49.14-2.74.41-3.73.28-.99.64-1.79,1.09-2.38.45-.6.95-1.04,1.5-1.34.55-.3,1.09-.49,1.64-.58.55-.09,1.05-.14,1.52-.14,1.28,0,2.29.24,3.04.71s1.28,1.11,1.61,1.91c.33.8.49,1.68.49,2.64,0,.53-.04,1.02-.12,1.48-.08.45-.18.95-.28,1.49h-2.91v-1.19c0-2.72-.64-4.08-1.92-4.08-.69,0-1.21.3-1.58.89s-.55,1.69-.55,3.28v11.19c0,1.54.18,2.59.55,3.15.36.56.93.84,1.69.84.53,0,.97-.23,1.32-.68.35-.45.52-1.17.52-2.17v-2.36h3.3v2.3c0,1.99-.44,3.46-1.32,4.42-.88.96-2.16,1.44-3.82,1.44Z"/>
      <path class="cls-2" d="M133.38,245.72h9.49v2.97h-5.73v7.43h4.49v2.97h-4.49v8.5h5.73v2.97h-9.49v-24.83Z"/>
    </g>
    <g>
      <path class="cls-2" d="M180.99,313.71v4.71h-2.21v-12.7h4.86c1.42,0,2.55.37,3.38,1.11.83.74,1.25,1.72,1.25,2.93s-.41,2.21-1.23,2.91c-.82.69-1.96,1.04-3.43,1.04h-2.63ZM180.99,311.93h2.65c.78,0,1.38-.18,1.8-.55.41-.37.62-.9.62-1.6s-.21-1.23-.63-1.64c-.42-.41-.99-.62-1.73-.63h-2.71v4.43Z"/>
      <path class="cls-2" d="M194.94,310.91c-.28-.05-.57-.07-.86-.07-.97,0-1.63.37-1.96,1.12v6.45h-2.12v-9.44h2.02l.05,1.06c.51-.82,1.22-1.23,2.13-1.23.3,0,.55.04.75.12v1.99Z"/>
      <path class="cls-2" d="M199.74,315.38l1.92-6.4h2.26l-3.75,10.87c-.58,1.59-1.55,2.38-2.93,2.38-.31,0-.65-.05-1.02-.16v-1.65l.4.03c.54,0,.94-.1,1.21-.29.27-.19.48-.52.64-.98l.31-.81-3.31-9.39h2.28l2,6.4Z"/>
      <path class="cls-2" d="M208.9,316.9c.53,0,.97-.15,1.32-.46s.54-.69.56-1.14h2c-.02.59-.21,1.14-.55,1.64-.34.51-.81.91-1.4,1.21s-1.22.45-1.9.45c-1.32,0-2.37-.43-3.14-1.28-.77-.86-1.16-2.04-1.16-3.54v-.22c0-1.44.38-2.59,1.15-3.45.77-.86,1.81-1.3,3.14-1.3,1.12,0,2.04.33,2.74.98.71.65,1.08,1.51,1.11,2.58h-2c-.02-.54-.21-.99-.55-1.33s-.79-.52-1.32-.52c-.69,0-1.22.25-1.59.75-.37.5-.56,1.25-.57,2.26v.34c0,1.02.18,1.79.55,2.29.37.5.9.75,1.6.75Z"/>
      <path class="cls-2" d="M218.53,318.59c-1.34,0-2.43-.42-3.27-1.27-.83-.85-1.25-1.97-1.25-3.38v-.26c0-.94.18-1.78.55-2.53.36-.74.87-1.32,1.53-1.73s1.39-.62,2.2-.62c1.29,0,2.28.41,2.98,1.23.7.82,1.05,1.98,1.05,3.48v.86h-6.17c.06.78.32,1.4.78,1.85.46.45,1.03.68,1.72.68.97,0,1.76-.39,2.37-1.18l1.14,1.09c-.38.56-.88,1-1.51,1.31-.63.31-1.34.47-2.12.47ZM218.27,310.5c-.58,0-1.05.2-1.41.61-.36.41-.59.97-.68,1.7h4.04v-.16c-.05-.71-.24-1.25-.57-1.61-.33-.36-.79-.55-1.38-.55Z"/>
      <path class="cls-2" d="M223.84,309.48l-1.08-.67c.52-.76.79-1.57.81-2.42v-1.38h1.86v1.2c0,.6-.15,1.2-.46,1.81-.31.61-.68,1.09-1.13,1.45Z"/>
      <path class="cls-2" d="M230.54,315.85c0-.38-.16-.67-.47-.86-.31-.2-.83-.37-1.55-.52-.72-.15-1.32-.34-1.81-.58-1.06-.51-1.59-1.25-1.59-2.22,0-.81.34-1.49,1.03-2.04.69-.55,1.56-.82,2.62-.82,1.13,0,2.04.28,2.73.84.69.56,1.04,1.28,1.04,2.17h-2.12c0-.41-.15-.75-.45-1.02-.3-.27-.7-.41-1.2-.41-.47,0-.85.11-1.14.32s-.44.5-.44.86c0,.33.14.58.41.76.27.18.83.36,1.66.55.83.18,1.48.4,1.96.65s.83.56,1.06.91.34.78.34,1.29c0,.85-.35,1.54-1.06,2.06-.7.53-1.63.79-2.77.79-.77,0-1.46-.14-2.07-.42-.6-.28-1.08-.66-1.41-1.15-.34-.49-.51-1.01-.51-1.58h2.06c.03.5.22.89.57,1.16.35.27.81.41,1.39.41s.98-.11,1.27-.32c.29-.21.44-.49.44-.83Z"/>
      <path class="cls-2" d="M249.08,315.28l1.95-9.56h2.19l-2.93,12.7h-2.11l-2.42-9.27-2.47,9.27h-2.12l-2.93-12.7h2.19l1.97,9.54,2.42-9.54h1.85l2.4,9.56Z"/>
      <path class="cls-2" d="M254.64,306.53c0-.33.1-.6.31-.81.21-.22.5-.32.89-.32s.68.11.89.32c.21.22.31.49.31.81s-.1.59-.31.8c-.21.21-.51.32-.89.32s-.68-.11-.89-.32c-.21-.21-.31-.48-.31-.8ZM256.89,318.42h-2.12v-9.44h2.12v9.44Z"/>
      <path class="cls-2" d="M259.94,318.42v-7.87h-1.44v-1.57h1.44v-.86c0-1.05.29-1.85.87-2.42s1.4-.86,2.44-.86c.37,0,.77.05,1.19.16l-.05,1.66c-.23-.05-.5-.07-.81-.07-1.01,0-1.52.52-1.52,1.56v.84h1.92v1.57h-1.92v7.87h-2.12Z"/>
      <path class="cls-2" d="M269.47,318.59c-1.34,0-2.43-.42-3.27-1.27-.83-.85-1.25-1.97-1.25-3.38v-.26c0-.94.18-1.78.54-2.53.36-.74.87-1.32,1.53-1.73s1.39-.62,2.2-.62c1.29,0,2.28.41,2.98,1.23.7.82,1.05,1.98,1.05,3.48v.86h-6.17c.06.78.32,1.4.78,1.85.46.45,1.03.68,1.72.68.97,0,1.76-.39,2.37-1.18l1.14,1.09c-.38.56-.88,1-1.51,1.31-.63.31-1.34.47-2.12.47ZM269.22,310.5c-.58,0-1.05.2-1.41.61s-.59.97-.68,1.7h4.04v-.16c-.05-.71-.24-1.25-.57-1.61-.33-.36-.79-.55-1.38-.55Z"/>
    </g>
    <rect class="cls-3" x="12.32" y="330.73" width="267.68" height="5.49"/>
  </g>
</svg>