<?xml version="1.0" encoding="UTF-8"?>
<svg id="Layer_1" data-name="Layer 1" xmlns="http://www.w3.org/2000/svg" viewBox="0 0 280 347.19">
  <defs>
    <style>
      .cls-1 {
        fill: #00a8a9;
      }

      .cls-1, .cls-2, .cls-3, .cls-4 {
        stroke-width: 0px;
      }

      .cls-2 {
        fill: #808184;
      }

      .cls-3 {
        fill: #fffffa;
      }

      .cls-4 {
        fill: #325e81;
      }
    </style>
  </defs>
  <polygon class="cls-2" points="0 239.28 12.32 231.46 12.32 239.28 0 239.28"/>
  <g>
    <path class="cls-4" d="M107.12,0H12.32v347.19h267.68V0H107.12Z"/>
    <polygon class="cls-1" points="203.26 239.28 0 239.28 0 276.61 203.26 276.61 186.88 257.95 203.26 239.28"/>
    <g>
      <path class="cls-3" d="M20.83,245.72h3.77v10.85h.12l4.3-10.85h3.75l-4.78,11.64,5.32,13.19h-4.03l-4.56-11.82h-.12v11.82h-3.77v-24.83Z"/>
      <path class="cls-3" d="M35.38,245.72h9.49v2.97h-5.73v7.43h4.49v2.97h-4.49v8.5h5.73v2.97h-9.49v-24.83Z"/>
      <path class="cls-3" d="M47.13,245.72h4.09c.57,0,1.2.03,1.89.1s1.37.22,2.05.46c.68.24,1.3.61,1.86,1.12.56.51,1.01,1.2,1.36,2.08.34.88.52,1.99.52,3.34v.63c0,3.72-1.12,6.12-3.36,7.18l4.08,9.93h-4.01l-3.42-9.29h-1.29v9.29h-3.77v-24.83ZM51.39,258.54c1.38,0,2.32-.32,2.84-.96.52-.64.78-1.79.78-3.46v-1.96c0-1.28-.24-2.22-.73-2.82-.49-.6-1.45-.9-2.89-.9h-.49v10.1h.49Z"/>
      <path class="cls-3" d="M62.49,245.72h4.09c.57,0,1.2.03,1.89.1s1.37.22,2.05.46c.68.24,1.3.61,1.86,1.12.56.51,1.01,1.2,1.36,2.08.34.88.52,1.99.52,3.34v.63c0,3.72-1.12,6.12-3.36,7.18l4.08,9.93h-4.01l-3.42-9.29h-1.29v9.29h-3.77v-24.83ZM66.75,258.54c1.38,0,2.32-.32,2.84-.96.52-.64.78-1.79.78-3.46v-1.96c0-1.28-.24-2.22-.73-2.82-.49-.6-1.45-.9-2.89-.9h-.49v10.1h.49Z"/>
      <path class="cls-3" d="M77.83,245.72h3.77v24.83h-3.77v-24.83Z"/>
      <path class="cls-3" d="M90.27,265.29c0-.52.03-1.11.1-1.77.07-.66.17-1.31.31-1.96h3.01v2.92c0,1.28.12,2.16.36,2.64.24.48.62.72,1.16.72.46,0,.81-.2,1.07-.6.26-.4.39-1.16.39-2.28v-19.23h3.77v18.81c0,1.72-.25,3.02-.75,3.92-.5.9-1.15,1.51-1.94,1.84-.79.33-1.64.49-2.53.49-1.25,0-2.23-.25-2.95-.75-.72-.5-1.23-1.17-1.53-2-.3-.83-.45-1.75-.45-2.75Z"/>
      <path class="cls-3" d="M110.07,270.77c-.6,0-1.26-.09-1.97-.26-.71-.17-1.39-.54-2.03-1.09-.64-.55-1.16-1.38-1.57-2.49-.41-1.11-.61-2.6-.61-4.46v-8.8c0-1.49.14-2.74.41-3.73.28-.99.64-1.79,1.09-2.38.45-.6.95-1.04,1.5-1.34.55-.3,1.1-.49,1.65-.58s1.06-.14,1.53-.14.94.04,1.49.13c.55.09,1.09.27,1.64.56.54.29,1.04.73,1.49,1.32.45.59.81,1.39,1.09,2.38.28,1,.41,2.26.41,3.78v8.8c0,1.84-.21,3.31-.64,4.42-.43,1.1-.96,1.94-1.61,2.49s-1.32.93-2.01,1.11c-.69.18-1.31.28-1.85.28ZM110.07,267.82c.75,0,1.3-.28,1.66-.84.36-.56.54-1.61.54-3.15v-11.19c0-1.59-.18-2.68-.54-3.28-.36-.6-.91-.89-1.66-.89s-1.33.3-1.69.89-.55,1.69-.55,3.28v11.19c0,1.54.18,2.59.55,3.15.36.56.93.84,1.69.84Z"/>
      <path class="cls-3" d="M119.9,245.72h2.98l6.06,16.33h.09c-.04-.51-.09-1.09-.15-1.72-.06-.64-.12-1.4-.17-2.29-.05-.89-.07-1.98-.07-3.26v-9.06h3.34v24.83h-3.01l-6.03-15.89h-.12c.05.58.1,1.22.16,1.9.06.69.11,1.56.16,2.6.05,1.05.07,2.41.07,4.08v7.3h-3.31v-24.83Z"/>
      <path class="cls-3" d="M136.08,245.72h9.49v2.97h-5.73v7.43h4.49v2.97h-4.49v8.5h5.73v2.97h-9.49v-24.83Z"/>
      <path class="cls-3" d="M146.87,265.52c0-.53.03-1.03.09-1.48.06-.46.16-.94.28-1.45h2.92v1.1c0,1.34.2,2.36.61,3.07.41.71,1.03,1.07,1.87,1.07,1.45,0,2.18-.71,2.18-2.14,0-.55-.12-1.13-.36-1.74s-.7-1.36-1.39-2.24l-3.93-4.93c-.69-.89-1.22-1.78-1.61-2.67-.38-.89-.57-1.88-.57-2.98,0-1.65.51-3,1.53-4.05,1.02-1.05,2.44-1.58,4.25-1.58,1.46,0,2.61.26,3.45.79s1.42,1.19,1.77,2c.34.8.52,1.63.52,2.47,0,.53-.04,1.02-.12,1.48-.08.45-.18.95-.28,1.49h-2.91v-1.19c0-1.31-.21-2.32-.63-3.02s-1.01-1.06-1.79-1.06c-.71,0-1.24.2-1.61.59s-.55.92-.55,1.58c0,.56.12,1.07.35,1.53s.53.93.89,1.42l4.38,5.55c.8,1.04,1.42,2.02,1.84,2.96s.63,1.97.63,3.12c0,1.72-.55,3.07-1.64,4.08-1.09,1-2.55,1.5-4.38,1.5-1.49,0-2.66-.25-3.51-.76-.85-.51-1.44-1.17-1.79-1.97-.34-.8-.52-1.65-.52-2.53Z"/>
    </g>
    <g>
      <path class="cls-3" d="M168.84,305.72h2.2v8.91c0,1.21-.38,2.18-1.14,2.9-.76.72-1.76,1.07-3,1.07-1.33,0-2.35-.33-3.07-1-.72-.67-1.08-1.6-1.08-2.79h2.2c0,.67.17,1.18.5,1.52.33.34.82.51,1.45.51.59,0,1.07-.2,1.42-.59.35-.39.53-.93.53-1.63v-8.9Z"/>
      <path class="cls-3" d="M172.96,313.61c0-.92.18-1.76.55-2.5.37-.74.88-1.31,1.54-1.71.66-.4,1.42-.6,2.29-.6,1.27,0,2.31.41,3.1,1.23.79.82,1.22,1.91,1.29,3.26v.5c0,.93-.17,1.76-.53,2.49-.36.73-.87,1.3-1.54,1.7s-1.43.6-2.31.6c-1.33,0-2.4-.44-3.2-1.33-.8-.89-1.2-2.07-1.2-3.55v-.1ZM175.08,313.79c0,.97.2,1.73.6,2.28.4.55.96.82,1.67.82s1.27-.28,1.67-.84c.4-.56.6-1.38.6-2.45,0-.95-.2-1.71-.62-2.27-.41-.56-.97-.84-1.67-.84s-1.24.28-1.65.82c-.41.55-.61,1.37-.61,2.46Z"/>
      <path class="cls-3" d="M185.62,310.01c.69-.8,1.57-1.2,2.63-1.2,2.01,0,3.03,1.15,3.06,3.45v6.17h-2.12v-6.09c0-.65-.14-1.11-.42-1.38-.28-.27-.7-.41-1.24-.41-.85,0-1.48.38-1.9,1.13v6.74h-2.12v-13.4h2.12v4.99Z"/>
      <path class="cls-3" d="M195.41,308.98l.06,1.09c.7-.84,1.61-1.26,2.75-1.26,1.97,0,2.97,1.13,3,3.38v6.24h-2.12v-6.11c0-.6-.13-1.04-.39-1.33-.26-.29-.68-.43-1.27-.43-.86,0-1.49.39-1.91,1.16v6.72h-2.12v-9.44h2Z"/>
      <path class="cls-3" d="M202.77,309.48l-1.08-.67c.52-.76.79-1.57.81-2.42v-1.38h1.86v1.2c0,.6-.15,1.2-.46,1.81-.31.61-.68,1.09-1.13,1.45Z"/>
      <path class="cls-3" d="M209.47,315.85c0-.38-.16-.67-.47-.86-.31-.2-.83-.37-1.55-.52-.72-.15-1.32-.34-1.81-.58-1.06-.51-1.59-1.25-1.59-2.22,0-.81.34-1.49,1.03-2.04.69-.55,1.56-.82,2.62-.82,1.13,0,2.04.28,2.73.84.69.56,1.04,1.28,1.04,2.17h-2.12c0-.41-.15-.75-.45-1.02-.3-.27-.7-.41-1.2-.41-.47,0-.84.11-1.14.32-.29.22-.44.5-.44.86,0,.33.14.58.41.76.27.18.83.36,1.66.55.83.18,1.48.4,1.96.65s.83.56,1.06.91c.23.35.34.78.34,1.29,0,.85-.35,1.54-1.06,2.06-.7.53-1.63.79-2.76.79-.77,0-1.46-.14-2.07-.42-.6-.28-1.08-.66-1.41-1.15-.34-.49-.51-1.01-.51-1.58h2.06c.03.5.22.89.57,1.16s.81.41,1.39.41.98-.11,1.27-.32c.29-.21.44-.49.44-.83Z"/>
      <path class="cls-3" d="M220.26,316.65h5.77v1.76h-7.97v-12.7h2.21v10.94Z"/>
      <path class="cls-3" d="M233.15,318.42c-.09-.18-.17-.47-.24-.88-.67.7-1.5,1.06-2.48,1.06s-1.72-.27-2.32-.81c-.6-.54-.9-1.21-.9-2.01,0-1.01.37-1.78,1.12-2.32.75-.54,1.82-.81,3.21-.81h1.3v-.62c0-.49-.14-.88-.41-1.17s-.69-.44-1.25-.44c-.48,0-.88.12-1.19.36-.31.24-.46.55-.46.92h-2.12c0-.52.17-1,.51-1.45s.81-.8,1.4-1.06c.59-.26,1.25-.38,1.98-.38,1.1,0,1.99.28,2.64.83.66.56.99,1.34,1.01,2.34v4.26c0,.85.12,1.53.36,2.03v.15h-2.16ZM230.82,316.89c.42,0,.81-.1,1.18-.31.37-.2.65-.48.83-.82v-1.78h-1.14c-.79,0-1.38.14-1.77.41-.4.27-.59.66-.59,1.16,0,.41.14.73.41.97s.63.36,1.09.36Z"/>
      <path class="cls-3" d="M245.47,315.49l1.5-6.52h2.07l-2.57,9.44h-1.74l-2.02-6.48-1.99,6.48h-1.74l-2.58-9.44h2.07l1.53,6.45,1.94-6.45h1.6l1.96,6.52Z"/>
      <path class="cls-3" d="M253.76,315.38l1.92-6.4h2.26l-3.75,10.87c-.58,1.59-1.55,2.38-2.93,2.38-.31,0-.65-.05-1.02-.16v-1.65l.4.03c.53,0,.94-.1,1.21-.29.27-.19.48-.52.64-.98l.31-.81-3.31-9.39h2.29l2,6.4Z"/>
      <path class="cls-3" d="M263.19,318.59c-1.34,0-2.43-.42-3.27-1.27-.83-.85-1.25-1.97-1.25-3.38v-.26c0-.94.18-1.78.55-2.53.36-.74.87-1.32,1.53-1.73s1.39-.62,2.2-.62c1.29,0,2.28.41,2.98,1.23.7.82,1.05,1.98,1.05,3.48v.86h-6.17c.06.78.32,1.4.78,1.85.46.45,1.03.68,1.72.68.97,0,1.76-.39,2.37-1.18l1.14,1.09c-.38.56-.88,1-1.51,1.31-.63.31-1.34.47-2.12.47ZM262.94,310.5c-.58,0-1.05.2-1.41.61s-.59.97-.68,1.7h4.04v-.16c-.05-.71-.24-1.25-.57-1.61-.33-.36-.79-.55-1.38-.55Z"/>
      <path class="cls-3" d="M273.56,310.91c-.28-.05-.57-.07-.86-.07-.97,0-1.63.37-1.96,1.12v6.45h-2.12v-9.44h2.02l.05,1.06c.51-.82,1.22-1.23,2.13-1.23.3,0,.55.04.75.12v1.99Z"/>
    </g>
    <rect class="cls-1" x="12.32" y="330.73" width="267.68" height="5.49"/>
  </g>
</svg>