<?xml version="1.0" encoding="UTF-8"?>
<svg id="Layer_1" data-name="Layer 1" xmlns="http://www.w3.org/2000/svg" viewBox="0 0 280 347.19">
  <defs>
    <style>
      .cls-1 {
        fill: #808184;
      }

      .cls-1, .cls-2, .cls-3, .cls-4 {
        stroke-width: 0px;
      }

      .cls-2 {
        fill: #00a551;
      }

      .cls-3 {
        fill: #fffffa;
      }

      .cls-4 {
        fill: #325e81;
      }
    </style>
  </defs>
  <polygon class="cls-1" points="0 239.28 12.32 231.46 12.32 239.28 0 239.28"/>
  <g>
    <path class="cls-4" d="M107.12,0H12.32v347.19h267.68V0H107.12Z"/>
    <polygon class="cls-2" points="203.26 239.28 0 239.28 0 276.61 203.26 276.61 186.88 257.95 203.26 239.28"/>
    <g>
      <path class="cls-3" d="M20.83,245.72h3.76v21.86h5.13v2.97h-8.9v-24.83Z"/>
      <path class="cls-3" d="M37.12,270.77c-.6,0-1.26-.09-1.97-.26-.71-.17-1.39-.54-2.03-1.09-.64-.55-1.16-1.38-1.57-2.49-.41-1.11-.61-2.6-.61-4.46v-8.8c0-1.49.14-2.74.41-3.73.28-.99.64-1.79,1.09-2.38.45-.6.95-1.04,1.5-1.34.55-.3,1.1-.49,1.65-.58.55-.09,1.06-.14,1.53-.14s.94.04,1.49.13,1.09.27,1.64.56c.54.29,1.04.73,1.49,1.32.45.59.81,1.39,1.09,2.38.28,1,.41,2.26.41,3.78v8.8c0,1.84-.21,3.31-.64,4.42-.43,1.1-.96,1.94-1.61,2.49-.65.56-1.32.93-2.01,1.11-.69.18-1.31.28-1.85.28ZM37.12,267.82c.75,0,1.3-.28,1.66-.84.36-.56.54-1.61.54-3.15v-11.19c0-1.59-.18-2.68-.54-3.28-.36-.6-.91-.89-1.66-.89s-1.33.3-1.69.89-.54,1.69-.54,3.28v11.19c0,1.54.18,2.59.54,3.15.36.56.93.84,1.69.84Z"/>
      <path class="cls-3" d="M52.08,270.78c-.35,0-.76-.05-1.24-.16-.48-.11-.97-.31-1.47-.63-.5-.31-.96-.77-1.4-1.38s-.78-1.41-1.05-2.41c-.27-1-.4-2.24-.4-3.74v-8.8c0-1.49.14-2.74.42-3.73.28-.99.65-1.79,1.11-2.38.46-.6.97-1.04,1.53-1.34.56-.3,1.12-.49,1.69-.58s1.08-.14,1.56-.14c1.35,0,2.42.24,3.21.71.79.47,1.36,1.11,1.7,1.91.34.8.52,1.68.52,2.64,0,.53-.04,1.02-.12,1.48-.08.45-.17.95-.28,1.49h-2.91v-1.19c0-2.72-.74-4.08-2.22-4.08-.79,0-1.37.3-1.73.89s-.54,1.69-.54,3.28v11.19c0,1.54.18,2.59.55,3.16.37.57.95.85,1.74.85s1.44-.4,1.82-1.21c.38-.81.57-1.81.57-3v-3.17h-1.93v-2.47h5.54v12.57h-2.44l-.41-2.37c-.35.69-.86,1.29-1.54,1.82-.68.52-1.44.79-2.28.79Z"/>
      <path class="cls-3" d="M64.92,245.72h4.24l4.64,24.83h-3.78l-.68-4.45h-4.59l-.65,4.45h-3.79l4.62-24.83ZM68.9,263.27l-1.77-12.43h-.16l-1.79,12.43h3.72Z"/>
      <path class="cls-3" d="M76.05,245.72h2.98l6.06,16.33h.09c-.04-.51-.09-1.09-.15-1.72-.06-.64-.12-1.4-.17-2.29-.05-.89-.07-1.98-.07-3.26v-9.06h3.34v24.83h-3.01l-6.03-15.89h-.12c.05.58.1,1.22.16,1.9.06.69.11,1.56.16,2.6.05,1.05.07,2.41.07,4.08v7.3h-3.31v-24.83Z"/>
      <path class="cls-3" d="M98.66,245.72h3.76v10.39h4.46v-10.39h3.76v24.83h-3.76v-11.47h-4.46v11.47h-3.76v-24.83Z"/>
      <path class="cls-3" d="M120.61,270.77c-.43,0-.9-.04-1.43-.12-.53-.08-1.05-.26-1.58-.54s-1-.7-1.44-1.26c-.44-.57-.79-1.33-1.05-2.29s-.4-2.17-.4-3.63v-17.2h3.76v18.08c0,1.54.17,2.59.52,3.16.34.57.88.85,1.62.85s1.29-.28,1.64-.85c.34-.57.52-1.62.52-3.16v-18.08h3.75v17.2c0,1.46-.13,2.67-.4,3.63s-.62,1.72-1.05,2.29c-.44.57-.92.99-1.44,1.26s-1.05.46-1.57.54c-.52.08-1,.12-1.44.12Z"/>
      <path class="cls-3" d="M130.57,245.72h2.98l6.06,16.33h.09c-.04-.51-.09-1.09-.15-1.72-.06-.64-.12-1.4-.17-2.29-.05-.89-.07-1.98-.07-3.26v-9.06h3.34v24.83h-3.01l-6.03-15.89h-.12c.05.58.1,1.22.16,1.9.06.69.11,1.56.16,2.6.05,1.05.07,2.41.07,4.08v7.3h-3.31v-24.83Z"/>
      <path class="cls-3" d="M148.68,248.69h-4v-2.97h11.75v2.97h-3.98v21.86h-3.76v-21.86Z"/>
    </g>
    <g>
      <path class="cls-3" d="M155.24,315.46h-4.92l-1.03,2.96h-2.29l4.8-12.7h1.98l4.81,12.7h-2.3l-1.04-2.96ZM150.94,313.68h3.68l-1.84-5.27-1.84,5.27Z"/>
      <path class="cls-3" d="M162.07,318.42h-2.12v-13.4h2.12v13.4Z"/>
      <path class="cls-3" d="M172.64,313.79c0,1.46-.33,2.62-.99,3.49-.66.87-1.55,1.3-2.67,1.3-1.03,0-1.86-.34-2.49-1.02v4.47h-2.12v-13.07h1.95l.09.96c.62-.76,1.47-1.13,2.54-1.13,1.15,0,2.05.43,2.71,1.29.65.86.98,2.05.98,3.57v.13ZM170.53,313.61c0-.94-.19-1.69-.56-2.24s-.91-.83-1.61-.83c-.87,0-1.49.36-1.87,1.07v4.19c.38.73,1.01,1.1,1.88,1.1.67,0,1.2-.27,1.58-.82.38-.54.57-1.37.57-2.47Z"/>
      <path class="cls-3" d="M176.52,310.01c.69-.8,1.57-1.2,2.63-1.2,2.01,0,3.03,1.15,3.06,3.45v6.17h-2.12v-6.09c0-.65-.14-1.11-.42-1.38-.28-.27-.7-.41-1.24-.41-.85,0-1.48.38-1.9,1.13v6.74h-2.12v-13.4h2.12v4.99Z"/>
      <path class="cls-3" d="M189.99,318.42c-.09-.18-.17-.47-.24-.88-.67.7-1.5,1.06-2.48,1.06s-1.72-.27-2.32-.81-.9-1.21-.9-2.01c0-1.01.37-1.78,1.12-2.32.75-.54,1.82-.81,3.21-.81h1.3v-.62c0-.49-.14-.88-.41-1.17s-.69-.44-1.25-.44c-.48,0-.88.12-1.19.36-.31.24-.46.55-.46.92h-2.12c0-.52.17-1,.51-1.45s.81-.8,1.4-1.06c.59-.26,1.25-.38,1.98-.38,1.1,0,1.99.28,2.64.83.66.56.99,1.34,1.01,2.34v4.26c0,.85.12,1.53.36,2.03v.15h-2.16ZM187.66,316.89c.42,0,.81-.1,1.18-.31.37-.2.65-.48.83-.82v-1.78h-1.14c-.78,0-1.38.14-1.77.41-.4.27-.59.66-.59,1.16,0,.41.14.73.41.97s.63.36,1.09.36Z"/>
      <path class="cls-3" d="M200.87,313.71v4.71h-2.21v-12.7h4.86c1.42,0,2.55.37,3.38,1.11.83.74,1.25,1.72,1.25,2.93s-.41,2.21-1.23,2.91c-.82.69-1.96,1.04-3.43,1.04h-2.63ZM200.87,311.93h2.65c.78,0,1.38-.18,1.8-.55.41-.37.62-.9.62-1.6s-.21-1.23-.63-1.64c-.42-.41-.99-.62-1.73-.63h-2.71v4.43Z"/>
      <path class="cls-3" d="M214.82,310.91c-.28-.05-.57-.07-.86-.07-.97,0-1.63.37-1.96,1.12v6.45h-2.12v-9.44h2.02l.05,1.06c.51-.82,1.22-1.23,2.13-1.23.3,0,.55.04.75.12v1.99Z"/>
      <path class="cls-3" d="M220.15,318.59c-1.34,0-2.43-.42-3.27-1.27-.83-.85-1.25-1.97-1.25-3.38v-.26c0-.94.18-1.78.55-2.53.36-.74.87-1.32,1.53-1.73s1.39-.62,2.2-.62c1.29,0,2.28.41,2.98,1.23.7.82,1.05,1.98,1.05,3.48v.86h-6.17c.06.78.32,1.4.78,1.85.46.45,1.03.68,1.72.68.97,0,1.76-.39,2.37-1.18l1.14,1.09c-.38.56-.88,1-1.51,1.31-.63.31-1.34.47-2.12.47ZM219.89,310.5c-.58,0-1.05.2-1.41.61-.36.41-.59.97-.68,1.7h4.04v-.16c-.05-.71-.24-1.25-.57-1.61-.33-.36-.79-.55-1.38-.55Z"/>
      <path class="cls-3" d="M230.87,315.85c0-.38-.16-.67-.47-.86-.31-.2-.83-.37-1.55-.52-.72-.15-1.32-.34-1.81-.58-1.06-.51-1.59-1.25-1.59-2.22,0-.81.34-1.49,1.03-2.04.69-.55,1.56-.82,2.62-.82,1.13,0,2.04.28,2.73.84.69.56,1.04,1.28,1.04,2.17h-2.12c0-.41-.15-.75-.45-1.02-.3-.27-.7-.41-1.2-.41-.47,0-.85.11-1.14.32-.29.22-.44.5-.44.86,0,.33.14.58.41.76.27.18.83.36,1.66.55.83.18,1.48.4,1.96.65.47.25.83.56,1.06.91.23.35.34.78.34,1.29,0,.85-.35,1.54-1.06,2.06-.7.53-1.63.79-2.76.79-.77,0-1.46-.14-2.07-.42-.6-.28-1.08-.66-1.41-1.15-.34-.49-.51-1.01-.51-1.58h2.06c.03.5.22.89.57,1.16s.81.41,1.39.41.98-.11,1.27-.32c.29-.21.44-.49.44-.83Z"/>
      <path class="cls-3" d="M234.8,306.53c0-.33.1-.6.31-.81.21-.22.5-.32.89-.32s.68.11.89.32c.21.22.31.49.31.81s-.1.59-.31.8c-.21.21-.51.32-.89.32s-.68-.11-.89-.32c-.21-.21-.31-.48-.31-.8ZM237.05,318.42h-2.12v-9.44h2.12v9.44Z"/>
      <path class="cls-3" d="M238.96,313.63c0-1.45.34-2.62,1.01-3.5.67-.88,1.58-1.32,2.71-1.32,1,0,1.81.35,2.42,1.05v-4.83h2.12v13.4h-1.92l-.1-.98c-.63.77-1.48,1.15-2.54,1.15s-2-.45-2.68-1.33c-.68-.89-1.03-2.1-1.03-3.63ZM241.08,313.81c0,.96.18,1.71.55,2.25.37.54.89.81,1.57.81.87,0,1.5-.39,1.9-1.16v-4.03c-.39-.76-1.02-1.13-1.88-1.13-.69,0-1.22.27-1.59.82-.37.54-.56,1.36-.56,2.46Z"/>
      <path class="cls-3" d="M253.6,318.59c-1.34,0-2.43-.42-3.27-1.27-.83-.85-1.25-1.97-1.25-3.38v-.26c0-.94.18-1.78.55-2.53.36-.74.87-1.32,1.53-1.73s1.39-.62,2.2-.62c1.29,0,2.28.41,2.98,1.23.7.82,1.05,1.98,1.05,3.48v.86h-6.17c.06.78.32,1.4.78,1.85.46.45,1.03.68,1.72.68.97,0,1.76-.39,2.37-1.18l1.14,1.09c-.38.56-.88,1-1.51,1.31-.63.31-1.34.47-2.12.47ZM253.35,310.5c-.58,0-1.05.2-1.41.61s-.59.97-.68,1.7h4.04v-.16c-.05-.71-.24-1.25-.57-1.61-.33-.36-.79-.55-1.38-.55Z"/>
      <path class="cls-3" d="M260.99,308.98l.06,1.09c.7-.84,1.61-1.26,2.75-1.26,1.96,0,2.97,1.13,3,3.38v6.24h-2.12v-6.11c0-.6-.13-1.04-.39-1.33-.26-.29-.68-.43-1.27-.43-.85,0-1.49.39-1.91,1.16v6.72h-2.12v-9.44h2Z"/>
      <path class="cls-3" d="M271.62,306.68v2.29h1.67v1.57h-1.67v5.27c0,.36.07.62.21.78.14.16.4.24.76.24.24,0,.49-.03.74-.09v1.64c-.48.13-.95.2-1.4.2-1.63,0-2.44-.9-2.44-2.7v-5.35h-1.55v-1.57h1.55v-2.29h2.12Z"/>
    </g>
    <rect class="cls-2" x="12.32" y="330.73" width="267.68" height="5.49"/>
  </g>
</svg>