<?xml version="1.0" encoding="UTF-8"?>
<svg id="OBJECTS" xmlns="http://www.w3.org/2000/svg" viewBox="0 0 117 147.24">
  <defs>
    <style>
      .cls-1 {
        fill: #f6921e;
      }

      .cls-1, .cls-2 {
        stroke-width: 0px;
      }

      .cls-2 {
        fill: #fff;
      }
    </style>
  </defs>
  <path class="cls-1" d="M0,0h97c11.04,0,20,8.96,20,20v107.24c0,11.04-8.96,20-20,20H0V0h0Z"/>
  <g>
    <path class="cls-2" d="M87.96,23.65c.39,0,.76.02,1.1.07.34.05.69.12,1.07.21v2.16h-.82c-.99,0-1.75.15-2.27.45-.53.3-.79.76-.79,1.39,0,1.07.53,1.61,1.58,1.61.41,0,.84-.09,1.29-.26.45-.18,1-.52,1.65-1.03l3.64-2.9c.66-.51,1.32-.9,1.98-1.19.66-.28,1.39-.42,2.2-.42,1.22,0,2.21.38,2.99,1.13.78.76,1.17,1.8,1.17,3.14,0,1.08-.2,1.93-.58,2.55-.39.62-.88,1.05-1.48,1.31-.59.25-1.2.38-1.83.38-.39,0-.76-.03-1.09-.09-.33-.06-.7-.13-1.1-.21v-2.15h.88c.97,0,1.71-.15,2.23-.46.52-.31.78-.75.78-1.32,0-.52-.14-.92-.44-1.19-.29-.27-.68-.4-1.17-.4-.42,0-.79.09-1.13.26-.34.17-.69.39-1.05.66l-4.1,3.23c-.77.59-1.5,1.05-2.19,1.36-.69.31-1.46.47-2.3.47-1.27,0-2.27-.4-3.01-1.21-.74-.81-1.11-1.89-1.11-3.23,0-1.1.19-1.97.56-2.59.38-.63.86-1.07,1.46-1.32.59-.25,1.22-.38,1.87-.38Z"/>
    <path class="cls-2" d="M99.03,34.26v2.72h-10.88c-.65,0-1.1.1-1.36.3-.25.2-.38.49-.38.88,0,.57.29,1.07.87,1.49h11.75v2.72h-14.79v-2.07l1.58-.27h0c-.67-.43-1.13-.91-1.38-1.44-.25-.53-.37-1.07-.37-1.62,0-.86.3-1.53.91-2,.6-.47,1.51-.71,2.72-.71h11.33Z"/>
    <path class="cls-2" d="M87.34,44.43c.32,0,.63.03.93.09.3.06.54.12.72.18v1.91c-1.07,0-1.82.13-2.25.4-.43.27-.64.65-.64,1.15,0,.36.11.64.33.84.22.2.48.3.78.3s.62-.08.91-.25c.29-.17.62-.4.97-.69l2.34-1.9c.65-.52,1.33-.98,2.05-1.38.71-.4,1.5-.61,2.36-.61.77,0,1.4.17,1.9.5.5.34.87.78,1.11,1.33.24.55.37,1.15.37,1.79,0,1.07-.26,1.92-.77,2.56-.51.64-1.28.96-2.3.96-.34,0-.67-.03-.99-.09-.33-.06-.6-.12-.83-.18v-1.88c.97-.01,1.7-.13,2.17-.34s.71-.57.71-1.06c0-.42-.13-.7-.39-.86-.26-.16-.54-.24-.86-.24-.34,0-.65.09-.93.26-.28.17-.59.39-.93.67l-2.6,2.15c-.26.21-.59.45-.98.72-.4.27-.85.51-1.34.71-.5.2-1.04.31-1.62.31-1.04,0-1.87-.33-2.51-.98-.63-.65-.95-1.58-.95-2.79,0-.66.1-1.26.31-1.8.21-.54.54-.98,1.02-1.29.48-.32,1.12-.48,1.93-.48Z"/>
    <path class="cls-2" d="M92.46,56.58c.14.27.28.57.42.88.14.31.26.6.35.87h1.79c.37,0,.72-.02,1.04-.05s.58-.13.79-.29c.2-.16.31-.44.31-.82s-.16-.73-.47-1.04c-.32-.31-.9-.46-1.75-.46h-.59v-2.07c.56-.13,1.05-.19,1.46-.19,1.1,0,1.94.36,2.52,1.08.58.72.87,1.65.87,2.77,0,.98-.14,1.75-.41,2.3-.28.55-.69.94-1.25,1.16-.55.22-1.26.33-2.11.33h-11.18v-2.09l1.27-.19c-.42-.29-.76-.67-1.03-1.14s-.41-1.02-.41-1.64.17-1.17.49-1.59c.33-.42.76-.73,1.3-.93.54-.2,1.13-.31,1.77-.31,1.22,0,2.19.29,2.91.87.72.58,1.36,1.43,1.92,2.56ZM86.14,57.18c0,.23.06.44.18.63.12.19.26.37.44.52h4.66c-.06-.14-.12-.28-.2-.44-.08-.16-.18-.34-.31-.55-.24-.38-.59-.73-1.06-1.06-.47-.33-1.06-.49-1.79-.49-.57,0-1.03.11-1.38.33-.36.22-.53.58-.53,1.06Z"/>
    <path class="cls-2" d="M99.03,63.79v2.07l-1.58.27h-.01c.68.42,1.14.9,1.39,1.44.25.54.37,1.08.37,1.62,0,.86-.3,1.53-.91,2s-1.51.71-2.72.71h-11.33v-2.72h11.01c.65,0,1.1-.1,1.36-.3.25-.2.38-.49.38-.88,0-.27-.09-.54-.27-.79s-.43-.49-.74-.7h-11.74v-2.72h14.79Z"/>
    <path class="cls-2" d="M84.08,83.73c0-.44.06-.93.19-1.46s.4-1.03.81-1.5,1.02-.86,1.84-1.16c.82-.3,1.92-.45,3.29-.45h6.5c1.1,0,2.02.1,2.75.31.73.2,1.32.47,1.76.81.44.33.77.7.99,1.11.22.4.36.81.43,1.21.07.4.1.78.1,1.12,0,.95-.18,1.69-.53,2.25-.35.55-.82.95-1.41,1.19-.59.24-1.24.36-1.95.36-.39,0-.76-.03-1.09-.09-.33-.06-.7-.13-1.1-.21v-2.15h.88c2.01,0,3.02-.47,3.02-1.42,0-.51-.22-.9-.66-1.17-.44-.27-1.25-.4-2.42-.4h-8.27c-1.14,0-1.92.13-2.33.4s-.62.69-.62,1.25c0,.39.17.72.5.98.33.26.87.39,1.61.39h1.74v2.44h-1.7c-1.47,0-2.56-.33-3.27-.98-.71-.65-1.06-1.59-1.06-2.83Z"/>
    <path class="cls-2" d="M92.46,92.02c.14.27.28.57.42.88.14.31.26.6.35.87h1.79c.37,0,.72-.02,1.04-.05s.58-.13.79-.29c.2-.16.31-.44.31-.82s-.16-.73-.47-1.04c-.32-.31-.9-.46-1.75-.46h-.59v-2.07c.56-.13,1.05-.19,1.46-.19,1.1,0,1.94.36,2.52,1.08.58.72.87,1.65.87,2.77,0,.98-.14,1.75-.41,2.3-.28.55-.69.94-1.25,1.16-.55.22-1.26.33-2.11.33h-11.18v-2.09l1.27-.19c-.42-.29-.76-.67-1.03-1.14s-.41-1.02-.41-1.64.17-1.17.49-1.59c.33-.42.76-.73,1.3-.93.54-.2,1.13-.31,1.77-.31,1.22,0,2.19.29,2.91.87.72.58,1.36,1.43,1.92,2.56ZM86.14,92.62c0,.23.06.44.18.63.12.19.26.37.44.52h4.66c-.06-.14-.12-.28-.2-.44-.08-.16-.18-.34-.31-.55-.24-.38-.59-.73-1.06-1.06-.47-.33-1.06-.49-1.79-.49-.57,0-1.03.11-1.38.33-.36.22-.53.58-.53,1.06Z"/>
    <path class="cls-2" d="M99.03,99.23v2.72h-14.79v-2.72h14.79ZM101.09,100.57c0-.5.16-.9.47-1.21.32-.3.76-.46,1.33-.46.64,0,1.09.15,1.35.46.26.3.4.71.4,1.22s-.14.94-.43,1.24c-.29.3-.73.45-1.32.45-.56,0-1-.15-1.32-.45s-.48-.72-.48-1.25Z"/>
    <path class="cls-2" d="M99.03,104.72v2.07l-1.58.27h-.01c.68.42,1.14.9,1.39,1.44.25.54.37,1.08.37,1.62,0,.86-.3,1.53-.91,2s-1.51.71-2.72.71h-11.33v-2.72h11.01c.65,0,1.1-.1,1.36-.3.25-.2.38-.49.38-.88,0-.27-.09-.54-.27-.79s-.43-.49-.74-.7h-11.74v-2.72h14.79Z"/>
    <path class="cls-2" d="M90.3,115.21h2.79c1.13,0,2.07.1,2.81.29s1.34.45,1.78.77c.44.32.77.67.99,1.05.21.38.36.76.42,1.14.07.38.1.73.1,1.04,0,.65-.14,1.25-.41,1.8-.28.55-.75.99-1.42,1.33-.67.33-1.6.5-2.79.5-.59,0-1.2-.03-1.82-.1-.62-.06-1.17-.15-1.64-.26v-4.84h-1.5c-1.29,0-2.2.11-2.73.33-.53.22-.79.64-.79,1.25,0,.34.15.64.43.91.29.27.83.41,1.61.41h.64v2.23h-.68c-1.4,0-2.43-.33-3.07-1-.64-.67-.96-1.64-.96-2.91s.49-2.25,1.46-2.93c.97-.68,2.56-1.02,4.76-1.02ZM92.95,120.6c.16.01.4.02.71.03.32,0,.58.01.77.01.98,0,1.68-.1,2.11-.31.42-.21.64-.54.64-.99,0-.48-.24-.83-.73-1.06-.48-.23-1.36-.34-2.64-.34h-.87v2.66Z"/>
  </g>
</svg>