<?xml version="1.0" encoding="UTF-8"?>
<svg id="OBJECTS" xmlns="http://www.w3.org/2000/svg" viewBox="0 0 117 117">
  <defs>
    <style>
      .cls-1 {
        fill: #919396;
      }

      .cls-1, .cls-2 {
        stroke-width: 0px;
      }

      .cls-2 {
        fill: #fff;
      }
    </style>
  </defs>
  <path class="cls-1" d="M0,0h97c11.04,0,20,8.96,20,20v77c0,11.04-8.96,20-20,20H0V0h0Z"/>
  <g>
    <path class="cls-2" d="M102.59,36.2v2.78h-7.68v3.3h7.68v2.78h-18.35v-2.78h8.48v-3.3h-8.48v-2.78h18.35Z"/>
    <path class="cls-2" d="M84.08,51.63c0-.47.07-.95.21-1.43.14-.48.42-.92.85-1.33s1.08-.73,1.95-.97c.87-.24,2.04-.37,3.5-.37h2.32c1.44,0,2.58.12,3.42.38.84.25,1.47.58,1.88.99.41.41.68.85.8,1.33.13.48.19.95.19,1.41s-.06.9-.18,1.38c-.12.47-.38.91-.79,1.31-.4.4-1.03.73-1.88.98-.85.25-2,.38-3.45.38h-2.32c-1.44,0-2.59-.13-3.45-.39-.86-.26-1.51-.59-1.96-1-.44-.41-.73-.85-.88-1.32-.15-.47-.22-.92-.22-1.35ZM86.1,51.65c0,.49.27.82.81,1.01.54.19,1.5.28,2.88.28h3.68c1.39,0,2.36-.09,2.9-.28.54-.19.82-.53.82-1.01s-.27-.87-.82-1.07c-.54-.21-1.51-.31-2.9-.31h-3.68c-1.38,0-2.34.1-2.88.31-.54.21-.81.56-.81,1.07Z"/>
    <path class="cls-2" d="M99.03,58.08v2.08l-1.58.26h-.01c.68.42,1.14.9,1.39,1.45.25.54.37,1.08.37,1.63,0,1.18-.56,1.98-1.68,2.38.64.42,1.08.9,1.32,1.42.24.53.36,1.06.36,1.6,0,.85-.3,1.51-.91,1.99s-1.51.71-2.72.71h-11.33v-2.72h11.01c.65,0,1.1-.1,1.36-.3.25-.2.38-.52.38-.96,0-.24-.09-.49-.28-.75s-.44-.49-.75-.69c-.06,0-.13.01-.19.01h-11.53v-2.72h11.01c.65,0,1.1-.1,1.36-.29.25-.2.38-.52.38-.96,0-.24-.09-.49-.27-.74-.18-.25-.43-.48-.74-.68h-11.74v-2.72h14.79Z"/>
    <path class="cls-2" d="M90.3,73.98h2.79c1.13,0,2.07.1,2.81.29s1.34.45,1.78.77.77.67.99,1.05.36.76.42,1.14c.07.38.1.73.1,1.04,0,.65-.14,1.25-.41,1.8-.28.55-.75.99-1.42,1.33-.67.33-1.6.5-2.79.5-.59,0-1.2-.03-1.82-.1-.62-.06-1.17-.15-1.64-.26v-4.85h-1.5c-1.29,0-2.2.11-2.73.33s-.79.63-.79,1.25c0,.34.15.64.43.91.29.27.83.41,1.61.41h.64v2.23h-.68c-1.4,0-2.43-.33-3.07-1-.64-.67-.96-1.64-.96-2.91s.49-2.25,1.46-2.93c.97-.68,2.56-1.02,4.76-1.02ZM92.95,79.37c.16.01.4.03.71.03.32,0,.58,0,.77,0,.98,0,1.68-.1,2.11-.31.42-.21.64-.54.64-.99,0-.48-.24-.83-.73-1.06-.48-.23-1.36-.34-2.64-.34h-.87v2.66Z"/>
  </g>
</svg>