<?xml version="1.0" encoding="UTF-8"?>
<svg id="Layer_1" data-name="Layer 1" xmlns="http://www.w3.org/2000/svg" viewBox="0 0 439.7 335.78">
  <defs>
    <style>
      .cls-1 {
        fill: #000;
        fill-rule: evenodd;
        stroke-width: 0px;
      }
    </style>
  </defs>
  <g id="Layer_1-2" data-name="Layer_1">
    <g id="_360889776" data-name=" 360889776">
      <path id="_360889536" data-name=" 360889536" class="cls-1" d="M23.5,81.58c-7.6,0-13.9,6.2-13.9,13.9v144.9c0,7.6,6.2,13.9,13.9,13.9h51c7.6,0,13.9-6.2,13.9-13.9V95.48c0-7.6-6.2-13.9-13.9-13.9H23.5ZM74.5,263.88H23.5c-12.9,0-23.5-10.5-23.5-23.5V95.48c0-12.9,10.5-23.5,23.5-23.5h51c12.9,0,23.5,10.5,23.5,23.5v144.9c0,12.9-10.6,23.5-23.5,23.5h0Z"/>
      <path id="_360889992" data-name=" 360889992" class="cls-1" d="M267.9,335.78c-6.7,0-13.8-2.1-19.3-6.2-8.5-6.3-16.3-12.3-23.9-18.1-41.5-31.9-71.5-55-132.6-66.4-2.6-.5-4.3-3-3.8-5.6s3-4.3,5.6-3.8c63.3,11.8,94.1,35.5,136.7,68.2,7.5,5.8,15.3,11.8,23.7,18,5.8,4.3,15,5.6,20.5,2.8,3.3-1.7,4.9-4.6,4.9-8.9V19.98c0-4.3-1.6-7.3-5-8.9-5.5-2.8-14.7-1.5-20.5,2.8-8.4,6.3-16.2,12.3-23.7,18-42.6,32.7-73.3,56.4-136.7,68.2-2.6.5-5.1-1.2-5.6-3.8s1.2-5.1,3.8-5.6c61.1-11.4,91-34.5,132.6-66.4,7.6-5.8,15.4-11.8,23.9-18.1,8.7-6.5,21.9-8.1,30.6-3.7,6.6,3.3,10.2,9.5,10.2,17.5v295.8c0,8-3.6,14.2-10.2,17.5-3.1,1.7-7.1,2.5-11.2,2.5h0Z"/>
      <path id="_360889368" data-name=" 360889368" class="cls-1" d="M284.7,234.08c-1.8,0-3.6-1-4.4-2.8-1.1-2.4,0-5.3,2.4-6.4,22.3-10.1,36.6-32.5,36.6-56.9s-14.4-46.8-36.6-56.9c-2.4-1.1-3.5-3.9-2.4-6.4,1.1-2.4,3.9-3.5,6.4-2.4,25.7,11.7,42.3,37.5,42.3,65.7s-16.6,54-42.3,65.7c-.7.2-1.3.4-2,.4h0Z"/>
      <path id="_360889896" data-name=" 360889896" class="cls-1" d="M326.6,255.28c-1.8,0-3.6-1-4.4-2.8-1.1-2.4,0-5.3,2.4-6.4,30.4-13.9,50.1-44.4,50.1-77.9s-19.7-64-50.1-77.9c-2.4-1.1-3.5-3.9-2.4-6.4,1.1-2.4,3.9-3.5,6.4-2.4,33.9,15.4,55.7,49.4,55.7,86.6s-21.9,71.2-55.7,86.6c-.6.4-1.3.6-2,.6h0Z"/>
      <path id="_360889344" data-name=" 360889344" class="cls-1" d="M368.5,276.48c-1.8,0-3.6-1-4.4-2.8-1.1-2.4,0-5.3,2.4-6.4,38.6-17.6,63.6-56.3,63.6-98.8s-24.9-81.2-63.6-98.8c-2.4-1.1-3.5-3.9-2.4-6.4,1.1-2.4,3.9-3.5,6.4-2.4,42,19.1,69.2,61.3,69.2,107.5s-27.2,88.4-69.2,107.5c-.6.4-1.3.6-2,.6Z"/>
    </g>
  </g>
</svg>