<?xml version="1.0" encoding="UTF-8"?>
<svg id="OBJECTS" xmlns="http://www.w3.org/2000/svg" viewBox="0 0 117 147.24">
  <defs>
    <style>
      .cls-1 {
        fill: #00a8a9;
      }

      .cls-1, .cls-2 {
        stroke-width: 0px;
      }

      .cls-2 {
        fill: #fff;
      }
    </style>
  </defs>
  <path class="cls-1" d="M0,0h97c11.04,0,20,8.96,20,20v107.24c0,11.04-8.96,20-20,20H0V0h0Z"/>
  <g>
    <path class="cls-2" d="M102.59,27.18v2.78h-8.01v.09l8.01,3.18v2.77l-8.6-3.53-9.74,3.93v-2.98l8.73-3.37v-.09h-8.73v-2.78h18.35Z"/>
    <path class="cls-2" d="M90.3,36.88h2.79c1.13,0,2.07.1,2.81.29s1.34.45,1.78.77c.44.32.77.67.99,1.05.21.38.36.76.42,1.14.07.38.1.73.1,1.04,0,.65-.14,1.25-.41,1.8-.28.55-.75.99-1.42,1.33-.67.33-1.6.5-2.79.5-.59,0-1.2-.03-1.82-.1-.62-.06-1.17-.15-1.64-.26v-4.84h-1.5c-1.29,0-2.2.11-2.73.33-.53.22-.79.64-.79,1.25,0,.34.15.64.43.91.29.27.83.41,1.61.41h.64v2.23h-.68c-1.4,0-2.43-.33-3.07-1-.64-.67-.96-1.64-.96-2.91s.49-2.25,1.46-2.93c.97-.68,2.56-1.02,4.76-1.02ZM92.95,42.27c.16.01.4.02.71.03.32,0,.58.01.77.01.98,0,1.68-.1,2.11-.31.42-.21.64-.54.64-.99,0-.48-.24-.83-.73-1.06-.48-.23-1.36-.34-2.64-.34h-.87v2.66Z"/>
    <path class="cls-2" d="M99.03,47.06v1.99l-1.5.24c.56.29.98.64,1.26,1.03.28.39.42.79.42,1.2,0,1.53-.96,2.29-2.88,2.29-.24,0-.56-.04-.96-.11-.4-.07-.75-.16-1.05-.26v-1.89h1.15c.59,0,1-.09,1.21-.27.21-.18.32-.4.32-.67,0-.34-.26-.62-.79-.84h-11.96v-2.72h14.79Z"/>
    <path class="cls-2" d="M99.03,55.25v1.99l-1.5.24c.56.29.98.64,1.26,1.03.28.39.42.79.42,1.2,0,1.53-.96,2.29-2.88,2.29-.24,0-.56-.04-.96-.11-.4-.07-.75-.16-1.05-.26v-1.89h1.15c.59,0,1-.09,1.21-.27.21-.18.32-.4.32-.67,0-.34-.26-.62-.79-.84h-11.96v-2.72h14.79Z"/>
    <path class="cls-2" d="M99.03,63.43v2.72h-14.79v-2.72h14.79ZM101.09,64.78c0-.5.16-.9.47-1.21.32-.3.76-.46,1.33-.46.64,0,1.09.15,1.35.46.26.3.4.71.4,1.22s-.14.94-.43,1.24-.73.45-1.32.45c-.56,0-1-.15-1.32-.45s-.48-.72-.48-1.25Z"/>
    <path class="cls-2" d="M88.13,72.41c.39,0,.82.02,1.31.07.49.05.97.12,1.45.23v2.22h-2.16c-.95,0-1.6.09-1.95.26-.36.18-.53.46-.53.85,0,.34.15.6.44.79.29.19.86.28,1.69.28h14.21v2.78h-13.9c-1.27,0-2.23-.19-2.89-.55-.66-.37-1.12-.85-1.36-1.43-.24-.59-.37-1.21-.37-1.87,0-.92.18-1.65.55-2.18.37-.53.86-.91,1.48-1.13.62-.22,1.29-.33,2.03-.33Z"/>
    <path class="cls-2" d="M84.08,86.24c0-.47.07-.95.21-1.43.14-.48.42-.92.85-1.33.43-.41,1.08-.73,1.95-.97.87-.24,2.04-.37,3.5-.37h2.32c1.44,0,2.58.12,3.42.38.84.25,1.47.58,1.88.99.41.41.68.85.8,1.33.13.48.19.95.19,1.41s-.06.9-.18,1.38c-.12.47-.38.91-.79,1.31-.4.4-1.03.73-1.88.98-.85.25-2,.38-3.45.38h-2.32c-1.44,0-2.59-.13-3.45-.39-.86-.26-1.51-.59-1.96-1-.44-.41-.73-.85-.88-1.32-.15-.47-.22-.92-.22-1.35ZM86.1,86.26c0,.49.27.83.81,1.02s1.5.29,2.88.29h3.68c1.39,0,2.36-.1,2.9-.29s.82-.53.82-1.02-.27-.87-.82-1.07c-.54-.21-1.51-.31-2.9-.31h-3.68c-1.38,0-2.34.1-2.88.31-.54.21-.81.57-.81,1.07Z"/>
    <path class="cls-2" d="M99.03,92.7v2.07l-1.58.27h-.01c.68.42,1.14.9,1.39,1.44.25.54.37,1.08.37,1.62,0,.86-.3,1.53-.91,2s-1.51.71-2.72.71h-11.33v-2.72h11.01c.65,0,1.1-.1,1.36-.3.25-.2.38-.49.38-.88,0-.27-.09-.54-.27-.79s-.43-.49-.74-.7h-11.74v-2.72h14.79Z"/>
    <path class="cls-2" d="M90.3,103.19h2.79c1.13,0,2.07.1,2.81.29s1.34.45,1.78.77.77.67.99,1.05.36.76.42,1.14c.07.38.1.73.1,1.04,0,.65-.14,1.25-.41,1.8-.28.55-.75.99-1.42,1.33-.67.33-1.6.5-2.79.5-.59,0-1.2-.03-1.82-.1-.62-.06-1.17-.15-1.64-.26v-4.85h-1.5c-1.29,0-2.2.11-2.73.33s-.79.63-.79,1.25c0,.34.15.64.43.91.29.27.83.41,1.61.41h.64v2.23h-.68c-1.4,0-2.43-.33-3.07-1-.64-.67-.96-1.64-.96-2.91s.49-2.25,1.46-2.93c.97-.68,2.56-1.02,4.76-1.02ZM92.95,108.58c.16.01.4.03.71.03.32,0,.58,0,.77,0,.98,0,1.68-.1,2.11-.31.42-.21.64-.54.64-.99,0-.48-.24-.83-.73-1.06-.48-.23-1.36-.34-2.64-.34h-.87v2.66Z"/>
    <path class="cls-2" d="M87.34,112.78c.32,0,.63.03.93.09.3.06.54.12.72.18v1.91c-1.07,0-1.82.13-2.25.4-.43.27-.64.65-.64,1.16,0,.36.11.64.33.84.22.2.48.3.78.3s.62-.08.91-.25c.29-.17.62-.4.97-.69l2.34-1.9c.65-.52,1.33-.98,2.05-1.38.71-.41,1.5-.61,2.36-.61.77,0,1.4.17,1.9.5.5.34.87.78,1.11,1.33.24.55.37,1.15.37,1.79,0,1.07-.26,1.92-.77,2.56-.51.64-1.28.96-2.3.96-.34,0-.67-.03-.99-.09-.33-.06-.6-.12-.83-.18v-1.88c.97-.01,1.7-.13,2.17-.34s.71-.57.71-1.06c0-.42-.13-.7-.39-.86-.26-.16-.54-.24-.86-.24-.34,0-.65.09-.93.26-.28.17-.59.39-.93.67l-2.6,2.15c-.26.21-.59.45-.98.72-.4.27-.85.51-1.34.71-.5.2-1.04.31-1.62.31-1.04,0-1.87-.33-2.51-.98-.63-.65-.95-1.58-.95-2.79,0-.66.1-1.26.31-1.8.21-.54.54-.98,1.02-1.29.48-.32,1.12-.48,1.93-.48Z"/>
  </g>
</svg>