<?xml version="1.0" encoding="UTF-8"?>
<svg id="OBJECTS" xmlns="http://www.w3.org/2000/svg" xmlns:xlink="http://www.w3.org/1999/xlink" viewBox="0 0 528.96 733.44">
  <defs>
    <style>
      .cls-1 {
        stroke: #e3a06b;
        stroke-width: 2px;
      }

      .cls-1, .cls-2 {
        fill: none;
        stroke-linecap: round;
        stroke-miterlimit: 10;
      }

      .cls-2 {
        stroke: #86cfd6;
      }

      .cls-3 {
        filter: url(#outer-glow-1);
      }

      .cls-3, .cls-4 {
        fill: #fff;
        stroke-width: 0px;
      }

      .cls-4 {
        filter: url(#outer-glow-2);
      }
    </style>
    <filter id="outer-glow-1" filterUnits="userSpaceOnUse">
      <feOffset dx="0" dy="0"/>
      <feGaussianBlur result="blur" stdDeviation="2"/>
      <feFlood flood-color="#000" flood-opacity=".45"/>
      <feComposite in2="blur" operator="in"/>
      <feComposite in="SourceGraphic"/>
    </filter>
    <filter id="outer-glow-2" filterUnits="userSpaceOnUse">
      <feOffset dx="0" dy="0"/>
      <feGaussianBlur result="blur-2" stdDeviation="2"/>
      <feFlood flood-color="#000" flood-opacity=".45"/>
      <feComposite in2="blur-2" operator="in"/>
      <feComposite in="SourceGraphic"/>
    </filter>
  </defs>
  <rect class="cls-3" x="6.16" y="15.28" width="516.72" height="712.02" rx="32.46" ry="32.46"/>
  <rect class="cls-4" x="7.7" y="6.05" width="505.95" height="712.02" rx="32.46" ry="32.46"/>
  <line class="cls-1" x1="64.6" y1="93.71" x2="452.14" y2="93.71"/>
  <line class="cls-1" x1="64.6" y1="651.95" x2="452.14" y2="651.95"/>
  <line class="cls-2" x1="64.6" y1="139.08" x2="450.6" y2="139.08"/>
  <line class="cls-2" x1="64.6" y1="169.84" x2="450.6" y2="169.84"/>
  <line class="cls-2" x1="64.6" y1="200.59" x2="450.6" y2="200.59"/>
  <line class="cls-2" x1="64.6" y1="232.89" x2="450.6" y2="232.89"/>
  <line class="cls-2" x1="64.6" y1="263.64" x2="450.6" y2="263.64"/>
  <line class="cls-2" x1="64.6" y1="294.4" x2="450.6" y2="294.4"/>
  <line class="cls-2" x1="64.6" y1="325.16" x2="450.6" y2="325.16"/>
  <line class="cls-2" x1="64.6" y1="357.45" x2="450.6" y2="357.45"/>
  <line class="cls-2" x1="64.6" y1="388.21" x2="450.6" y2="388.21"/>
  <line class="cls-2" x1="64.6" y1="418.97" x2="450.6" y2="418.97"/>
  <line class="cls-2" x1="64.6" y1="449.72" x2="450.6" y2="449.72"/>
  <line class="cls-2" x1="64.6" y1="482.02" x2="450.6" y2="482.02"/>
  <line class="cls-2" x1="64.6" y1="512.78" x2="450.6" y2="512.78"/>
  <line class="cls-2" x1="64.6" y1="543.53" x2="450.6" y2="543.53"/>
  <line class="cls-2" x1="64.6" y1="574.29" x2="450.6" y2="574.29"/>
  <line class="cls-2" x1="64.6" y1="606.58" x2="450.6" y2="606.58"/>
</svg>