<?xml version="1.0" encoding="UTF-8"?>
<svg id="Layer_1" data-name="Layer 1" xmlns="http://www.w3.org/2000/svg" viewBox="0 0 280 347.19">
  <defs>
    <style>
      .cls-1 {
        fill: #808184;
      }

      .cls-1, .cls-2, .cls-3, .cls-4 {
        stroke-width: 0px;
      }

      .cls-2 {
        fill: #fffffa;
      }

      .cls-3 {
        fill: #b14625;
      }

      .cls-4 {
        fill: #325e81;
      }
    </style>
  </defs>
  <polygon class="cls-1" points="0 239.28 12.32 231.46 12.32 239.28 0 239.28"/>
  <path class="cls-4" d="M107.12,0H12.32v347.19h267.68V0H107.12Z"/>
  <polygon class="cls-3" points="203.26 239.28 0 239.28 0 276.61 203.26 276.61 186.88 257.95 203.26 239.28"/>
  <g>
    <path class="cls-2" d="M23.6,245.72h4.24l4.64,24.83h-3.78l-.68-4.45h-4.59l-.65,4.45h-3.79l4.62-24.83ZM27.59,263.27l-1.77-12.43h-.16l-1.79,12.43h3.72Z"/>
    <path class="cls-2" d="M34.74,245.72h3.77v21.86h5.13v2.97h-8.9v-24.83Z"/>
    <path class="cls-2" d="M45.53,245.72h3.77v24.83h-3.77v-24.83Z"/>
    <path class="cls-2" d="M59.18,270.77c-.6,0-1.26-.09-1.97-.26-.71-.17-1.39-.54-2.03-1.09-.64-.55-1.16-1.38-1.57-2.49s-.61-2.6-.61-4.46v-8.8c0-1.49.14-2.74.41-3.73.28-.99.64-1.79,1.09-2.38.45-.6.95-1.04,1.5-1.34.55-.3,1.1-.49,1.64-.58.55-.09,1.05-.14,1.52-.14,1.28,0,2.29.24,3.04.71.75.47,1.28,1.11,1.61,1.91.32.8.49,1.68.49,2.64,0,.53-.04,1.02-.12,1.48-.08.45-.18.95-.28,1.49h-2.91v-1.19c0-2.72-.64-4.08-1.92-4.08-.69,0-1.21.3-1.58.89s-.55,1.69-.55,3.28v11.19c0,1.54.18,2.59.55,3.15.36.56.93.84,1.69.84.53,0,.97-.23,1.32-.68.35-.45.52-1.17.52-2.17v-2.36h3.3v2.3c0,1.99-.44,3.46-1.32,4.42-.88.96-2.16,1.44-3.82,1.44Z"/>
    <path class="cls-2" d="M66.98,245.72h3.77v24.83h-3.77v-24.83Z"/>
    <path class="cls-2" d="M77.62,245.72h4.24l4.64,24.83h-3.78l-.68-4.45h-4.59l-.65,4.45h-3.79l4.62-24.83ZM81.61,263.27l-1.77-12.43h-.16l-1.79,12.43h3.72Z"/>
    <path class="cls-2" d="M99.1,270.55h-3.91v-24.83h3.91c.71,0,1.43.03,2.18.1.75.07,1.47.24,2.16.52.69.28,1.32.73,1.87,1.36s.99,1.49,1.32,2.59c.32,1.1.49,2.51.49,4.24v7.21c0,1.73-.16,3.14-.49,4.24-.32,1.11-.76,1.97-1.32,2.6-.55.62-1.18,1.08-1.87,1.35-.69.28-1.41.45-2.16.52-.75.07-1.47.1-2.18.1ZM98.95,248.58v19.1h.81c.91,0,1.61-.16,2.1-.49.49-.33.83-.92,1.02-1.77.19-.85.28-2.05.28-3.61v-7.36c0-1.56-.09-2.76-.28-3.61-.19-.85-.53-1.44-1.02-1.77-.49-.33-1.19-.49-2.1-.49h-.81Z"/>
    <path class="cls-2" d="M113.24,245.72h4.24l4.64,24.83h-3.78l-.68-4.45h-4.59l-.65,4.45h-3.79l4.62-24.83ZM117.22,263.27l-1.77-12.43h-.16l-1.79,12.43h3.72Z"/>
    <path class="cls-2" d="M124.38,245.72h2.98l6.06,16.33h.09c-.04-.51-.09-1.09-.15-1.72-.06-.64-.12-1.4-.17-2.29-.05-.89-.07-1.98-.07-3.26v-9.06h3.34v24.83h-3.01l-6.03-15.89h-.12c.05.58.1,1.22.16,1.9.06.69.11,1.56.16,2.6.05,1.05.07,2.41.07,4.08v7.3h-3.31v-24.83Z"/>
    <path class="cls-2" d="M140.56,245.72h9.49v2.97h-5.73v7.43h4.49v2.97h-4.49v8.5h5.73v2.97h-9.49v-24.83Z"/>
    <path class="cls-2" d="M151.34,265.52c0-.53.03-1.03.09-1.48.06-.46.16-.94.28-1.45h2.92v1.1c0,1.34.2,2.36.61,3.07.41.71,1.03,1.07,1.87,1.07,1.45,0,2.18-.71,2.18-2.14,0-.55-.12-1.13-.36-1.74s-.7-1.36-1.39-2.24l-3.93-4.93c-.69-.89-1.22-1.78-1.61-2.67-.38-.89-.57-1.88-.57-2.98,0-1.65.51-3,1.53-4.05,1.02-1.05,2.44-1.58,4.25-1.58,1.46,0,2.61.26,3.45.79s1.42,1.19,1.77,2c.34.8.52,1.63.52,2.47,0,.53-.04,1.02-.12,1.48-.08.45-.18.95-.28,1.49h-2.91v-1.19c0-1.31-.21-2.32-.63-3.02s-1.01-1.06-1.79-1.06c-.71,0-1.24.2-1.61.59s-.55.92-.55,1.58c0,.56.12,1.07.35,1.53s.53.93.89,1.42l4.38,5.55c.8,1.04,1.42,2.02,1.84,2.96s.63,1.97.63,3.12c0,1.72-.55,3.07-1.64,4.08-1.09,1-2.55,1.5-4.38,1.5-1.49,0-2.66-.25-3.51-.76-.85-.51-1.44-1.17-1.79-1.97-.34-.8-.52-1.65-.52-2.53Z"/>
  </g>
  <rect class="cls-3" x="12.32" y="330.73" width="267.68" height="5.49"/>
  <g>
    <path class="cls-2" d="M180.99,313.71v4.71h-2.21v-12.7h4.86c1.42,0,2.55.37,3.38,1.11.83.74,1.25,1.72,1.25,2.93s-.41,2.21-1.23,2.91c-.82.69-1.96,1.04-3.43,1.04h-2.63ZM180.99,311.93h2.65c.78,0,1.38-.18,1.8-.55.41-.37.62-.9.62-1.6s-.21-1.23-.63-1.64c-.42-.41-.99-.62-1.73-.63h-2.71v4.43Z"/>
    <path class="cls-2" d="M194.94,310.91c-.28-.05-.57-.07-.86-.07-.97,0-1.63.37-1.96,1.12v6.45h-2.12v-9.44h2.02l.05,1.06c.51-.82,1.22-1.23,2.13-1.23.3,0,.55.04.75.12v1.99Z"/>
    <path class="cls-2" d="M199.74,315.38l1.92-6.4h2.26l-3.75,10.87c-.58,1.59-1.55,2.38-2.93,2.38-.31,0-.65-.05-1.02-.16v-1.65l.4.03c.54,0,.94-.1,1.21-.29.27-.19.48-.52.64-.98l.31-.81-3.31-9.39h2.28l2,6.4Z"/>
    <path class="cls-2" d="M208.9,316.9c.53,0,.97-.15,1.32-.46s.54-.69.56-1.14h2c-.02.59-.21,1.14-.55,1.64-.34.51-.81.91-1.4,1.21s-1.22.45-1.9.45c-1.32,0-2.37-.43-3.14-1.28-.77-.86-1.16-2.04-1.16-3.54v-.22c0-1.44.38-2.59,1.15-3.45.77-.86,1.81-1.3,3.14-1.3,1.12,0,2.04.33,2.74.98.71.65,1.08,1.51,1.11,2.58h-2c-.02-.54-.21-.99-.55-1.33s-.79-.52-1.32-.52c-.69,0-1.22.25-1.59.75-.37.5-.56,1.25-.57,2.26v.34c0,1.02.18,1.79.55,2.29.37.5.9.75,1.6.75Z"/>
    <path class="cls-2" d="M218.53,318.59c-1.34,0-2.43-.42-3.27-1.27-.83-.85-1.25-1.97-1.25-3.38v-.26c0-.94.18-1.78.55-2.53.36-.74.87-1.32,1.53-1.73s1.39-.62,2.2-.62c1.29,0,2.28.41,2.98,1.23.7.82,1.05,1.98,1.05,3.48v.86h-6.17c.06.78.32,1.4.78,1.85.46.45,1.03.68,1.72.68.97,0,1.76-.39,2.37-1.18l1.14,1.09c-.38.56-.88,1-1.51,1.31-.63.31-1.34.47-2.12.47ZM218.27,310.5c-.58,0-1.05.2-1.41.61-.36.41-.59.97-.68,1.7h4.04v-.16c-.05-.71-.24-1.25-.57-1.61-.33-.36-.79-.55-1.38-.55Z"/>
    <path class="cls-2" d="M223.84,309.48l-1.08-.67c.52-.76.79-1.57.81-2.42v-1.38h1.86v1.2c0,.6-.15,1.2-.46,1.81-.31.61-.68,1.09-1.13,1.45Z"/>
    <path class="cls-2" d="M230.54,315.85c0-.38-.16-.67-.47-.86-.31-.2-.83-.37-1.55-.52-.72-.15-1.32-.34-1.81-.58-1.06-.51-1.59-1.25-1.59-2.22,0-.81.34-1.49,1.03-2.04.69-.55,1.56-.82,2.62-.82,1.13,0,2.04.28,2.73.84.69.56,1.04,1.28,1.04,2.17h-2.12c0-.41-.15-.75-.45-1.02-.3-.27-.7-.41-1.2-.41-.47,0-.85.11-1.14.32s-.44.5-.44.86c0,.33.14.58.41.76.27.18.83.36,1.66.55.83.18,1.48.4,1.96.65s.83.56,1.06.91.34.78.34,1.29c0,.85-.35,1.54-1.06,2.06-.7.53-1.63.79-2.77.79-.77,0-1.46-.14-2.07-.42-.6-.28-1.08-.66-1.41-1.15-.34-.49-.51-1.01-.51-1.58h2.06c.03.5.22.89.57,1.16.35.27.81.41,1.39.41s.98-.11,1.27-.32c.29-.21.44-.49.44-.83Z"/>
    <path class="cls-2" d="M249.08,315.28l1.95-9.56h2.19l-2.93,12.7h-2.11l-2.42-9.27-2.47,9.27h-2.12l-2.93-12.7h2.19l1.97,9.54,2.42-9.54h1.85l2.4,9.56Z"/>
    <path class="cls-2" d="M254.64,306.53c0-.33.1-.6.31-.81.21-.22.5-.32.89-.32s.68.11.89.32c.21.22.31.49.31.81s-.1.59-.31.8c-.21.21-.51.32-.89.32s-.68-.11-.89-.32c-.21-.21-.31-.48-.31-.8ZM256.89,318.42h-2.12v-9.44h2.12v9.44Z"/>
    <path class="cls-2" d="M259.94,318.42v-7.87h-1.44v-1.57h1.44v-.86c0-1.05.29-1.85.87-2.42s1.4-.86,2.44-.86c.37,0,.77.05,1.19.16l-.05,1.66c-.23-.05-.5-.07-.81-.07-1.01,0-1.52.52-1.52,1.56v.84h1.92v1.57h-1.92v7.87h-2.12Z"/>
    <path class="cls-2" d="M269.47,318.59c-1.34,0-2.43-.42-3.27-1.27-.83-.85-1.25-1.97-1.25-3.38v-.26c0-.94.18-1.78.54-2.53.36-.74.87-1.32,1.53-1.73s1.39-.62,2.2-.62c1.29,0,2.28.41,2.98,1.23.7.82,1.05,1.98,1.05,3.48v.86h-6.17c.06.78.32,1.4.78,1.85.46.45,1.03.68,1.72.68.97,0,1.76-.39,2.37-1.18l1.14,1.09c-.38.56-.88,1-1.51,1.31-.63.31-1.34.47-2.12.47ZM269.22,310.5c-.58,0-1.05.2-1.41.61s-.59.97-.68,1.7h4.04v-.16c-.05-.71-.24-1.25-.57-1.61-.33-.36-.79-.55-1.38-.55Z"/>
  </g>
</svg>